{
.appVersion = "1056";
date = "2018-10-04 12:50:48 +0000";
designer = "Alexandre Texier x Mael Sinic";
familyName = "Phototype-D";
featurePrefixes = (
{
automatic = 1;
code = "languagesystem DFLT dflt;\012";
name = Languagesystems;
}
);
fontMaster = (
{
ascender = 500;
capHeight = 500;
customParameters = (
{
name = "Color Palettes";
value = (
(
"0,150,57,255"
)
);
}
);
descender = -200;
guideLines = (
{
angle = 270;
locked = 1;
position = "{50, 600}";
},
{
angle = 270;
locked = 1;
position = "{950, 600}";
},
{
angle = 270;
locked = 1;
position = "{500, 600}";
},
{
locked = 1;
position = "{-200, 650}";
},
{
locked = 1;
position = "{-200, -150}";
},
{
locked = 1;
position = "{-180, 500}";
},
{
locked = 1;
position = "{-180, 250}";
},
{
locked = 1;
position = "{-180, 0}";
}
);
id = "ADA7F6FF-5955-4EF3-8FA7-BADC10F8EE4C";
userData = {
GSOffsetHorizontal = 45;
GSOffsetVertical = 10;
};
visible = 1;
width = Extended;
xHeight = 500;
}
);
glyphs = (
{
glyphname = A;
lastChange = "2019-01-16 14:57:37 +0000";
layers = (
{
associatedMasterId = "ADA7F6FF-5955-4EF3-8FA7-BADC10F8EE4C";
layerId = "3508DF4F-807E-4F0E-BA5A-4A654B2D75EC";
name = path;
paths = (
{
closed = 0;
nodes = (
"50 0 LINE",
"440 500 LINE",
"560 500 LINE",
"950 0 LINE"
);
},
{
closed = 0;
nodes = (
"128 100 LINE",
"872 100 LINE"
);
}
);
width = 1000;
},
{
associatedMasterId = "ADA7F6FF-5955-4EF3-8FA7-BADC10F8EE4C";
layerId = "28939298-B466-42F3-A7D6-17C2C5D824BA";
name = "Oct 4 18, 15:38";
paths = (
{
closed = 1;
nodes = (
"90 -45 OFFCURVE",
"104 -37 OFFCURVE",
"112 -25 CURVE SMOOTH",
"168 55 LINE",
"882 55 LINE",
"938 -25 LINE SMOOTH",
"946 -37 OFFCURVE",
"960 -45 OFFCURVE",
"975 -45 CURVE SMOOTH",
"1000 -45 OFFCURVE",
"1020 -25 OFFCURVE",
"1020 0 CURVE SMOOTH",
"1020 10 OFFCURVE",
"1017 19 OFFCURVE",
"1012 26 CURVE SMOOTH",
"679 502 LINE SMOOTH",
"666 519 OFFCURVE",
"657 528 OFFCURVE",
"643 535 CURVE SMOOTH",
"630 542 OFFCURVE",
"617 545 OFFCURVE",
"595 545 CURVE SMOOTH",
"455 545 LINE SMOOTH",
"433 545 OFFCURVE",
"420 542 OFFCURVE",
"407 535 CURVE SMOOTH",
"393 528 OFFCURVE",
"384 519 OFFCURVE",
"371 502 CURVE SMOOTH",
"38 26 LINE SMOOTH",
"33 19 OFFCURVE",
"30 10 OFFCURVE",
"30 0 CURVE SMOOTH",
"30 -25 OFFCURVE",
"50 -45 OFFCURVE",
"75 -45 CURVE SMOOTH"
);
},
{
closed = 1;
nodes = (
"448 455 LINE",
"602 455 LINE",
"819 145 LINE",
"231 145 LINE"
);
}
);
width = 1050;
},
{
layerId = "ADA7F6FF-5955-4EF3-8FA7-BADC10F8EE4C";
paths = (
{
closed = 1;
nodes = (
"90 -45 OFFCURVE",
"103 -38 OFFCURVE",
"111 -27 CURVE SMOOTH",
"175 55 LINE",
"875 55 LINE",
"939 -27 LINE SMOOTH",
"947 -38 OFFCURVE",
"960 -45 OFFCURVE",
"975 -45 CURVE SMOOTH",
"1000 -45 OFFCURVE",
"1020 -25 OFFCURVE",
"1020 0 CURVE SMOOTH",
"1020 11 OFFCURVE",
"1016 20 OFFCURVE",
"1010 28 CURVE SMOOTH",
"638 505 LINE SMOOTH",
"625 521 OFFCURVE",
"616 530 OFFCURVE",
"603 536 CURVE SMOOTH",
"590 543 OFFCURVE",
"577 545 OFFCURVE",
"556 545 CURVE SMOOTH",
"494 545 LINE SMOOTH",
"473 545 OFFCURVE",
"460 543 OFFCURVE",
"447 536 CURVE SMOOTH",
"434 530 OFFCURVE",
"425 521 OFFCURVE",
"412 505 CURVE SMOOTH",
"40 28 LINE SMOOTH",
"34 20 OFFCURVE",
"30 11 OFFCURVE",
"30 0 CURVE SMOOTH",
"30 -25 OFFCURVE",
"50 -45 OFFCURVE",
"75 -45 CURVE SMOOTH"
);
},
{
closed = 1;
nodes = (
"487 455 LINE",
"563 455 LINE",
"805 145 LINE",
"245 145 LINE"
);
}
);
width = 1050;
},
{
associatedMasterId = "ADA7F6FF-5955-4EF3-8FA7-BADC10F8EE4C";
layerId = "932B730E-A3F4-4668-B809-FC65140D5B08";
name = path;
paths = (
{
closed = 0;
nodes = (
"50 0 LINE",
"420 500 LINE",
"580 500 LINE",
"950 0 LINE"
);
},
{
closed = 0;
nodes = (
"140 100 LINE",
"860 100 LINE"
);
}
);
width = 1000;
},
{
associatedMasterId = "ADA7F6FF-5955-4EF3-8FA7-BADC10F8EE4C";
layerId = "59FBAF03-3906-4C5E-B852-A10D5300B8E8";
name = "Oct 4 18, 15:38";
paths = (
{
closed = 1;
nodes = (
"90 -45 OFFCURVE",
"104 -37 OFFCURVE",
"112 -25 CURVE SMOOTH",
"168 55 LINE",
"882 55 LINE",
"938 -25 LINE SMOOTH",
"946 -37 OFFCURVE",
"960 -45 OFFCURVE",
"975 -45 CURVE SMOOTH",
"1000 -45 OFFCURVE",
"1020 -25 OFFCURVE",
"1020 0 CURVE SMOOTH",
"1020 10 OFFCURVE",
"1017 19 OFFCURVE",
"1012 26 CURVE SMOOTH",
"679 502 LINE SMOOTH",
"666 519 OFFCURVE",
"657 528 OFFCURVE",
"643 535 CURVE SMOOTH",
"630 542 OFFCURVE",
"617 545 OFFCURVE",
"595 545 CURVE SMOOTH",
"455 545 LINE SMOOTH",
"433 545 OFFCURVE",
"420 542 OFFCURVE",
"407 535 CURVE SMOOTH",
"393 528 OFFCURVE",
"384 519 OFFCURVE",
"371 502 CURVE SMOOTH",
"38 26 LINE SMOOTH",
"33 19 OFFCURVE",
"30 10 OFFCURVE",
"30 0 CURVE SMOOTH",
"30 -25 OFFCURVE",
"50 -45 OFFCURVE",
"75 -45 CURVE SMOOTH"
);
},
{
closed = 1;
nodes = (
"448 455 LINE",
"602 455 LINE",
"819 145 LINE",
"231 145 LINE"
);
}
);
width = 1050;
}
);
unicode = 0041;
},
{
glyphname = AE;
lastChange = "2019-01-15 14:26:11 +0000";
layers = (
{
layerId = "ADA7F6FF-5955-4EF3-8FA7-BADC10F8EE4C";
paths = (
{
closed = 1;
nodes = (
"90 -45 OFFCURVE",
"103 -38 OFFCURVE",
"111 -26 CURVE SMOOTH",
"172 55 LINE",
"480 55 LINE",
"480 28 LINE SMOOTH",
"480 8 OFFCURVE",
"487 -7 OFFCURVE",
"503 -23 CURVE SMOOTH",
"518 -38 OFFCURVE",
"534 -45 OFFCURVE",
"558 -45 CURVE SMOOTH",
"975 -45 LINE SMOOTH",
"1000 -45 OFFCURVE",
"1020 -25 OFFCURVE",
"1020 0 CURVE SMOOTH",
"1020 25 OFFCURVE",
"1000 45 OFFCURVE",
"975 45 CURVE SMOOTH",
"570 45 LINE",
"570 205 LINE",
"975 205 LINE SMOOTH",
"1000 205 OFFCURVE",
"1020 225 OFFCURVE",
"1020 250 CURVE SMOOTH",
"1020 275 OFFCURVE",
"1000 295 OFFCURVE",
"975 295 CURVE SMOOTH",
"570 295 LINE",
"570 455 LINE",
"975 455 LINE SMOOTH",
"1000 455 OFFCURVE",
"1020 475 OFFCURVE",
"1020 500 CURVE SMOOTH",
"1020 525 OFFCURVE",
"1000 545 OFFCURVE",
"975 545 CURVE SMOOTH",
"474 545 LINE SMOOTH",
"453 545 OFFCURVE",
"440 543 OFFCURVE",
"427 536 CURVE SMOOTH",
"414 529 OFFCURVE",
"404 520 OFFCURVE",
"391 503 CURVE SMOOTH",
"39 27 LINE SMOOTH",
"33 20 OFFCURVE",
"30 10 OFFCURVE",
"30 0 CURVE SMOOTH",
"30 -25 OFFCURVE",
"50 -45 OFFCURVE",
"75 -45 CURVE SMOOTH"
);
},
{
closed = 1;
nodes = (
"468 455 LINE",
"480 455 LINE",
"480 145 LINE",
"238 145 LINE"
);
}
);
width = 1050;
},
{
associatedMasterId = "ADA7F6FF-5955-4EF3-8FA7-BADC10F8EE4C";
layerId = "EAB11028-FE95-4805-B850-AB707480930A";
name = path;
paths = (
{
closed = 0;
nodes = (
"50 0 LINE",
"420 500 LINE",
"500 500 LINE"
);
},
{
closed = 0;
nodes = (
"126 100 LINE",
"500 100 LINE"
);
},
{
closed = 0;
nodes = (
"950 0 LINE",
"500 0 LINE",
"500 500 LINE",
"950 500 LINE"
);
},
{
closed = 0;
nodes = (
"500 250 LINE",
"950 250 LINE"
);
}
);
width = 1000;
}
);
unicode = 00C6;
},
{
glyphname = B;
lastChange = "2019-01-15 14:26:19 +0000";
layers = (
{
layerId = "ADA7F6FF-5955-4EF3-8FA7-BADC10F8EE4C";
paths = (
{
closed = 1;
nodes = (
"966 -46 OFFCURVE",
"981 -39 OFFCURVE",
"997 -24 CURVE SMOOTH",
"1013 -8 OFFCURVE",
"1020 8 OFFCURVE",
"1020 32 CURVE SMOOTH",
"1020 124 LINE SMOOTH",
"1020 208 OFFCURVE",
"970 272 OFFCURVE",
"895 290 CURVE",
"895 375 LINE SMOOTH",
"895 475 OFFCURVE",
"825 545 OFFCURVE",
"725 545 CURVE SMOOTH",
"108 545 LINE SMOOTH",
"84 545 OFFCURVE",
"68 538 OFFCURVE",
"53 523 CURVE SMOOTH",
"37 507 OFFCURVE",
"30 491 OFFCURVE",
"30 467 CURVE SMOOTH",
"30 33 LINE SMOOTH",
"30 9 OFFCURVE",
"37 -7 OFFCURVE",
"52 -23 CURVE SMOOTH",
"68 -38 OFFCURVE",
"84 -45 OFFCURVE",
"107 -45 CURVE SMOOTH",
"942 -46 LINE SMOOTH"
);
},
{
closed = 1;
nodes = (
"120 45 LINE",
"120 205 LINE",
"850 205 LINE SMOOTH",
"900 205 OFFCURVE",
"930 174 OFFCURVE",
"930 124 CURVE SMOOTH",
"930 44 LINE"
);
},
{
closed = 1;
nodes = (
"120 455 LINE",
"725 455 LINE SMOOTH",
"775 455 OFFCURVE",
"805 425 OFFCURVE",
"805 375 CURVE SMOOTH",
"805 295 LINE",
"120 295 LINE"
);
}
);
width = 1050;
},
{
associatedMasterId = "ADA7F6FF-5955-4EF3-8FA7-BADC10F8EE4C";
layerId = "AA821380-8FA2-4B76-A7B3-A4843A61C970";
name = path;
paths = (
{
closed = 0;
nodes = (
"701 250 LINE",
"825 250 LINE",
"900 250 OFFCURVE",
"950 199 OFFCURVE",
"950 124 CURVE SMOOTH",
"950 -1 LINE",
"50 0 LINE",
"50 500 LINE",
"825 500 LINE",
"825 375 LINE SMOOTH",
"825 300 OFFCURVE",
"775 250 OFFCURVE",
"700 250 CURVE SMOOTH",
"50 250 LINE"
);
}
);
width = 1000;
},
{
associatedMasterId = "ADA7F6FF-5955-4EF3-8FA7-BADC10F8EE4C";
layerId = "9E12B609-D221-4B4E-BA27-049819E4A726";
name = path2;
paths = (
{
closed = 0;
nodes = (
"50 250 LINE",
"825 250 LINE",
"900 250 OFFCURVE",
"950 199 OFFCURVE",
"950 124 CURVE",
"950 -1 LINE",
"50 0 LINE",
"50 500 LINE",
"700 500 LINE",
"775 500 OFFCURVE",
"825 450 OFFCURVE",
"825 375 CURVE",
"825 250 LINE"
);
}
);
width = 1000;
},
{
associatedMasterId = "ADA7F6FF-5955-4EF3-8FA7-BADC10F8EE4C";
layerId = "1DC065A4-B5CC-4D91-BCBC-33920DB7FE20";
name = path;
paths = (
{
closed = 0;
nodes = (
"701 250 LINE",
"825 250 LINE",
"900 250 OFFCURVE",
"950 199 OFFCURVE",
"950 124 CURVE SMOOTH",
"950 -1 LINE",
"50 0 LINE",
"50 500 LINE",
"825 500 LINE",
"825 375 LINE SMOOTH",
"825 300 OFFCURVE",
"775 250 OFFCURVE",
"700 250 CURVE SMOOTH",
"50 250 LINE"
);
}
);
width = 1000;
},
{
associatedMasterId = "ADA7F6FF-5955-4EF3-8FA7-BADC10F8EE4C";
layerId = "6A636452-B9E3-4AE7-BF5A-33C540C4DD90";
name = path2;
paths = (
{
closed = 0;
nodes = (
"50 250 LINE",
"825 250 LINE",
"900 250 OFFCURVE",
"950 199 OFFCURVE",
"950 124 CURVE",
"950 -1 LINE",
"50 0 LINE",
"50 500 LINE",
"700 500 LINE",
"775 500 OFFCURVE",
"825 450 OFFCURVE",
"825 375 CURVE",
"825 250 LINE"
);
}
);
width = 1000;
}
);
unicode = 0042;
},
{
glyphname = C;
lastChange = "2019-01-15 14:26:32 +0000";
layers = (
{
layerId = "ADA7F6FF-5955-4EF3-8FA7-BADC10F8EE4C";
paths = (
{
closed = 1;
nodes = (
"975 -45 LINE SMOOTH",
"1000 -45 OFFCURVE",
"1020 -25 OFFCURVE",
"1020 0 CURVE SMOOTH",
"1020 25 OFFCURVE",
"1000 45 OFFCURVE",
"975 45 CURVE SMOOTH",
"120 45 LINE",
"120 455 LINE",
"975 455 LINE SMOOTH",
"1000 455 OFFCURVE",
"1020 475 OFFCURVE",
"1020 500 CURVE SMOOTH",
"1020 525 OFFCURVE",
"1000 545 OFFCURVE",
"975 545 CURVE SMOOTH",
"108 545 LINE SMOOTH",
"84 545 OFFCURVE",
"68 538 OFFCURVE",
"53 523 CURVE SMOOTH",
"37 507 OFFCURVE",
"30 491 OFFCURVE",
"30 467 CURVE SMOOTH",
"30 33 LINE SMOOTH",
"30 9 OFFCURVE",
"37 -7 OFFCURVE",
"53 -23 CURVE SMOOTH",
"68 -38 OFFCURVE",
"84 -45 OFFCURVE",
"108 -45 CURVE SMOOTH"
);
}
);
width = 1050;
},
{
associatedMasterId = "ADA7F6FF-5955-4EF3-8FA7-BADC10F8EE4C";
layerId = "332286D3-EEB6-4991-B7F5-D635A3454B82";
name = path;
paths = (
{
closed = 0;
nodes = (
"950 0 LINE",
"50 0 LINE",
"50 500 LINE",
"950 500 LINE"
);
}
);
visible = 1;
width = 1000;
}
);
unicode = 0043;
},
{
glyphname = D;
lastChange = "2019-01-15 14:26:44 +0000";
layers = (
{
layerId = "ADA7F6FF-5955-4EF3-8FA7-BADC10F8EE4C";
paths = (
{
closed = 1;
nodes = (
"850 -45 LINE SMOOTH",
"950 -45 OFFCURVE",
"1020 25 OFFCURVE",
"1020 125 CURVE SMOOTH",
"1020 375 LINE SMOOTH",
"1020 475 OFFCURVE",
"950 545 OFFCURVE",
"850 545 CURVE SMOOTH",
"107 543 LINE SMOOTH",
"84 543 OFFCURVE",
"68 536 OFFCURVE",
"52 521 CURVE SMOOTH",
"36 505 OFFCURVE",
"30 489 OFFCURVE",
"30 465 CURVE SMOOTH",
"30 31 LINE SMOOTH",
"30 7 OFFCURVE",
"37 -9 OFFCURVE",
"53 -25 CURVE SMOOTH",
"69 -40 OFFCURVE",
"85 -47 OFFCURVE",
"108 -47 CURVE SMOOTH"
);
},
{
closed = 1;
nodes = (
"120 453 LINE",
"850 455 LINE SMOOTH",
"900 455 OFFCURVE",
"930 425 OFFCURVE",
"930 375 CURVE SMOOTH",
"930 125 LINE SMOOTH",
"930 75 OFFCURVE",
"900 45 OFFCURVE",
"850 45 CURVE SMOOTH",
"120 43 LINE"
);
}
);
width = 1050;
}
);
unicode = 0044;
},
{
glyphname = Eth;
lastChange = "2019-01-14 19:02:58 +0000";
layers = (
{
layerId = "ADA7F6FF-5955-4EF3-8FA7-BADC10F8EE4C";
paths = (
{
closed = 1;
nodes = (
"850 -45 LINE SMOOTH",
"950 -45 OFFCURVE",
"1020 25 OFFCURVE",
"1020 125 CURVE SMOOTH",
"1020 375 LINE SMOOTH",
"1020 475 OFFCURVE",
"950 545 OFFCURVE",
"850 545 CURVE SMOOTH",
"237 543 LINE SMOOTH",
"214 543 OFFCURVE",
"198 536 OFFCURVE",
"182 521 CURVE SMOOTH",
"166 505 OFFCURVE",
"160 489 OFFCURVE",
"160 465 CURVE SMOOTH",
"160 31 LINE SMOOTH",
"160 7 OFFCURVE",
"167 -9 OFFCURVE",
"183 -25 CURVE SMOOTH",
"199 -40 OFFCURVE",
"215 -47 OFFCURVE",
"238 -47 CURVE SMOOTH"
);
},
{
closed = 1;
nodes = (
"250 453 LINE",
"850 455 LINE SMOOTH",
"900 455 OFFCURVE",
"930 425 OFFCURVE",
"930 375 CURVE SMOOTH",
"930 125 LINE SMOOTH",
"930 75 OFFCURVE",
"900 45 OFFCURVE",
"850 45 CURVE SMOOTH",
"250 43 LINE"
);
},
{
closed = 1;
nodes = (
"550 203 LINE SMOOTH",
"575 203 OFFCURVE",
"595 223 OFFCURVE",
"595 248 CURVE SMOOTH",
"595 273 OFFCURVE",
"575 293 OFFCURVE",
"550 293 CURVE SMOOTH",
"75 293 LINE SMOOTH",
"50 293 OFFCURVE",
"30 273 OFFCURVE",
"30 248 CURVE SMOOTH",
"30 223 OFFCURVE",
"50 203 OFFCURVE",
"75 203 CURVE SMOOTH"
);
}
);
width = 1050;
},
{
associatedMasterId = "ADA7F6FF-5955-4EF3-8FA7-BADC10F8EE4C";
layerId = "0DDD53D2-B483-4144-9C43-A5464F350EDB";
name = "Nov 21 18, 22:22";
width = 600;
},
{
associatedMasterId = "ADA7F6FF-5955-4EF3-8FA7-BADC10F8EE4C";
layerId = "CD1D2322-5813-4EDC-8F49-D198E5F7C903";
name = "Nov 21 18, 22:22";
width = 600;
}
);
unicode = 00D0;
},
{
glyphname = E;
lastChange = "2019-01-15 14:26:56 +0000";
layers = (
{
layerId = "ADA7F6FF-5955-4EF3-8FA7-BADC10F8EE4C";
paths = (
{
closed = 1;
nodes = (
"975 -45 LINE SMOOTH",
"1000 -45 OFFCURVE",
"1020 -25 OFFCURVE",
"1020 0 CURVE SMOOTH",
"1020 25 OFFCURVE",
"1000 45 OFFCURVE",
"975 45 CURVE SMOOTH",
"120 45 LINE",
"120 205 LINE",
"975 205 LINE SMOOTH",
"1000 205 OFFCURVE",
"1020 225 OFFCURVE",
"1020 250 CURVE SMOOTH",
"1020 275 OFFCURVE",
"1000 295 OFFCURVE",
"975 295 CURVE SMOOTH",
"120 295 LINE",
"120 455 LINE",
"975 455 LINE SMOOTH",
"1000 455 OFFCURVE",
"1020 475 OFFCURVE",
"1020 500 CURVE SMOOTH",
"1020 525 OFFCURVE",
"1000 545 OFFCURVE",
"975 545 CURVE SMOOTH",
"108 545 LINE SMOOTH",
"84 545 OFFCURVE",
"68 538 OFFCURVE",
"53 523 CURVE SMOOTH",
"37 507 OFFCURVE",
"30 491 OFFCURVE",
"30 467 CURVE SMOOTH",
"30 33 LINE SMOOTH",
"30 9 OFFCURVE",
"37 -7 OFFCURVE",
"53 -23 CURVE SMOOTH",
"68 -38 OFFCURVE",
"84 -45 OFFCURVE",
"108 -45 CURVE SMOOTH"
);
}
);
width = 1050;
},
{
associatedMasterId = "ADA7F6FF-5955-4EF3-8FA7-BADC10F8EE4C";
layerId = "AA2E2A66-64FD-437E-8DDD-DB419572DEA2";
name = path;
paths = (
{
closed = 0;
nodes = (
"950 0 LINE",
"50 0 LINE",
"50 500 LINE",
"950 500 LINE"
);
},
{
closed = 0;
nodes = (
"50 250 LINE",
"950 250 LINE"
);
}
);
width = 1000;
}
);
unicode = 0045;
},
{
glyphname = F;
lastChange = "2019-01-15 14:27:07 +0000";
layers = (
{
layerId = "ADA7F6FF-5955-4EF3-8FA7-BADC10F8EE4C";
paths = (
{
closed = 1;
nodes = (
"100 -45 OFFCURVE",
"120 -25 OFFCURVE",
"120 0 CURVE SMOOTH",
"120 205 LINE",
"975 205 LINE SMOOTH",
"1000 205 OFFCURVE",
"1020 225 OFFCURVE",
"1020 250 CURVE SMOOTH",
"1020 275 OFFCURVE",
"1000 295 OFFCURVE",
"975 295 CURVE SMOOTH",
"120 295 LINE",
"120 455 LINE",
"975 455 LINE SMOOTH",
"1000 455 OFFCURVE",
"1020 475 OFFCURVE",
"1020 500 CURVE SMOOTH",
"1020 525 OFFCURVE",
"1000 545 OFFCURVE",
"975 545 CURVE SMOOTH",
"108 545 LINE SMOOTH",
"84 545 OFFCURVE",
"68 538 OFFCURVE",
"53 523 CURVE SMOOTH",
"37 507 OFFCURVE",
"30 491 OFFCURVE",
"30 467 CURVE SMOOTH",
"30 0 LINE SMOOTH",
"30 -25 OFFCURVE",
"50 -45 OFFCURVE",
"75 -45 CURVE SMOOTH"
);
}
);
width = 1050;
},
{
associatedMasterId = "ADA7F6FF-5955-4EF3-8FA7-BADC10F8EE4C";
layerId = "427ECFA4-C9B0-48A6-B163-E606606A64B9";
name = path;
paths = (
{
closed = 0;
nodes = (
"50 250 LINE",
"950 250 LINE"
);
},
{
closed = 0;
nodes = (
"50 0 LINE",
"50 500 LINE",
"950 500 LINE"
);
}
);
width = 1000;
}
);
unicode = 0046;
},
{
glyphname = G;
lastChange = "2019-01-15 14:27:13 +0000";
layers = (
{
layerId = "ADA7F6FF-5955-4EF3-8FA7-BADC10F8EE4C";
paths = (
{
closed = 1;
nodes = (
"942 -45 LINE SMOOTH",
"966 -45 OFFCURVE",
"982 -38 OFFCURVE",
"998 -23 CURVE SMOOTH",
"1013 -7 OFFCURVE",
"1020 9 OFFCURVE",
"1020 33 CURVE SMOOTH",
"1020 217 LINE SMOOTH",
"1020 241 OFFCURVE",
"1013 257 OFFCURVE",
"998 273 CURVE SMOOTH",
"982 288 OFFCURVE",
"966 295 OFFCURVE",
"942 295 CURVE SMOOTH",
"300 295 LINE SMOOTH",
"275 295 OFFCURVE",
"255 275 OFFCURVE",
"255 250 CURVE SMOOTH",
"255 225 OFFCURVE",
"275 205 OFFCURVE",
"300 205 CURVE SMOOTH",
"930 205 LINE",
"930 45 LINE",
"120 45 LINE",
"120 455 LINE",
"975 455 LINE SMOOTH",
"1000 455 OFFCURVE",
"1020 475 OFFCURVE",
"1020 500 CURVE SMOOTH",
"1020 525 OFFCURVE",
"1000 545 OFFCURVE",
"975 545 CURVE SMOOTH",
"108 545 LINE SMOOTH",
"84 545 OFFCURVE",
"68 538 OFFCURVE",
"53 523 CURVE SMOOTH",
"37 507 OFFCURVE",
"30 491 OFFCURVE",
"30 467 CURVE SMOOTH",
"30 33 LINE SMOOTH",
"30 9 OFFCURVE",
"37 -7 OFFCURVE",
"53 -23 CURVE SMOOTH",
"68 -38 OFFCURVE",
"84 -45 OFFCURVE",
"108 -45 CURVE SMOOTH"
);
}
);
width = 1050;
},
{
associatedMasterId = "ADA7F6FF-5955-4EF3-8FA7-BADC10F8EE4C";
layerId = "256E4E47-26CD-4593-902B-7BF63D1F9F21";
name = path;
paths = (
{
closed = 0;
nodes = (
"930 500 LINE",
"30 500 LINE",
"30 0 LINE",
"930 0 LINE",
"930 250 LINE",
"255 250 LINE"
);
}
);
visible = 1;
width = 960;
}
);
unicode = 0047;
},
{
glyphname = H;
lastChange = "2019-01-15 14:27:22 +0000";
layers = (
{
layerId = "ADA7F6FF-5955-4EF3-8FA7-BADC10F8EE4C";
paths = (
{
closed = 1;
nodes = (
"100 -45 OFFCURVE",
"120 -25 OFFCURVE",
"120 0 CURVE SMOOTH",
"120 205 LINE",
"930 205 LINE",
"930 0 LINE SMOOTH",
"930 -25 OFFCURVE",
"950 -45 OFFCURVE",
"975 -45 CURVE SMOOTH",
"1000 -45 OFFCURVE",
"1020 -25 OFFCURVE",
"1020 0 CURVE SMOOTH",
"1020 500 LINE SMOOTH",
"1020 525 OFFCURVE",
"1000 545 OFFCURVE",
"975 545 CURVE SMOOTH",
"950 545 OFFCURVE",
"930 525 OFFCURVE",
"930 500 CURVE SMOOTH",
"930 295 LINE",
"120 295 LINE",
"120 500 LINE SMOOTH",
"120 525 OFFCURVE",
"100 545 OFFCURVE",
"75 545 CURVE SMOOTH",
"50 545 OFFCURVE",
"30 525 OFFCURVE",
"30 500 CURVE SMOOTH",
"30 0 LINE SMOOTH",
"30 -25 OFFCURVE",
"50 -45 OFFCURVE",
"75 -45 CURVE SMOOTH"
);
}
);
width = 1050;
},
{
associatedMasterId = "ADA7F6FF-5955-4EF3-8FA7-BADC10F8EE4C";
layerId = "476FBEA2-CEC8-4C52-87A5-635122290EBE";
name = path;
paths = (
{
closed = 0;
nodes = (
"50 250 LINE",
"950 250 LINE"
);
},
{
closed = 0;
nodes = (
"50 0 LINE",
"50 500 LINE"
);
},
{
closed = 0;
nodes = (
"950 0 LINE",
"950 500 LINE"
);
}
);
width = 1000;
}
);
unicode = 0048;
},
{
glyphname = I;
lastChange = "2019-01-15 14:27:27 +0000";
layers = (
{
layerId = "ADA7F6FF-5955-4EF3-8FA7-BADC10F8EE4C";
paths = (
{
closed = 1;
nodes = (
"975 -45 LINE SMOOTH",
"1000 -45 OFFCURVE",
"1020 -25 OFFCURVE",
"1020 0 CURVE SMOOTH",
"1020 25 OFFCURVE",
"1000 45 OFFCURVE",
"975 45 CURVE SMOOTH",
"570 45 LINE",
"570 455 LINE",
"975 455 LINE SMOOTH",
"1000 455 OFFCURVE",
"1020 475 OFFCURVE",
"1020 500 CURVE SMOOTH",
"1020 525 OFFCURVE",
"1000 545 OFFCURVE",
"975 545 CURVE SMOOTH",
"75 545 LINE SMOOTH",
"50 545 OFFCURVE",
"30 525 OFFCURVE",
"30 500 CURVE SMOOTH",
"30 475 OFFCURVE",
"50 455 OFFCURVE",
"75 455 CURVE SMOOTH",
"480 455 LINE",
"480 45 LINE",
"75 45 LINE SMOOTH",
"50 45 OFFCURVE",
"30 25 OFFCURVE",
"30 0 CURVE SMOOTH",
"30 -25 OFFCURVE",
"50 -45 OFFCURVE",
"75 -45 CURVE SMOOTH"
);
}
);
width = 1050;
},
{
associatedMasterId = "ADA7F6FF-5955-4EF3-8FA7-BADC10F8EE4C";
layerId = "EA01F030-C0F9-46D4-92C4-F2A57DB2F300";
name = path;
paths = (
{
closed = 0;
nodes = (
"950 0 LINE",
"50 0 LINE"
);
},
{
closed = 0;
nodes = (
"950 500 LINE",
"50 500 LINE"
);
},
{
closed = 0;
nodes = (
"500 500 LINE",
"500 0 LINE"
);
}
);
width = 980;
}
);
unicode = 0049;
},
{
glyphname = J;
lastChange = "2019-01-16 14:51:24 +0000";
layers = (
{
layerId = "ADA7F6FF-5955-4EF3-8FA7-BADC10F8EE4C";
paths = (
{
closed = 1;
nodes = (
"942 -45 LINE SMOOTH",
"966 -45 OFFCURVE",
"982 -38 OFFCURVE",
"998 -23 CURVE SMOOTH",
"1013 -7 OFFCURVE",
"1020 9 OFFCURVE",
"1020 33 CURVE SMOOTH",
"1020 467 LINE SMOOTH",
"1020 491 OFFCURVE",
"1013 507 OFFCURVE",
"998 523 CURVE SMOOTH",
"982 538 OFFCURVE",
"966 545 OFFCURVE",
"942 545 CURVE SMOOTH",
"75 545 LINE SMOOTH",
"50 545 OFFCURVE",
"30 525 OFFCURVE",
"30 500 CURVE SMOOTH",
"30 475 OFFCURVE",
"50 455 OFFCURVE",
"75 455 CURVE SMOOTH",
"930 455 LINE",
"930 45 LINE",
"120 45 LINE",
"120 250 LINE SMOOTH",
"120 275 OFFCURVE",
"100 295 OFFCURVE",
"75 295 CURVE SMOOTH",
"50 295 OFFCURVE",
"30 275 OFFCURVE",
"30 250 CURVE SMOOTH",
"30 33 LINE SMOOTH",
"30 9 OFFCURVE",
"37 -7 OFFCURVE",
"53 -23 CURVE SMOOTH",
"68 -38 OFFCURVE",
"84 -45 OFFCURVE",
"108 -45 CURVE SMOOTH"
);
}
);
width = 1050;
},
{
associatedMasterId = "ADA7F6FF-5955-4EF3-8FA7-BADC10F8EE4C";
layerId = "80317083-6BE9-46B6-9AFF-137B963A54F7";
name = path;
paths = (
{
closed = 0;
nodes = (
"50 500 LINE",
"950 500 LINE",
"950 0 LINE",
"50 0 LINE",
"50 250 LINE"
);
}
);
visible = 1;
width = 1000;
}
);
unicode = 004A;
},
{
glyphname = K;
lastChange = "2019-01-16 14:52:27 +0000";
layers = (
{
layerId = "ADA7F6FF-5955-4EF3-8FA7-BADC10F8EE4C";
paths = (
{
closed = 1;
nodes = (
"100 -45 OFFCURVE",
"120 -25 OFFCURVE",
"120 0 CURVE SMOOTH",
"120 168 LINE",
"281 221 LINE",
"958 -42 LINE SMOOTH",
"963 -44 OFFCURVE",
"969 -45 OFFCURVE",
"975 -45 CURVE SMOOTH",
"1000 -45 OFFCURVE",
"1020 -25 OFFCURVE",
"1020 0 CURVE SMOOTH",
"1020 19 OFFCURVE",
"1008 36 OFFCURVE",
"990 42 CURVE SMOOTH",
"415 266 LINE",
"988 457 LINE SMOOTH",
"1007 463 OFFCURVE",
"1020 480 OFFCURVE",
"1020 500 CURVE SMOOTH",
"1020 525 OFFCURVE",
"1000 545 OFFCURVE",
"975 545 CURVE SMOOTH",
"970 545 OFFCURVE",
"965 544 OFFCURVE",
"960 542 CURVE SMOOTH",
"120 262 LINE",
"120 500 LINE SMOOTH",
"120 525 OFFCURVE",
"100 545 OFFCURVE",
"75 545 CURVE SMOOTH",
"50 545 OFFCURVE",
"30 525 OFFCURVE",
"30 500 CURVE SMOOTH",
"30 0 LINE SMOOTH",
"30 -25 OFFCURVE",
"50 -45 OFFCURVE",
"75 -45 CURVE SMOOTH"
);
}
);
width = 1050;
},
{
associatedMasterId = "ADA7F6FF-5955-4EF3-8FA7-BADC10F8EE4C";
layerId = "733DF08D-5D85-4832-95FF-7D0568EBB909";
name = path;
paths = (
{
closed = 0;
nodes = (
"50 200 LINE",
"950 500 LINE"
);
},
{
closed = 0;
nodes = (
"50 0 LINE",
"50 500 LINE"
);
},
{
closed = 0;
nodes = (
"950 0 LINE",
"258 269 LINE"
);
}
);
width = 1000;
}
);
unicode = 004B;
},
{
glyphname = L;
lastChange = "2019-01-15 14:31:22 +0000";
layers = (
{
associatedMasterId = "ADA7F6FF-5955-4EF3-8FA7-BADC10F8EE4C";
layerId = "15F4C9DE-D177-4BDB-A281-2C4B881DC727";
name = path;
paths = (
{
closed = 0;
nodes = (
"950 0 LINE",
"50 0 LINE",
"50 500 LINE"
);
}
);
width = 1000;
},
{
layerId = "ADA7F6FF-5955-4EF3-8FA7-BADC10F8EE4C";
paths = (
{
closed = 1;
nodes = (
"975 -45 LINE SMOOTH",
"1000 -45 OFFCURVE",
"1020 -25 OFFCURVE",
"1020 0 CURVE SMOOTH",
"1020 25 OFFCURVE",
"1000 45 OFFCURVE",
"975 45 CURVE SMOOTH",
"120 45 LINE",
"120 500 LINE SMOOTH",
"120 525 OFFCURVE",
"100 545 OFFCURVE",
"75 545 CURVE SMOOTH",
"50 545 OFFCURVE",
"30 525 OFFCURVE",
"30 500 CURVE SMOOTH",
"30 33 LINE SMOOTH",
"30 9 OFFCURVE",
"37 -7 OFFCURVE",
"53 -23 CURVE SMOOTH",
"68 -38 OFFCURVE",
"84 -45 OFFCURVE",
"108 -45 CURVE SMOOTH"
);
}
);
width = 1050;
}
);
unicode = 004C;
},
{
glyphname = M;
lastChange = "2019-01-15 14:31:27 +0000";
layers = (
{
layerId = "ADA7F6FF-5955-4EF3-8FA7-BADC10F8EE4C";
paths = (
{
closed = 1;
nodes = (
"100 -45 OFFCURVE",
"120 -25 OFFCURVE",
"120 0 CURVE SMOOTH",
"120 383 LINE",
"469 -5 LINE SMOOTH",
"485 -23 OFFCURVE",
"501 -30 OFFCURVE",
"525 -30 CURVE SMOOTH",
"525 -30 LINE SMOOTH",
"549 -30 OFFCURVE",
"565 -23 OFFCURVE",
"581 -5 CURVE SMOOTH",
"930 383 LINE",
"930 0 LINE SMOOTH",
"930 -25 OFFCURVE",
"950 -45 OFFCURVE",
"975 -45 CURVE SMOOTH",
"1000 -45 OFFCURVE",
"1020 -25 OFFCURVE",
"1020 0 CURVE SMOOTH",
"1020 462 LINE SMOOTH",
"1020 488 OFFCURVE",
"1009 504 OFFCURVE",
"984 514 CURVE SMOOTH",
"977 516 LINE SMOOTH",
"953 526 OFFCURVE",
"933 521 OFFCURVE",
"916 502 CURVE SMOOTH",
"525 67 LINE",
"134 502 LINE SMOOTH",
"117 521 OFFCURVE",
"97 526 OFFCURVE",
"73 516 CURVE SMOOTH",
"66 514 LINE SMOOTH",
"41 504 OFFCURVE",
"30 488 OFFCURVE",
"30 462 CURVE SMOOTH",
"30 0 LINE SMOOTH",
"30 -25 OFFCURVE",
"50 -45 OFFCURVE",
"75 -45 CURVE SMOOTH"
);
}
);
width = 1050;
},
{
associatedMasterId = "ADA7F6FF-5955-4EF3-8FA7-BADC10F8EE4C";
layerId = "506D02AE-B350-4DDF-91D2-AB967CA9A9DF";
name = path;
paths = (
{
closed = 0;
nodes = (
"50 0 LINE",
"50 500 LINE",
"500 0 LINE",
"950 500 LINE",
"950 0 LINE"
);
}
);
width = 1000;
}
);
unicode = 004D;
},
{
glyphname = N;
lastChange = "2019-01-15 14:31:34 +0000";
layers = (
{
layerId = "ADA7F6FF-5955-4EF3-8FA7-BADC10F8EE4C";
paths = (
{
closed = 1;
nodes = (
"100 -45 OFFCURVE",
"120 -25 OFFCURVE",
"120 0 CURVE SMOOTH",
"120 424 LINE",
"922 -22 LINE SMOOTH",
"944 -34 OFFCURVE",
"963 -34 OFFCURVE",
"984 -21 CURVE SMOOTH",
"989 -18 LINE SMOOTH",
"1011 -6 OFFCURVE",
"1020 11 OFFCURVE",
"1020 36 CURVE SMOOTH",
"1020 500 LINE SMOOTH",
"1020 525 OFFCURVE",
"1000 545 OFFCURVE",
"975 545 CURVE SMOOTH",
"950 545 OFFCURVE",
"930 525 OFFCURVE",
"930 500 CURVE SMOOTH",
"930 76 LINE",
"128 522 LINE SMOOTH",
"106 534 OFFCURVE",
"87 534 OFFCURVE",
"66 521 CURVE SMOOTH",
"61 518 LINE SMOOTH",
"39 506 OFFCURVE",
"30 489 OFFCURVE",
"30 464 CURVE SMOOTH",
"30 0 LINE SMOOTH",
"30 -25 OFFCURVE",
"50 -45 OFFCURVE",
"75 -45 CURVE SMOOTH"
);
}
);
width = 1050;
},
{
associatedMasterId = "ADA7F6FF-5955-4EF3-8FA7-BADC10F8EE4C";
layerId = "02F44D51-9545-49D3-80AC-0F86BEAF3628";
name = path;
paths = (
{
closed = 0;
nodes = (
"50 0 LINE",
"50 500 LINE",
"950 0 LINE",
"950 500 LINE"
);
}
);
width = 1000;
}
);
unicode = 004E;
},
{
glyphname = O;
lastChange = "2019-01-15 14:31:41 +0000";
layers = (
{
layerId = "ADA7F6FF-5955-4EF3-8FA7-BADC10F8EE4C";
paths = (
{
closed = 1;
nodes = (
"942 -45 LINE SMOOTH",
"966 -45 OFFCURVE",
"982 -38 OFFCURVE",
"998 -23 CURVE SMOOTH",
"1013 -7 OFFCURVE",
"1020 9 OFFCURVE",
"1020 33 CURVE SMOOTH",
"1020 467 LINE SMOOTH",
"1020 491 OFFCURVE",
"1013 507 OFFCURVE",
"998 523 CURVE SMOOTH",
"982 538 OFFCURVE",
"966 545 OFFCURVE",
"942 545 CURVE SMOOTH",
"108 545 LINE SMOOTH",
"84 545 OFFCURVE",
"68 538 OFFCURVE",
"53 523 CURVE SMOOTH",
"37 507 OFFCURVE",
"30 491 OFFCURVE",
"30 467 CURVE SMOOTH",
"30 33 LINE SMOOTH",
"30 9 OFFCURVE",
"37 -7 OFFCURVE",
"53 -23 CURVE SMOOTH",
"68 -38 OFFCURVE",
"84 -45 OFFCURVE",
"108 -45 CURVE SMOOTH"
);
},
{
closed = 1;
nodes = (
"120 455 LINE",
"930 455 LINE",
"930 45 LINE",
"120 45 LINE"
);
}
);
width = 1050;
},
{
associatedMasterId = "ADA7F6FF-5955-4EF3-8FA7-BADC10F8EE4C";
layerId = "ACCF6737-4D79-4163-B459-3563FA1143C3";
name = path;
paths = (
{
closed = 1;
nodes = (
"950 500 LINE",
"950 0 LINE",
"50 0 LINE",
"50 500 LINE"
);
}
);
width = 1000;
}
);
unicode = 004F;
},
{
glyphname = OE;
lastChange = "2019-01-15 14:31:50 +0000";
layers = (
{
layerId = "ADA7F6FF-5955-4EF3-8FA7-BADC10F8EE4C";
paths = (
{
closed = 1;
nodes = (
"975 -45 LINE SMOOTH",
"1000 -45 OFFCURVE",
"1020 -25 OFFCURVE",
"1020 0 CURVE SMOOTH",
"1020 25 OFFCURVE",
"1000 45 OFFCURVE",
"975 45 CURVE SMOOTH",
"570 45 LINE",
"570 205 LINE",
"975 205 LINE SMOOTH",
"1000 205 OFFCURVE",
"1020 225 OFFCURVE",
"1020 250 CURVE SMOOTH",
"1020 275 OFFCURVE",
"1000 295 OFFCURVE",
"975 295 CURVE SMOOTH",
"570 295 LINE",
"570 455 LINE",
"975 455 LINE SMOOTH",
"1000 455 OFFCURVE",
"1020 475 OFFCURVE",
"1020 500 CURVE SMOOTH",
"1020 525 OFFCURVE",
"1000 545 OFFCURVE",
"975 545 CURVE SMOOTH",
"108 545 LINE SMOOTH",
"84 545 OFFCURVE",
"68 538 OFFCURVE",
"53 523 CURVE SMOOTH",
"37 507 OFFCURVE",
"30 491 OFFCURVE",
"30 467 CURVE SMOOTH",
"30 33 LINE SMOOTH",
"30 9 OFFCURVE",
"37 -7 OFFCURVE",
"53 -23 CURVE SMOOTH",
"68 -38 OFFCURVE",
"84 -45 OFFCURVE",
"108 -45 CURVE SMOOTH"
);
},
{
closed = 1;
nodes = (
"120 455 LINE",
"480 455 LINE",
"480 45 LINE",
"120 45 LINE"
);
}
);
width = 1050;
},
{
associatedMasterId = "ADA7F6FF-5955-4EF3-8FA7-BADC10F8EE4C";
layerId = "3C8C7874-19F9-4531-AD05-FB43404CBF44";
name = path;
paths = (
{
closed = 0;
nodes = (
"500 0 LINE",
"50 0 LINE",
"50 500 LINE",
"500 500 LINE"
);
},
{
closed = 0;
nodes = (
"950 0 LINE",
"500 0 LINE",
"500 500 LINE",
"950 500 LINE"
);
},
{
closed = 0;
nodes = (
"500 250 LINE",
"950 250 LINE"
);
}
);
visible = 1;
width = 1000;
}
);
unicode = 0152;
},
{
glyphname = P;
lastChange = "2019-01-15 14:32:02 +0000";
layers = (
{
layerId = "ADA7F6FF-5955-4EF3-8FA7-BADC10F8EE4C";
paths = (
{
closed = 1;
nodes = (
"100 -45 OFFCURVE",
"120 -25 OFFCURVE",
"120 0 CURVE SMOOTH",
"120 205 LINE",
"942 205 LINE SMOOTH",
"966 205 OFFCURVE",
"982 212 OFFCURVE",
"998 228 CURVE SMOOTH",
"1013 243 OFFCURVE",
"1020 259 OFFCURVE",
"1020 283 CURVE SMOOTH",
"1020 467 LINE SMOOTH",
"1020 491 OFFCURVE",
"1013 507 OFFCURVE",
"998 523 CURVE SMOOTH",
"982 538 OFFCURVE",
"966 545 OFFCURVE",
"942 545 CURVE SMOOTH",
"108 545 LINE SMOOTH",
"84 545 OFFCURVE",
"68 538 OFFCURVE",
"53 523 CURVE SMOOTH",
"37 507 OFFCURVE",
"30 491 OFFCURVE",
"30 467 CURVE SMOOTH",
"30 0 LINE SMOOTH",
"30 -25 OFFCURVE",
"50 -45 OFFCURVE",
"75 -45 CURVE SMOOTH"
);
},
{
closed = 1;
nodes = (
"120 455 LINE",
"930 455 LINE",
"930 295 LINE",
"120 295 LINE"
);
}
);
width = 1050;
},
{
associatedMasterId = "ADA7F6FF-5955-4EF3-8FA7-BADC10F8EE4C";
layerId = "681473A0-42C1-4B6F-ADB2-BDF2D3C97F72";
name = path;
paths = (
{
closed = 0;
nodes = (
"50 0 LINE",
"50 500 LINE",
"950 500 LINE",
"950 250 LINE",
"50 250 LINE"
);
}
);
visible = 1;
width = 1000;
}
);
unicode = 0050;
},
{
glyphname = Thorn;
lastChange = "2019-01-14 19:02:58 +0000";
layers = (
{
layerId = "ADA7F6FF-5955-4EF3-8FA7-BADC10F8EE4C";
paths = (
{
closed = 1;
nodes = (
"100 -45 OFFCURVE",
"120 -25 OFFCURVE",
"120 0 CURVE SMOOTH",
"120 500 LINE SMOOTH",
"120 525 OFFCURVE",
"100 545 OFFCURVE",
"75 545 CURVE SMOOTH",
"50 545 OFFCURVE",
"30 525 OFFCURVE",
"30 500 CURVE SMOOTH",
"30 0 LINE SMOOTH",
"30 -25 OFFCURVE",
"50 -45 OFFCURVE",
"75 -45 CURVE SMOOTH"
);
},
{
closed = 1;
nodes = (
"830 57 LINE SMOOTH",
"930 57 OFFCURVE",
"1000 127 OFFCURVE",
"1000 227 CURVE SMOOTH",
"1000 277 LINE SMOOTH",
"1000 377 OFFCURVE",
"930 447 OFFCURVE",
"830 447 CURVE SMOOTH",
"120 445 LINE",
"93 406 LINE",
"120 355 LINE",
"830 357 LINE SMOOTH",
"880 357 OFFCURVE",
"910 327 OFFCURVE",
"910 277 CURVE SMOOTH",
"910 227 LINE SMOOTH",
"910 177 OFFCURVE",
"880 147 OFFCURVE",
"830 147 CURVE SMOOTH",
"120 145 LINE",
"97 114 LINE",
"120 55 LINE"
);
}
);
width = 1030;
}
);
unicode = 00DE;
},
{
glyphname = Q;
lastChange = "2019-01-15 14:32:16 +0000";
layers = (
{
layerId = "ADA7F6FF-5955-4EF3-8FA7-BADC10F8EE4C";
paths = (
{
closed = 1;
nodes = (
"942 -45 LINE SMOOTH",
"966 -45 OFFCURVE",
"982 -38 OFFCURVE",
"998 -23 CURVE SMOOTH",
"1013 -7 OFFCURVE",
"1020 9 OFFCURVE",
"1020 33 CURVE SMOOTH",
"1020 467 LINE SMOOTH",
"1020 491 OFFCURVE",
"1013 507 OFFCURVE",
"998 523 CURVE SMOOTH",
"982 538 OFFCURVE",
"966 545 OFFCURVE",
"942 545 CURVE SMOOTH",
"108 545 LINE SMOOTH",
"84 545 OFFCURVE",
"68 538 OFFCURVE",
"53 523 CURVE SMOOTH",
"37 507 OFFCURVE",
"30 491 OFFCURVE",
"30 467 CURVE SMOOTH",
"30 33 LINE SMOOTH",
"30 9 OFFCURVE",
"37 -7 OFFCURVE",
"53 -23 CURVE SMOOTH",
"68 -38 OFFCURVE",
"84 -45 OFFCURVE",
"108 -45 CURVE SMOOTH"
);
},
{
closed = 1;
nodes = (
"120 455 LINE",
"930 455 LINE",
"930 76 LINE",
"548 289 LINE SMOOTH",
"541 293 OFFCURVE",
"533 295 OFFCURVE",
"525 295 CURVE SMOOTH",
"500 295 OFFCURVE",
"480 275 OFFCURVE",
"480 250 CURVE SMOOTH",
"480 233 OFFCURVE",
"490 218 OFFCURVE",
"504 210 CURVE SMOOTH",
"801 45 LINE",
"120 45 LINE"
);
}
);
width = 1050;
},
{
associatedMasterId = "ADA7F6FF-5955-4EF3-8FA7-BADC10F8EE4C";
layerId = "C9BC58A6-B2B6-45DE-B6AE-DFE327D452F5";
name = path;
paths = (
{
closed = 1;
nodes = (
"950 500 LINE",
"950 0 LINE",
"50 0 LINE",
"50 500 LINE"
);
},
{
closed = 0;
nodes = (
"500 250 LINE",
"950 0 LINE"
);
}
);
width = 1000;
}
);
unicode = 0051;
},
{
glyphname = R;
lastChange = "2019-01-15 14:32:22 +0000";
layers = (
{
layerId = "ADA7F6FF-5955-4EF3-8FA7-BADC10F8EE4C";
paths = (
{
closed = 1;
nodes = (
"974.853 -46 OFFCURVE",
"995 -25.853 OFFCURVE",
"995 -1 CURVE SMOOTH",
"995 124 LINE SMOOTH",
"995 175.558 OFFCURVE",
"976.281 219.387 OFFCURVE",
"944.519 249.762 CURVE",
"976.312 279.92 OFFCURVE",
"995 323.527 OFFCURVE",
"995 375 CURVE SMOOTH",
"995 467.466 LINE SMOOTH",
"995 490.589 OFFCURVE",
"988.491 506.509 OFFCURVE",
"972.5 522.5 CURVE SMOOTH",
"956.509 538.491 OFFCURVE",
"940.589 545 OFFCURVE",
"917.466 545 CURVE SMOOTH",
"82.534 545 LINE SMOOTH",
"59.411 545 OFFCURVE",
"43.491 538.491 OFFCURVE",
"27.5 522.5 CURVE SMOOTH",
"11.509 506.509 OFFCURVE",
"5 490.589 OFFCURVE",
"5 467.466 CURVE SMOOTH",
"5 0 LINE SMOOTH",
"5 -24.853 OFFCURVE",
"25.147 -45 OFFCURVE",
"50 -45 CURVE SMOOTH",
"74.853 -45 OFFCURVE",
"95 -24.853 OFFCURVE",
"95 0 CURVE SMOOTH",
"95 205 LINE",
"825 205 LINE SMOOTH",
"874.644 205 OFFCURVE",
"905 174.341 OFFCURVE",
"905 124 CURVE SMOOTH",
"905 -1 LINE SMOOTH",
"905 -25.853 OFFCURVE",
"925.147 -46 OFFCURVE",
"950 -46 CURVE SMOOTH"
);
},
{
closed = 1;
nodes = (
"95 455 LINE",
"905 455 LINE",
"905 375 LINE SMOOTH",
"905 325.007 OFFCURVE",
"874.993 295 OFFCURVE",
"825 295 CURVE SMOOTH",
"95 295 LINE"
);
}
);
width = 1050;
},
{
associatedMasterId = "ADA7F6FF-5955-4EF3-8FA7-BADC10F8EE4C";
layerId = "04FBDE31-C792-4FD3-81D4-42867D99793E";
name = path;
paths = (
{
closed = 0;
nodes = (
"50 0 LINE",
"50 500 LINE",
"950 500 LINE",
"950 375 LINE SMOOTH",
"950 300 OFFCURVE",
"900 250 OFFCURVE",
"825 250 CURVE SMOOTH",
"50 250 LINE"
);
},
{
closed = 0;
nodes = (
"950 -1 LINE",
"950 124 LINE SMOOTH",
"950 199 OFFCURVE",
"900 250 OFFCURVE",
"825 250 CURVE SMOOTH",
"794 250 LINE"
);
}
);
visible = 1;
width = 1000;
}
);
unicode = 0052;
},
{
glyphname = S;
lastChange = "2019-01-15 14:32:30 +0000";
layers = (
{
layerId = "ADA7F6FF-5955-4EF3-8FA7-BADC10F8EE4C";
paths = (
{
closed = 1;
nodes = (
"942 -45 LINE SMOOTH",
"966 -45 OFFCURVE",
"982 -38 OFFCURVE",
"998 -23 CURVE SMOOTH",
"1013 -7 OFFCURVE",
"1020 9 OFFCURVE",
"1020 33 CURVE SMOOTH",
"1020 217 LINE SMOOTH",
"1020 241 OFFCURVE",
"1013 257 OFFCURVE",
"998 273 CURVE SMOOTH",
"982 288 OFFCURVE",
"966 295 OFFCURVE",
"942 295 CURVE SMOOTH",
"120 295 LINE",
"120 455 LINE",
"975 455 LINE SMOOTH",
"1000 455 OFFCURVE",
"1020 475 OFFCURVE",
"1020 500 CURVE SMOOTH",
"1020 525 OFFCURVE",
"1000 545 OFFCURVE",
"975 545 CURVE SMOOTH",
"108 545 LINE SMOOTH",
"84 545 OFFCURVE",
"68 538 OFFCURVE",
"53 523 CURVE SMOOTH",
"37 507 OFFCURVE",
"30 491 OFFCURVE",
"30 467 CURVE SMOOTH",
"30 283 LINE SMOOTH",
"30 259 OFFCURVE",
"37 243 OFFCURVE",
"53 228 CURVE SMOOTH",
"68 212 OFFCURVE",
"84 205 OFFCURVE",
"108 205 CURVE SMOOTH",
"930 205 LINE",
"930 45 LINE",
"75 45 LINE SMOOTH",
"50 45 OFFCURVE",
"30 25 OFFCURVE",
"30 0 CURVE SMOOTH",
"30 -25 OFFCURVE",
"50 -45 OFFCURVE",
"75 -45 CURVE SMOOTH"
);
}
);
width = 1050;
},
{
associatedMasterId = "ADA7F6FF-5955-4EF3-8FA7-BADC10F8EE4C";
layerId = "51E03DD6-6FFF-4E2C-AC9E-A47E0399BA88";
name = path;
paths = (
{
closed = 0;
nodes = (
"950 500 LINE",
"50 500 LINE",
"50 250 LINE",
"950 250 LINE",
"950 0 LINE",
"50 0 LINE"
);
}
);
visible = 1;
width = 1000;
}
);
unicode = 0053;
},
{
glyphname = T;
lastChange = "2019-01-15 14:32:36 +0000";
layers = (
{
layerId = "ADA7F6FF-5955-4EF3-8FA7-BADC10F8EE4C";
paths = (
{
closed = 1;
nodes = (
"550 -45 OFFCURVE",
"570 -25 OFFCURVE",
"570 0 CURVE SMOOTH",
"570 455 LINE",
"975 455 LINE SMOOTH",
"1000 455 OFFCURVE",
"1020 475 OFFCURVE",
"1020 500 CURVE SMOOTH",
"1020 525 OFFCURVE",
"1000 545 OFFCURVE",
"975 545 CURVE SMOOTH",
"75 545 LINE SMOOTH",
"50 545 OFFCURVE",
"30 525 OFFCURVE",
"30 500 CURVE SMOOTH",
"30 475 OFFCURVE",
"50 455 OFFCURVE",
"75 455 CURVE SMOOTH",
"480 455 LINE",
"480 0 LINE SMOOTH",
"480 -25 OFFCURVE",
"500 -45 OFFCURVE",
"525 -45 CURVE SMOOTH"
);
}
);
width = 1050;
},
{
associatedMasterId = "ADA7F6FF-5955-4EF3-8FA7-BADC10F8EE4C";
layerId = "C27597F6-F5AD-4D1D-8A60-8830BB7DE810";
name = path;
paths = (
{
closed = 0;
nodes = (
"950 500 LINE",
"50 500 LINE"
);
},
{
closed = 0;
nodes = (
"500 500 LINE",
"500 0 LINE"
);
}
);
visible = 1;
width = 1000;
}
);
unicode = 0054;
},
{
glyphname = U;
lastChange = "2019-01-15 14:32:42 +0000";
layers = (
{
layerId = "ADA7F6FF-5955-4EF3-8FA7-BADC10F8EE4C";
paths = (
{
closed = 1;
nodes = (
"942 -45 LINE SMOOTH",
"966 -45 OFFCURVE",
"982 -38 OFFCURVE",
"998 -23 CURVE SMOOTH",
"1013 -7 OFFCURVE",
"1020 9 OFFCURVE",
"1020 33 CURVE SMOOTH",
"1020 500 LINE SMOOTH",
"1020 525 OFFCURVE",
"1000 545 OFFCURVE",
"975 545 CURVE SMOOTH",
"950 545 OFFCURVE",
"930 525 OFFCURVE",
"930 500 CURVE SMOOTH",
"930 45 LINE",
"120 45 LINE",
"120 500 LINE SMOOTH",
"120 525 OFFCURVE",
"100 545 OFFCURVE",
"75 545 CURVE SMOOTH",
"50 545 OFFCURVE",
"30 525 OFFCURVE",
"30 500 CURVE SMOOTH",
"30 33 LINE SMOOTH",
"30 9 OFFCURVE",
"37 -7 OFFCURVE",
"53 -23 CURVE SMOOTH",
"68 -38 OFFCURVE",
"84 -45 OFFCURVE",
"108 -45 CURVE SMOOTH"
);
}
);
width = 1050;
},
{
associatedMasterId = "ADA7F6FF-5955-4EF3-8FA7-BADC10F8EE4C";
layerId = "846C0801-3315-4FA7-B339-6147F971ED18";
name = path;
paths = (
{
closed = 0;
nodes = (
"950 500 LINE",
"950 0 LINE",
"50 0 LINE",
"50 500 LINE"
);
}
);
visible = 1;
width = 1000;
}
);
unicode = 0055;
},
{
glyphname = V;
lastChange = "2019-01-15 14:32:52 +0000";
layers = (
{
layerId = "ADA7F6FF-5955-4EF3-8FA7-BADC10F8EE4C";
paths = (
{
closed = 1;
nodes = (
"525 -30 LINE SMOOTH",
"549 -30 OFFCURVE",
"565 -23 OFFCURVE",
"581 -5 CURVE SMOOTH",
"1008 470 LINE SMOOTH",
"1016 478 OFFCURVE",
"1020 488 OFFCURVE",
"1020 500 CURVE SMOOTH",
"1020 525 OFFCURVE",
"1000 545 OFFCURVE",
"975 545 CURVE SMOOTH",
"962 545 OFFCURVE",
"950 539 OFFCURVE",
"941 530 CURVE SMOOTH",
"525 67 LINE",
"109 530 LINE SMOOTH",
"100 539 OFFCURVE",
"88 545 OFFCURVE",
"75 545 CURVE SMOOTH",
"50 545 OFFCURVE",
"30 525 OFFCURVE",
"30 500 CURVE SMOOTH",
"30 488 OFFCURVE",
"34 478 OFFCURVE",
"42 470 CURVE SMOOTH",
"469 -5 LINE SMOOTH",
"485 -23 OFFCURVE",
"501 -30 OFFCURVE",
"525 -30 CURVE SMOOTH"
);
}
);
width = 1050;
},
{
associatedMasterId = "ADA7F6FF-5955-4EF3-8FA7-BADC10F8EE4C";
layerId = "67036B0E-AB36-43A6-B0F3-2B01F748710F";
name = path;
paths = (
{
closed = 0;
nodes = (
"50 500 LINE",
"500 0 LINE",
"950 500 LINE"
);
}
);
width = 1000;
}
);
unicode = 0056;
},
{
glyphname = W;
lastChange = "2019-01-15 14:32:57 +0000";
layers = (
{
layerId = "ADA7F6FF-5955-4EF3-8FA7-BADC10F8EE4C";
paths = (
{
closed = 1;
nodes = (
"780 -18 LINE SMOOTH",
"805 -17 OFFCURVE",
"821 -6 OFFCURVE",
"831 18 CURVE SMOOTH",
"1016 482 LINE SMOOTH",
"1019 488 OFFCURVE",
"1020 494 OFFCURVE",
"1020 500 CURVE SMOOTH",
"1020 525 OFFCURVE",
"1000 545 OFFCURVE",
"975 545 CURVE SMOOTH",
"956 545 OFFCURVE",
"939 533 OFFCURVE",
"933 516 CURVE SMOOTH",
"770 110 LINE",
"582 487 LINE SMOOTH",
"570 510 OFFCURVE",
"554 520 OFFCURVE",
"529 520 CURVE SMOOTH",
"521 520 LINE SMOOTH",
"496 520 OFFCURVE",
"480 510 OFFCURVE",
"468 487 CURVE SMOOTH",
"280 110 LINE",
"117 516 LINE SMOOTH",
"111 533 OFFCURVE",
"94 545 OFFCURVE",
"75 545 CURVE SMOOTH",
"50 545 OFFCURVE",
"30 525 OFFCURVE",
"30 500 CURVE SMOOTH",
"30 494 OFFCURVE",
"31 488 OFFCURVE",
"34 482 CURVE SMOOTH",
"219 18 LINE SMOOTH",
"229 -6 OFFCURVE",
"245 -17 OFFCURVE",
"270 -18 CURVE SMOOTH",
"278 -19 LINE SMOOTH",
"304 -20 OFFCURVE",
"320 -10 OFFCURVE",
"332 13 CURVE SMOOTH",
"525 399 LINE",
"718 13 LINE SMOOTH",
"730 -10 OFFCURVE",
"746 -20 OFFCURVE",
"772 -19 CURVE SMOOTH"
);
}
);
width = 1050;
},
{
associatedMasterId = "ADA7F6FF-5955-4EF3-8FA7-BADC10F8EE4C";
layerId = "905EDD42-EEB8-403B-99C7-FCB41D150BAA";
name = path;
paths = (
{
closed = 0;
nodes = (
"950 500 LINE",
"750 0 LINE",
"500 500 LINE",
"250 0 LINE",
"50 500 LINE"
);
}
);
width = 1000;
}
);
unicode = 0057;
},
{
glyphname = X;
lastChange = "2019-01-15 14:33:05 +0000";
layers = (
{
layerId = "ADA7F6FF-5955-4EF3-8FA7-BADC10F8EE4C";
paths = (
{
closed = 1;
nodes = (
"83 -45 OFFCURVE",
"91 -43 OFFCURVE",
"98 -39 CURVE SMOOTH",
"525 199 LINE",
"952 -39 LINE SMOOTH",
"959 -43 OFFCURVE",
"967 -45 OFFCURVE",
"975 -45 CURVE SMOOTH",
"1000 -45 OFFCURVE",
"1020 -25 OFFCURVE",
"1020 0 CURVE SMOOTH",
"1020 17 OFFCURVE",
"1010 32 OFFCURVE",
"996 40 CURVE SMOOTH",
"618 250 LINE",
"996 460 LINE SMOOTH",
"1010 468 OFFCURVE",
"1020 483 OFFCURVE",
"1020 500 CURVE SMOOTH",
"1020 525 OFFCURVE",
"1000 545 OFFCURVE",
"975 545 CURVE SMOOTH",
"967 545 OFFCURVE",
"959 543 OFFCURVE",
"952 539 CURVE SMOOTH",
"525 301 LINE",
"98 539 LINE SMOOTH",
"91 543 OFFCURVE",
"83 545 OFFCURVE",
"75 545 CURVE SMOOTH",
"50 545 OFFCURVE",
"30 525 OFFCURVE",
"30 500 CURVE SMOOTH",
"30 483 OFFCURVE",
"40 468 OFFCURVE",
"54 460 CURVE SMOOTH",
"432 250 LINE",
"54 40 LINE SMOOTH",
"40 32 OFFCURVE",
"30 17 OFFCURVE",
"30 0 CURVE SMOOTH",
"30 -25 OFFCURVE",
"50 -45 OFFCURVE",
"75 -45 CURVE SMOOTH"
);
}
);
width = 1050;
},
{
associatedMasterId = "ADA7F6FF-5955-4EF3-8FA7-BADC10F8EE4C";
layerId = "F83150C8-03EC-4E49-819E-2CB0787160C7";
name = path;
paths = (
{
closed = 0;
nodes = (
"50 500 LINE",
"950 0 LINE"
);
},
{
closed = 0;
nodes = (
"950 500 LINE",
"50 0 LINE"
);
}
);
visible = 1;
width = 1000;
}
);
unicode = 0058;
},
{
glyphname = Y;
lastChange = "2019-01-15 14:33:19 +0000";
layers = (
{
associatedMasterId = "ADA7F6FF-5955-4EF3-8FA7-BADC10F8EE4C";
layerId = "657B65C7-D9B0-4D8F-89FD-CE9F188AEA81";
name = path;
paths = (
{
closed = 0;
nodes = (
"50 500 LINE",
"500 100 LINE",
"950 500 LINE"
);
},
{
closed = 0;
nodes = (
"500 100 LINE",
"500 0 LINE"
);
}
);
visible = 1;
width = 1000;
},
{
layerId = "ADA7F6FF-5955-4EF3-8FA7-BADC10F8EE4C";
paths = (
{
closed = 1;
nodes = (
"550 -45 OFFCURVE",
"570 -25 OFFCURVE",
"570 0 CURVE SMOOTH",
"570 80 LINE",
"1005 466 LINE SMOOTH",
"1014 474 OFFCURVE",
"1020 487 OFFCURVE",
"1020 500 CURVE SMOOTH",
"1020 525 OFFCURVE",
"1000 545 OFFCURVE",
"975 545 CURVE SMOOTH",
"963 545 OFFCURVE",
"953 541 OFFCURVE",
"945 534 CURVE SMOOTH",
"525 160 LINE",
"105 534 LINE SMOOTH",
"97 541 OFFCURVE",
"87 545 OFFCURVE",
"75 545 CURVE SMOOTH",
"50 545 OFFCURVE",
"30 525 OFFCURVE",
"30 500 CURVE SMOOTH",
"30 487 OFFCURVE",
"36 474 OFFCURVE",
"45 466 CURVE SMOOTH",
"480 80 LINE",
"480 0 LINE SMOOTH",
"480 -25 OFFCURVE",
"500 -45 OFFCURVE",
"525 -45 CURVE SMOOTH"
);
}
);
width = 1050;
}
);
unicode = 0059;
},
{
glyphname = Z;
lastChange = "2019-01-15 14:33:26 +0000";
layers = (
{
layerId = "ADA7F6FF-5955-4EF3-8FA7-BADC10F8EE4C";
paths = (
{
closed = 1;
nodes = (
"975 -45 LINE SMOOTH",
"1000 -45 OFFCURVE",
"1020 -25 OFFCURVE",
"1020 0 CURVE SMOOTH",
"1020 25 OFFCURVE",
"1000 45 OFFCURVE",
"975 45 CURVE SMOOTH",
"249 45 LINE",
"962 441 LINE SMOOTH",
"985 454 OFFCURVE",
"994 473 OFFCURVE",
"987 499 CURVE SMOOTH",
"985 506 LINE SMOOTH",
"978 532 OFFCURVE",
"962 545 OFFCURVE",
"935 545 CURVE SMOOTH",
"75 545 LINE SMOOTH",
"50 545 OFFCURVE",
"30 525 OFFCURVE",
"30 500 CURVE SMOOTH",
"30 475 OFFCURVE",
"50 455 OFFCURVE",
"75 455 CURVE SMOOTH",
"801 455 LINE",
"88 59 LINE SMOOTH",
"65 46 OFFCURVE",
"56 27 OFFCURVE",
"63 1 CURVE SMOOTH",
"65 -6 LINE SMOOTH",
"72 -32 OFFCURVE",
"88 -45 OFFCURVE",
"115 -45 CURVE SMOOTH"
);
}
);
width = 1050;
},
{
associatedMasterId = "ADA7F6FF-5955-4EF3-8FA7-BADC10F8EE4C";
layerId = "12B388FB-A8AF-4469-AE23-40117660B6A7";
name = path;
paths = (
{
closed = 0;
nodes = (
"950 0 LINE",
"50 0 LINE",
"950 500 LINE",
"50 500 LINE"
);
}
);
visible = 1;
width = 1000;
}
);
unicode = 005A;
},
{
glyphname = A.alt1;
lastChange = "2019-01-15 14:33:32 +0000";
layers = (
{
layerId = "ADA7F6FF-5955-4EF3-8FA7-BADC10F8EE4C";
paths = (
{
closed = 1;
nodes = (
"100 -45 OFFCURVE",
"120 -25 OFFCURVE",
"120 0 CURVE SMOOTH",
"120 205 LINE",
"930 205 LINE",
"930 0 LINE SMOOTH",
"930 -25 OFFCURVE",
"950 -45 OFFCURVE",
"975 -45 CURVE SMOOTH",
"1000 -45 OFFCURVE",
"1020 -25 OFFCURVE",
"1020 0 CURVE SMOOTH",
"1020 467 LINE SMOOTH",
"1020 491 OFFCURVE",
"1013 507 OFFCURVE",
"998 523 CURVE SMOOTH",
"982 538 OFFCURVE",
"966 545 OFFCURVE",
"942 545 CURVE SMOOTH",
"108 545 LINE SMOOTH",
"84 545 OFFCURVE",
"68 538 OFFCURVE",
"53 523 CURVE SMOOTH",
"37 507 OFFCURVE",
"30 491 OFFCURVE",
"30 467 CURVE SMOOTH",
"30 0 LINE SMOOTH",
"30 -25 OFFCURVE",
"50 -45 OFFCURVE",
"75 -45 CURVE SMOOTH"
);
},
{
closed = 1;
nodes = (
"120 455 LINE",
"930 455 LINE",
"930 295 LINE",
"120 295 LINE"
);
}
);
width = 1050;
},
{
associatedMasterId = "ADA7F6FF-5955-4EF3-8FA7-BADC10F8EE4C";
layerId = "C76ABC3D-1B0F-4ED1-87B2-8BB7EF0BC64A";
name = path;
paths = (
{
closed = 0;
nodes = (
"50 250 LINE",
"950 250 LINE"
);
},
{
closed = 0;
nodes = (
"50 0 LINE",
"50 500 LINE",
"950 500 LINE",
"950 0 LINE"
);
}
);
visible = 1;
width = 1000;
}
);
},
{
glyphname = W.alt1;
lastChange = "2019-01-15 14:33:45 +0000";
layers = (
{
layerId = "ADA7F6FF-5955-4EF3-8FA7-BADC10F8EE4C";
paths = (
{
closed = 1;
nodes = (
"987 -16 LINE SMOOTH",
"1010 -5 OFFCURVE",
"1020 11 OFFCURVE",
"1020 37 CURVE SMOOTH",
"1020 500 LINE SMOOTH",
"1020 525 OFFCURVE",
"1000 545 OFFCURVE",
"975 545 CURVE SMOOTH",
"950 545 OFFCURVE",
"930 525 OFFCURVE",
"930 500 CURVE SMOOTH",
"930 92 LINE",
"577 366 LINE SMOOTH",
"560 380 OFFCURVE",
"545 386 OFFCURVE",
"525 386 CURVE SMOOTH",
"505 386 OFFCURVE",
"490 380 OFFCURVE",
"473 366 CURVE SMOOTH",
"120 92 LINE",
"120 500 LINE SMOOTH",
"120 525 OFFCURVE",
"100 545 OFFCURVE",
"75 545 CURVE SMOOTH",
"50 545 OFFCURVE",
"30 525 OFFCURVE",
"30 500 CURVE SMOOTH",
"30 37 LINE SMOOTH",
"30 11 OFFCURVE",
"40 -5 OFFCURVE",
"63 -16 CURVE SMOOTH",
"70 -19 LINE SMOOTH",
"92 -31 OFFCURVE",
"112 -29 OFFCURVE",
"132 -13 CURVE SMOOTH",
"525 293 LINE",
"918 -13 LINE SMOOTH",
"938 -29 OFFCURVE",
"958 -31 OFFCURVE",
"980 -19 CURVE SMOOTH"
);
}
);
width = 1050;
},
{
associatedMasterId = "ADA7F6FF-5955-4EF3-8FA7-BADC10F8EE4C";
layerId = "21F35DD4-6C00-4465-97E7-F5C22FD6A676";
name = path;
paths = (
{
closed = 0;
nodes = (
"975 500 LINE",
"975 0 LINE",
"525 350 LINE",
"75 0 LINE",
"75 500 LINE"
);
}
);
visible = 1;
width = 1050;
}
);
},
{
color = 5;
glyphname = a;
lastChange = "2019-01-16 14:59:59 +0000";
layers = (
{
layerId = "ADA7F6FF-5955-4EF3-8FA7-BADC10F8EE4C";
paths = (
{
closed = 1;
nodes = (
"30 -25 OFFCURVE",
"50 -45 OFFCURVE",
"75 -45 CURVE SMOOTH",
"90 -45 OFFCURVE",
"103 -38 OFFCURVE",
"111 -27 CURVE SMOOTH",
"175 55 LINE",
"875 55 LINE",
"939 -27 LINE SMOOTH",
"947 -38 OFFCURVE",
"960 -45 OFFCURVE",
"975 -45 CURVE SMOOTH",
"1000 -45 OFFCURVE",
"1020 -25 OFFCURVE",
"1020 0 CURVE SMOOTH",
"1020 11 OFFCURVE",
"1016 20 OFFCURVE",
"1010 28 CURVE SMOOTH",
"621 527 LINE SMOOTH",
"613 538 OFFCURVE",
"600 545 OFFCURVE",
"585 545 CURVE SMOOTH",
"465 545 LINE SMOOTH",
"450 545 OFFCURVE",
"437 538 OFFCURVE",
"429 527 CURVE SMOOTH",
"40 28 LINE SMOOTH",
"34 20 OFFCURVE",
"30 11 OFFCURVE",
"30 0 CURVE SMOOTH"
);
},
{
closed = 1;
nodes = (
"487 455 LINE",
"563 455 LINE",
"805 145 LINE",
"245 145 LINE"
);
}
);
width = 1050;
},
{
associatedMasterId = "ADA7F6FF-5955-4EF3-8FA7-BADC10F8EE4C";
layerId = "E4690273-3AEC-4294-93EE-EE80F4474194";
name = path;
paths = (
{
closed = 0;
nodes = (
"75 0 LINE",
"465 500 LINE",
"585 500 LINE",
"975 0 LINE"
);
},
{
closed = 0;
nodes = (
"153 100 LINE",
"897 100 LINE"
);
}
);
visible = 1;
width = 1050;
}
);
unicode = 0061;
},
{
color = 5;
glyphname = ae;
lastChange = "2019-01-16 14:56:56 +0000";
layers = (
{
layerId = "ADA7F6FF-5955-4EF3-8FA7-BADC10F8EE4C";
paths = (
{
closed = 1;
nodes = (
"30 -25 OFFCURVE",
"50 -45 OFFCURVE",
"75 -45 CURVE SMOOTH",
"90 -45 OFFCURVE",
"103 -38 OFFCURVE",
"111 -26 CURVE",
"171 55 LINE",
"480 55 LINE",
"480 0 LINE SMOOTH",
"480 -25 OFFCURVE",
"500 -45 OFFCURVE",
"525 -45 CURVE SMOOTH",
"975 -45 LINE SMOOTH",
"1000 -45 OFFCURVE",
"1020 -25 OFFCURVE",
"1020 0 CURVE SMOOTH",
"1020 25 OFFCURVE",
"1000 45 OFFCURVE",
"975 45 CURVE SMOOTH",
"570 45 LINE",
"570 205 LINE",
"975 205 LINE SMOOTH",
"1000 205 OFFCURVE",
"1020 225 OFFCURVE",
"1020 250 CURVE SMOOTH",
"1020 275 OFFCURVE",
"1000 295 OFFCURVE",
"975 295 CURVE SMOOTH",
"570 295 LINE",
"570 455 LINE",
"975 455 LINE SMOOTH",
"1000 455 OFFCURVE",
"1020 475 OFFCURVE",
"1020 500 CURVE SMOOTH",
"1020 525 OFFCURVE",
"1000 545 OFFCURVE",
"975 545 CURVE SMOOTH",
"445 545 LINE SMOOTH",
"430 545 OFFCURVE",
"417 538 OFFCURVE",
"409 526 CURVE",
"39 27 LINE",
"33 20 OFFCURVE",
"30 10 OFFCURVE",
"30 0 CURVE SMOOTH"
);
},
{
closed = 1;
nodes = (
"468 455 LINE",
"480 455 LINE",
"480 145 LINE",
"238 145 LINE"
);
}
);
width = 1050;
},
{
associatedMasterId = "ADA7F6FF-5955-4EF3-8FA7-BADC10F8EE4C";
layerId = "90B71770-56A1-4548-A452-5D026B122F4E";
name = path;
paths = (
{
closed = 0;
nodes = (
"50 0 LINE",
"420 500 LINE",
"500 500 LINE"
);
},
{
closed = 0;
nodes = (
"124 100 LINE",
"500 100 LINE"
);
},
{
closed = 0;
nodes = (
"950 0 LINE",
"500 0 LINE",
"500 500 LINE",
"950 500 LINE"
);
},
{
closed = 0;
nodes = (
"500 250 LINE",
"950 250 LINE"
);
}
);
visible = 1;
width = 600;
}
);
unicode = 00E6;
},
{
color = 5;
glyphname = b;
lastChange = "2019-01-15 14:40:15 +0000";
layers = (
{
layerId = "ADA7F6FF-5955-4EF3-8FA7-BADC10F8EE4C";
paths = (
{
closed = 1;
nodes = (
"120 205 LINE",
"850 205 LINE SMOOTH",
"896.905 205 OFFCURVE",
"930 170.213 OFFCURVE",
"930 124 CURVE SMOOTH",
"930 45 LINE",
"120 45 LINE"
);
},
{
closed = 1;
nodes = (
"120 455 LINE",
"725 455 LINE SMOOTH",
"776.962 455 OFFCURVE",
"805 426.962 OFFCURVE",
"805 375 CURVE SMOOTH",
"805 295 LINE",
"120 295 LINE"
);
},
{
closed = 1;
nodes = (
"50 545 OFFCURVE",
"30 525 OFFCURVE",
"30 500 CURVE SMOOTH",
"30 0 LINE SMOOTH",
"30 -25 OFFCURVE",
"50 -45 OFFCURVE",
"75 -45 CURVE SMOOTH",
"975 -45 LINE SMOOTH",
"1000 -45 OFFCURVE",
"1020 -25 OFFCURVE",
"1020 0 CURVE SMOOTH",
"1020 124 LINE SMOOTH",
"1020 204 OFFCURVE",
"968 270 OFFCURVE",
"895 289 CURVE",
"895 375 LINE SMOOTH",
"895 477 OFFCURVE",
"827 545 OFFCURVE",
"725 545 CURVE SMOOTH",
"75 545 LINE SMOOTH"
);
}
);
width = 1050;
},
{
associatedMasterId = "ADA7F6FF-5955-4EF3-8FA7-BADC10F8EE4C";
layerId = "43C3E764-EA7B-4310-8AF7-A4EAB00B1317";
name = path;
paths = (
{
closed = 1;
nodes = (
"940 250 OFFCURVE",
"975 174 OFFCURVE",
"975 124 CURVE",
"975 0 LINE",
"75 0 LINE",
"75 500 LINE",
"725 500 LINE",
"805 500 OFFCURVE",
"850 449 OFFCURVE",
"850 375 CURVE SMOOTH",
"850 250 LINE"
);
},
{
closed = 0;
nodes = (
"75 250 LINE",
"850 250 LINE"
);
}
);
visible = 1;
width = 1050;
}
);
unicode = 0062;
},
{
color = 5;
glyphname = c;
lastChange = "2019-01-14 19:02:58 +0000";
layers = (
{
layerId = "ADA7F6FF-5955-4EF3-8FA7-BADC10F8EE4C";
paths = (
{
closed = 1;
nodes = (
"30 -25 OFFCURVE",
"50 -45 OFFCURVE",
"75 -45 CURVE SMOOTH",
"975 -45 LINE SMOOTH",
"1000 -45 OFFCURVE",
"1020 -25 OFFCURVE",
"1020 0 CURVE SMOOTH",
"1020 25 OFFCURVE",
"1000 45 OFFCURVE",
"975 45 CURVE SMOOTH",
"120 45 LINE",
"120 455 LINE",
"975 455 LINE SMOOTH",
"1000 455 OFFCURVE",
"1020 475 OFFCURVE",
"1020 500 CURVE SMOOTH",
"1020 525 OFFCURVE",
"1000 545 OFFCURVE",
"975 545 CURVE SMOOTH",
"75 545 LINE SMOOTH",
"50 545 OFFCURVE",
"30 525 OFFCURVE",
"30 500 CURVE SMOOTH",
"30 0 LINE SMOOTH"
);
}
);
width = 1050;
}
);
unicode = 0063;
},
{
color = 5;
glyphname = d;
lastChange = "2019-01-15 14:45:53 +0000";
layers = (
{
layerId = "ADA7F6FF-5955-4EF3-8FA7-BADC10F8EE4C";
paths = (
{
closed = 1;
nodes = (
"120 455 LINE",
"844 455 LINE SMOOTH",
"893 455 OFFCURVE",
"924 424 OFFCURVE",
"924 375 CURVE SMOOTH",
"924 125 LINE SMOOTH",
"924 76 OFFCURVE",
"893 45 OFFCURVE",
"843 45 CURVE SMOOTH",
"120 45 LINE"
);
},
{
closed = 1;
nodes = (
"30 -25 OFFCURVE",
"50 -45 OFFCURVE",
"75 -45 CURVE SMOOTH",
"843 -45 LINE SMOOTH",
"943 -45 OFFCURVE",
"1014 26 OFFCURVE",
"1014 125 CURVE SMOOTH",
"1014 375 LINE SMOOTH",
"1014 474 OFFCURVE",
"943 545 OFFCURVE",
"844 545 CURVE SMOOTH",
"75 545 LINE SMOOTH",
"50 545 OFFCURVE",
"30 525 OFFCURVE",
"30 500 CURVE SMOOTH",
"30 0 LINE SMOOTH"
);
}
);
width = 1044;
},
{
associatedMasterId = "ADA7F6FF-5955-4EF3-8FA7-BADC10F8EE4C";
layerId = "6A660B9B-ECF8-4BC3-9438-143DCF1C4E66";
name = path;
paths = (
{
closed = 1;
nodes = (
"75 0 LINE",
"843 0 LINE",
"913 0 OFFCURVE",
"969 46 OFFCURVE",
"969 125 CURVE",
"969 375 LINE",
"969 453 OFFCURVE",
"914 500 OFFCURVE",
"844 500 CURVE",
"75 500 LINE"
);
}
);
visible = 1;
width = 1044;
}
);
unicode = 0064;
},
{
color = 5;
glyphname = eth;
lastChange = "2019-01-15 14:48:07 +0000";
layers = (
{
layerId = "ADA7F6FF-5955-4EF3-8FA7-BADC10F8EE4C";
paths = (
{
closed = 1;
nodes = (
"231 205 LINE",
"531 205 LINE SMOOTH",
"555.853 205 OFFCURVE",
"576 225.147 OFFCURVE",
"576 250 CURVE SMOOTH",
"576 274.853 OFFCURVE",
"555.853 295 OFFCURVE",
"531 295 CURVE SMOOTH",
"231 295 LINE",
"231 455 LINE",
"825 455 LINE SMOOTH",
"874.265 455 OFFCURVE",
"905 424.265 OFFCURVE",
"905 375 CURVE SMOOTH",
"905 125 LINE SMOOTH",
"905 75.587 OFFCURVE",
"874.103 45 OFFCURVE",
"824 45 CURVE SMOOTH",
"231 45 LINE"
);
},
{
closed = 1;
nodes = (
"161 545 OFFCURVE",
"141 525 OFFCURVE",
"141 500 CURVE SMOOTH",
"141 295 LINE",
"50 295 LINE SMOOTH",
"25 295 OFFCURVE",
"5 275 OFFCURVE",
"5 250 CURVE SMOOTH",
"5 225 OFFCURVE",
"25 205 OFFCURVE",
"50 205 CURVE SMOOTH",
"141 205 LINE",
"141 0 LINE SMOOTH",
"141 -25 OFFCURVE",
"161 -45 OFFCURVE",
"186 -45 CURVE SMOOTH",
"824 -45 LINE SMOOTH",
"924 -45 OFFCURVE",
"995 26 OFFCURVE",
"995 125 CURVE SMOOTH",
"995 375 LINE SMOOTH",
"995 474 OFFCURVE",
"924 545 OFFCURVE",
"825 545 CURVE SMOOTH",
"186 545 LINE SMOOTH"
);
}
);
width = 1050;
},
{
associatedMasterId = "ADA7F6FF-5955-4EF3-8FA7-BADC10F8EE4C";
layerId = "A2FD9BF8-4F41-493D-BCC5-BBBF2F9DDAA8";
name = path;
paths = (
{
closed = 1;
nodes = (
"186 0 LINE",
"824 0 LINE",
"894 0 OFFCURVE",
"950 46 OFFCURVE",
"950 125 CURVE",
"950 375 LINE",
"950 453 OFFCURVE",
"895 500 OFFCURVE",
"825 500 CURVE",
"186 500 LINE"
);
},
{
closed = 0;
nodes = (
"531 250 LINE",
"50 250 LINE"
);
}
);
visible = 1;
width = 1050;
}
);
unicode = 00F0;
},
{
color = 5;
glyphname = e;
lastChange = "2019-01-15 14:42:12 +0000";
layers = (
{
layerId = "ADA7F6FF-5955-4EF3-8FA7-BADC10F8EE4C";
paths = (
{
closed = 1;
nodes = (
"975 -45 LINE SMOOTH",
"1000 -45 OFFCURVE",
"1020 -25 OFFCURVE",
"1020 0 CURVE SMOOTH",
"1020 25 OFFCURVE",
"1000 45 OFFCURVE",
"975 45 CURVE SMOOTH",
"120 45 LINE",
"120 205 LINE",
"975 205 LINE SMOOTH",
"1000 205 OFFCURVE",
"1020 225 OFFCURVE",
"1020 250 CURVE SMOOTH",
"1020 275 OFFCURVE",
"1000 295 OFFCURVE",
"975 295 CURVE SMOOTH",
"120 295 LINE",
"120 455 LINE",
"975 455 LINE SMOOTH",
"1000 455 OFFCURVE",
"1020 475 OFFCURVE",
"1020 500 CURVE SMOOTH",
"1020 525 OFFCURVE",
"1000 545 OFFCURVE",
"975 545 CURVE SMOOTH",
"75 545 LINE SMOOTH",
"50 545 OFFCURVE",
"30 525 OFFCURVE",
"30 500 CURVE SMOOTH",
"30 0 LINE SMOOTH",
"30 -25 OFFCURVE",
"50 -45 OFFCURVE",
"75 -45 CURVE SMOOTH"
);
}
);
width = 1050;
},
{
associatedMasterId = "ADA7F6FF-5955-4EF3-8FA7-BADC10F8EE4C";
layerId = "1E5F3C70-7FC3-4D48-B8F5-25B7FBF7962D";
name = path;
paths = (
{
closed = 0;
nodes = (
"975 500 LINE",
"75 500 LINE",
"75 0 LINE",
"975 0 LINE"
);
},
{
closed = 0;
nodes = (
"75 250 LINE",
"975 250 LINE"
);
}
);
visible = 1;
width = 1050;
}
);
unicode = 0065;
},
{
color = 5;
glyphname = f;
lastChange = "2019-01-14 19:02:58 +0000";
layers = (
{
layerId = "ADA7F6FF-5955-4EF3-8FA7-BADC10F8EE4C";
paths = (
{
closed = 1;
nodes = (
"50 545 OFFCURVE",
"30 525 OFFCURVE",
"30 500 CURVE SMOOTH",
"30 0 LINE SMOOTH",
"30 -25 OFFCURVE",
"50 -45 OFFCURVE",
"75 -45 CURVE SMOOTH",
"100 -45 OFFCURVE",
"120 -25 OFFCURVE",
"120 0 CURVE SMOOTH",
"120 205 LINE",
"975 205 LINE SMOOTH",
"1000 205 OFFCURVE",
"1020 225 OFFCURVE",
"1020 250 CURVE SMOOTH",
"1020 275 OFFCURVE",
"1000 295 OFFCURVE",
"975 295 CURVE SMOOTH",
"120 295 LINE",
"120 455 LINE",
"975 455 LINE SMOOTH",
"1000 455 OFFCURVE",
"1020 475 OFFCURVE",
"1020 500 CURVE SMOOTH",
"1020 525 OFFCURVE",
"1000 545 OFFCURVE",
"975 545 CURVE SMOOTH",
"75 545 LINE SMOOTH"
);
}
);
width = 1050;
},
{
associatedMasterId = "ADA7F6FF-5955-4EF3-8FA7-BADC10F8EE4C";
layerId = "BA1CBADF-8E27-401D-B82F-B84E06EDAD8D";
name = path;
paths = (
{
closed = 0;
nodes = (
"75 0 LINE",
"75 500 LINE",
"975 500 LINE"
);
},
{
closed = 0;
nodes = (
"75 250 LINE",
"975 250 LINE"
);
}
);
visible = 1;
width = 1050;
},
{
associatedMasterId = "ADA7F6FF-5955-4EF3-8FA7-BADC10F8EE4C";
layerId = "ED5AC9CD-C417-46E3-BBC1-274490E6A818";
name = path;
paths = (
{
closed = 0;
nodes = (
"75 0 LINE",
"75 500 LINE",
"975 500 LINE"
);
},
{
closed = 0;
nodes = (
"75 250 LINE",
"975 250 LINE"
);
}
);
width = 1050;
}
);
unicode = 0066;
},
{
color = 5;
glyphname = g;
lastChange = "2019-01-14 19:02:58 +0000";
layers = (
{
layerId = "ADA7F6FF-5955-4EF3-8FA7-BADC10F8EE4C";
paths = (
{
closed = 1;
nodes = (
"50 545 OFFCURVE",
"30 525 OFFCURVE",
"30 500 CURVE SMOOTH",
"30 0 LINE SMOOTH",
"30 -25 OFFCURVE",
"50 -45 OFFCURVE",
"75 -45 CURVE SMOOTH",
"975 -45 LINE SMOOTH",
"1000 -45 OFFCURVE",
"1020 -25 OFFCURVE",
"1020 0 CURVE SMOOTH",
"1020 250 LINE SMOOTH",
"1020 275 OFFCURVE",
"1000 295 OFFCURVE",
"975 295 CURVE SMOOTH",
"300 295 LINE SMOOTH",
"275 295 OFFCURVE",
"255 275 OFFCURVE",
"255 250 CURVE SMOOTH",
"255 225 OFFCURVE",
"275 205 OFFCURVE",
"300 205 CURVE SMOOTH",
"930 205 LINE",
"930 45 LINE",
"120 45 LINE",
"120 455 LINE",
"975 455 LINE SMOOTH",
"1000 455 OFFCURVE",
"1020 475 OFFCURVE",
"1020 500 CURVE SMOOTH",
"1020 525 OFFCURVE",
"1000 545 OFFCURVE",
"975 545 CURVE SMOOTH",
"75 545 LINE SMOOTH"
);
}
);
width = 1050;
},
{
associatedMasterId = "ADA7F6FF-5955-4EF3-8FA7-BADC10F8EE4C";
layerId = "AF99504B-0B1E-485A-9723-4F08E399AE78";
name = path;
paths = (
{
closed = 0;
nodes = (
"975 500 LINE",
"79 500 LINE",
"79 0 LINE",
"975 0 LINE",
"975 250 LINE",
"300 250 LINE"
);
}
);
visible = 1;
width = 1050;
},
{
associatedMasterId = "ADA7F6FF-5955-4EF3-8FA7-BADC10F8EE4C";
layerId = "140C19BC-509C-48FC-AC3D-D8693893095D";
name = path;
paths = (
{
closed = 0;
nodes = (
"975 500 LINE",
"79 500 LINE",
"79 0 LINE",
"975 0 LINE",
"975 250 LINE",
"300 250 LINE"
);
}
);
width = 1050;
}
);
unicode = 0067;
},
{
color = 5;
glyphname = h;
lastChange = "2019-01-14 19:02:58 +0000";
layers = (
{
layerId = "ADA7F6FF-5955-4EF3-8FA7-BADC10F8EE4C";
paths = (
{
closed = 1;
nodes = (
"100 -45 OFFCURVE",
"120 -25 OFFCURVE",
"120 0 CURVE SMOOTH",
"120 205 LINE",
"930 205 LINE",
"930 0 LINE SMOOTH",
"930 -25 OFFCURVE",
"950 -45 OFFCURVE",
"975 -45 CURVE SMOOTH",
"1000 -45 OFFCURVE",
"1020 -25 OFFCURVE",
"1020 0 CURVE SMOOTH",
"1020 500 LINE SMOOTH",
"1020 525 OFFCURVE",
"1000 545 OFFCURVE",
"975 545 CURVE SMOOTH",
"950 545 OFFCURVE",
"930 525 OFFCURVE",
"930 500 CURVE SMOOTH",
"930 295 LINE",
"120 295 LINE",
"120 500 LINE SMOOTH",
"120 525 OFFCURVE",
"100 545 OFFCURVE",
"75 545 CURVE SMOOTH",
"50 545 OFFCURVE",
"30 525 OFFCURVE",
"30 500 CURVE SMOOTH",
"30 0 LINE SMOOTH",
"30 -25 OFFCURVE",
"50 -45 OFFCURVE",
"75 -45 CURVE SMOOTH"
);
}
);
width = 1050;
},
{
associatedMasterId = "ADA7F6FF-5955-4EF3-8FA7-BADC10F8EE4C";
layerId = "3CC7B8B1-C97A-459E-B2D0-D2FE64EC3E0B";
name = path;
paths = (
{
closed = 0;
nodes = (
"75 500 LINE",
"75 0 LINE"
);
},
{
closed = 0;
nodes = (
"974 500 LINE",
"974 0 LINE"
);
},
{
closed = 0;
nodes = (
"76 249 LINE",
"975 250 LINE"
);
}
);
visible = 1;
width = 1050;
},
{
associatedMasterId = "ADA7F6FF-5955-4EF3-8FA7-BADC10F8EE4C";
layerId = "935132C7-DDC4-409E-873E-2A134C2E5E0B";
name = path;
paths = (
{
closed = 0;
nodes = (
"75 500 LINE",
"75 0 LINE"
);
},
{
closed = 0;
nodes = (
"974 500 LINE",
"974 0 LINE"
);
},
{
closed = 0;
nodes = (
"76 249 LINE",
"975 250 LINE"
);
}
);
width = 1050;
}
);
unicode = 0068;
},
{
color = 5;
glyphname = i;
lastChange = "2019-01-14 19:02:58 +0000";
layers = (
{
layerId = "ADA7F6FF-5955-4EF3-8FA7-BADC10F8EE4C";
paths = (
{
closed = 1;
nodes = (
"975 -45 LINE SMOOTH",
"1000 -45 OFFCURVE",
"1020 -25 OFFCURVE",
"1020 0 CURVE SMOOTH",
"1020 25 OFFCURVE",
"1000 45 OFFCURVE",
"975 45 CURVE SMOOTH",
"570 45 LINE",
"570 455 LINE",
"975 455 LINE SMOOTH",
"1000 455 OFFCURVE",
"1020 475 OFFCURVE",
"1020 500 CURVE SMOOTH",
"1020 525 OFFCURVE",
"1000 545 OFFCURVE",
"975 545 CURVE SMOOTH",
"75 545 LINE SMOOTH",
"50 545 OFFCURVE",
"30 525 OFFCURVE",
"30 500 CURVE SMOOTH",
"30 475 OFFCURVE",
"50 455 OFFCURVE",
"75 455 CURVE SMOOTH",
"480 455 LINE",
"480 45 LINE",
"75 45 LINE SMOOTH",
"50 45 OFFCURVE",
"30 25 OFFCURVE",
"30 0 CURVE SMOOTH",
"30 -25 OFFCURVE",
"50 -45 OFFCURVE",
"75 -45 CURVE SMOOTH"
);
}
);
width = 1050;
},
{
associatedMasterId = "ADA7F6FF-5955-4EF3-8FA7-BADC10F8EE4C";
layerId = "6556CCB6-1655-4E74-BE05-FBA182DEF0FD";
name = path;
paths = (
{
closed = 0;
nodes = (
"75 500 LINE",
"975 500 LINE"
);
},
{
closed = 0;
nodes = (
"526 500 LINE",
"526 0 LINE"
);
},
{
closed = 0;
nodes = (
"75 0 LINE",
"975 0 LINE"
);
}
);
visible = 1;
width = 1050;
},
{
associatedMasterId = "ADA7F6FF-5955-4EF3-8FA7-BADC10F8EE4C";
layerId = "63D39C33-BF7F-4F52-89D8-30DE828A58AB";
name = path;
paths = (
{
closed = 0;
nodes = (
"75 500 LINE",
"975 500 LINE"
);
},
{
closed = 0;
nodes = (
"526 500 LINE",
"526 0 LINE"
);
},
{
closed = 0;
nodes = (
"75 0 LINE",
"975 0 LINE"
);
}
);
width = 1050;
}
);
unicode = 0069;
},
{
color = 5;
glyphname = idotless;
lastChange = "2019-01-14 19:02:58 +0000";
layers = (
{
layerId = "ADA7F6FF-5955-4EF3-8FA7-BADC10F8EE4C";
paths = (
{
closed = 1;
nodes = (
"975 -45 LINE SMOOTH",
"1000 -45 OFFCURVE",
"1020 -25 OFFCURVE",
"1020 0 CURVE SMOOTH",
"1020 25 OFFCURVE",
"1000 45 OFFCURVE",
"975 45 CURVE SMOOTH",
"570 45 LINE",
"570 455 LINE",
"975 455 LINE SMOOTH",
"1000 455 OFFCURVE",
"1020 475 OFFCURVE",
"1020 500 CURVE SMOOTH",
"1020 525 OFFCURVE",
"1000 545 OFFCURVE",
"975 545 CURVE SMOOTH",
"75 545 LINE SMOOTH",
"50 545 OFFCURVE",
"30 525 OFFCURVE",
"30 500 CURVE SMOOTH",
"30 475 OFFCURVE",
"50 455 OFFCURVE",
"75 455 CURVE SMOOTH",
"480 455 LINE",
"480 45 LINE",
"75 45 LINE SMOOTH",
"50 45 OFFCURVE",
"30 25 OFFCURVE",
"30 0 CURVE SMOOTH",
"30 -25 OFFCURVE",
"50 -45 OFFCURVE",
"75 -45 CURVE SMOOTH"
);
}
);
width = 1050;
},
{
associatedMasterId = "ADA7F6FF-5955-4EF3-8FA7-BADC10F8EE4C";
layerId = "9E4F5F67-466E-476D-B0F9-F315D3E5E72D";
name = path;
paths = (
{
closed = 0;
nodes = (
"75 500 LINE",
"975 500 LINE"
);
},
{
closed = 0;
nodes = (
"526 500 LINE",
"526 0 LINE"
);
},
{
closed = 0;
nodes = (
"75 0 LINE",
"975 0 LINE"
);
}
);
visible = 1;
width = 1050;
},
{
associatedMasterId = "ADA7F6FF-5955-4EF3-8FA7-BADC10F8EE4C";
layerId = "DA2881FF-0AC3-4C94-963E-EAEA03BA9AD2";
name = path;
paths = (
{
closed = 0;
nodes = (
"75 500 LINE",
"975 500 LINE"
);
},
{
closed = 0;
nodes = (
"526 500 LINE",
"526 0 LINE"
);
},
{
closed = 0;
nodes = (
"75 0 LINE",
"975 0 LINE"
);
}
);
width = 1050;
}
);
unicode = 0131;
},
{
color = 5;
glyphname = j;
lastChange = "2019-01-14 19:02:58 +0000";
layers = (
{
layerId = "ADA7F6FF-5955-4EF3-8FA7-BADC10F8EE4C";
paths = (
{
closed = 1;
nodes = (
"30 -25 OFFCURVE",
"50 -45 OFFCURVE",
"75 -45 CURVE SMOOTH",
"975 -45 LINE SMOOTH",
"1000 -45 OFFCURVE",
"1020 -25 OFFCURVE",
"1020 0 CURVE SMOOTH",
"1020 500 LINE SMOOTH",
"1020 525 OFFCURVE",
"1000 545 OFFCURVE",
"975 545 CURVE SMOOTH",
"75 545 LINE SMOOTH",
"50 545 OFFCURVE",
"30 525 OFFCURVE",
"30 500 CURVE SMOOTH",
"30 475 OFFCURVE",
"50 455 OFFCURVE",
"75 455 CURVE SMOOTH",
"930 455 LINE",
"930 45 LINE",
"120 45 LINE",
"120 250 LINE SMOOTH",
"120 275 OFFCURVE",
"100 295 OFFCURVE",
"75 295 CURVE SMOOTH",
"50 295 OFFCURVE",
"30 275 OFFCURVE",
"30 250 CURVE SMOOTH",
"30 0 LINE SMOOTH"
);
}
);
width = 1050;
},
{
associatedMasterId = "ADA7F6FF-5955-4EF3-8FA7-BADC10F8EE4C";
layerId = "0CD48069-EA97-431B-90EA-BA4C3F71CDAC";
name = path;
paths = (
{
closed = 0;
nodes = (
"75 500 LINE",
"975 500 LINE",
"975 0 LINE",
"75 0 LINE",
"74 250 LINE"
);
}
);
visible = 1;
width = 1050;
},
{
associatedMasterId = "ADA7F6FF-5955-4EF3-8FA7-BADC10F8EE4C";
layerId = "F11B1E9A-EA97-446D-8B66-B26FD0393920";
name = path;
paths = (
{
closed = 0;
nodes = (
"75 500 LINE",
"975 500 LINE",
"975 0 LINE",
"75 0 LINE",
"74 250 LINE"
);
}
);
width = 1050;
}
);
unicode = 006A;
},
{
color = 5;
glyphname = jdotless;
lastChange = "2019-01-14 19:02:58 +0000";
layers = (
{
layerId = "ADA7F6FF-5955-4EF3-8FA7-BADC10F8EE4C";
paths = (
{
closed = 1;
nodes = (
"30 -25 OFFCURVE",
"50 -45 OFFCURVE",
"75 -45 CURVE SMOOTH",
"975 -45 LINE SMOOTH",
"1000 -45 OFFCURVE",
"1020 -25 OFFCURVE",
"1020 0 CURVE SMOOTH",
"1020 500 LINE SMOOTH",
"1020 525 OFFCURVE",
"1000 545 OFFCURVE",
"975 545 CURVE SMOOTH",
"75 545 LINE SMOOTH",
"50 545 OFFCURVE",
"30 525 OFFCURVE",
"30 500 CURVE SMOOTH",
"30 475 OFFCURVE",
"50 455 OFFCURVE",
"75 455 CURVE SMOOTH",
"930 455 LINE",
"930 45 LINE",
"120 45 LINE",
"120 250 LINE SMOOTH",
"120 275 OFFCURVE",
"100 295 OFFCURVE",
"75 295 CURVE SMOOTH",
"50 295 OFFCURVE",
"30 275 OFFCURVE",
"30 250 CURVE SMOOTH",
"30 0 LINE SMOOTH"
);
}
);
width = 1050;
},
{
associatedMasterId = "ADA7F6FF-5955-4EF3-8FA7-BADC10F8EE4C";
layerId = "F53351EB-5653-4C4E-8356-F609C56ED903";
name = path;
paths = (
{
closed = 1;
nodes = (
"30 -25 OFFCURVE",
"50 -45 OFFCURVE",
"75 -45 CURVE SMOOTH",
"975 -45 LINE SMOOTH",
"1000 -45 OFFCURVE",
"1020 -25 OFFCURVE",
"1020 0 CURVE SMOOTH",
"1020 500 LINE SMOOTH",
"1020 525 OFFCURVE",
"1000 545 OFFCURVE",
"975 545 CURVE SMOOTH",
"75 545 LINE SMOOTH",
"50 545 OFFCURVE",
"30 525 OFFCURVE",
"30 500 CURVE SMOOTH",
"30 475 OFFCURVE",
"50 455 OFFCURVE",
"75 455 CURVE SMOOTH",
"930 455 LINE",
"930 45 LINE",
"120 45 LINE",
"120 250 LINE SMOOTH",
"120 275 OFFCURVE",
"100 295 OFFCURVE",
"75 295 CURVE SMOOTH",
"50 295 OFFCURVE",
"30 275 OFFCURVE",
"30 250 CURVE SMOOTH",
"30 0 LINE SMOOTH"
);
},
{
closed = 0;
nodes = (
"75 500 LINE",
"975 500 LINE",
"975 0 LINE",
"75 0 LINE",
"74 250 LINE"
);
}
);
visible = 1;
width = 1050;
},
{
associatedMasterId = "ADA7F6FF-5955-4EF3-8FA7-BADC10F8EE4C";
layerId = "02EF2712-0C93-4152-9220-6250D4633DE2";
name = path;
paths = (
{
closed = 1;
nodes = (
"30 -25 OFFCURVE",
"50 -45 OFFCURVE",
"75 -45 CURVE SMOOTH",
"975 -45 LINE SMOOTH",
"1000 -45 OFFCURVE",
"1020 -25 OFFCURVE",
"1020 0 CURVE SMOOTH",
"1020 500 LINE SMOOTH",
"1020 525 OFFCURVE",
"1000 545 OFFCURVE",
"975 545 CURVE SMOOTH",
"75 545 LINE SMOOTH",
"50 545 OFFCURVE",
"30 525 OFFCURVE",
"30 500 CURVE SMOOTH",
"30 475 OFFCURVE",
"50 455 OFFCURVE",
"75 455 CURVE SMOOTH",
"930 455 LINE",
"930 45 LINE",
"120 45 LINE",
"120 250 LINE SMOOTH",
"120 275 OFFCURVE",
"100 295 OFFCURVE",
"75 295 CURVE SMOOTH",
"50 295 OFFCURVE",
"30 275 OFFCURVE",
"30 250 CURVE SMOOTH",
"30 0 LINE SMOOTH"
);
},
{
closed = 0;
nodes = (
"75 500 LINE",
"975 500 LINE",
"975 0 LINE",
"75 0 LINE",
"74 250 LINE"
);
}
);
width = 1050;
}
);
unicode = 0237;
},
{
color = 5;
glyphname = k;
lastChange = "2019-01-16 14:52:24 +0000";
layers = (
{
layerId = "ADA7F6FF-5955-4EF3-8FA7-BADC10F8EE4C";
paths = (
{
closed = 1;
nodes = (
"100 -45 OFFCURVE",
"120 -25 OFFCURVE",
"120 0 CURVE SMOOTH",
"120 168 LINE",
"281 221 LINE",
"958 -42 LINE SMOOTH",
"963 -44 OFFCURVE",
"969 -45 OFFCURVE",
"975 -45 CURVE SMOOTH",
"1000 -45 OFFCURVE",
"1020 -25 OFFCURVE",
"1020 0 CURVE SMOOTH",
"1020 19 OFFCURVE",
"1008 36 OFFCURVE",
"990 42 CURVE SMOOTH",
"415 266 LINE",
"988 457 LINE SMOOTH",
"1007 463 OFFCURVE",
"1020 480 OFFCURVE",
"1020 500 CURVE SMOOTH",
"1020 525 OFFCURVE",
"1000 545 OFFCURVE",
"975 545 CURVE SMOOTH",
"970 545 OFFCURVE",
"965 544 OFFCURVE",
"960 542 CURVE SMOOTH",
"120 262 LINE",
"120 500 LINE SMOOTH",
"120 525 OFFCURVE",
"100 545 OFFCURVE",
"75 545 CURVE SMOOTH",
"50 545 OFFCURVE",
"30 525 OFFCURVE",
"30 500 CURVE SMOOTH",
"30 0 LINE SMOOTH",
"30 -25 OFFCURVE",
"50 -45 OFFCURVE",
"75 -45 CURVE SMOOTH"
);
}
);
width = 1050;
},
{
associatedMasterId = "ADA7F6FF-5955-4EF3-8FA7-BADC10F8EE4C";
layerId = "317B7D57-4450-4791-BE7A-757B299E23C8";
name = path;
paths = (
{
closed = 0;
nodes = (
"75 200 LINE",
"975 500 LINE"
);
},
{
closed = 0;
nodes = (
"75 0 LINE",
"75 500 LINE"
);
},
{
closed = 0;
nodes = (
"975 0 LINE",
"283 269 LINE"
);
}
);
visible = 1;
width = 1050;
}
);
unicode = 006B;
},
{
color = 5;
glyphname = l;
lastChange = "2019-01-14 19:02:58 +0000";
layers = (
{
layerId = "ADA7F6FF-5955-4EF3-8FA7-BADC10F8EE4C";
paths = (
{
closed = 1;
nodes = (
"30 -25 OFFCURVE",
"50 -45 OFFCURVE",
"75 -45 CURVE SMOOTH",
"975 -45 LINE SMOOTH",
"1000 -45 OFFCURVE",
"1020 -25 OFFCURVE",
"1020 0 CURVE SMOOTH",
"1020 25 OFFCURVE",
"1000 45 OFFCURVE",
"975 45 CURVE SMOOTH",
"120 45 LINE",
"120 500 LINE SMOOTH",
"120 525 OFFCURVE",
"100 545 OFFCURVE",
"75 545 CURVE SMOOTH",
"50 545 OFFCURVE",
"30 525 OFFCURVE",
"30 500 CURVE SMOOTH",
"30 0 LINE SMOOTH"
);
}
);
width = 1050;
},
{
associatedMasterId = "ADA7F6FF-5955-4EF3-8FA7-BADC10F8EE4C";
layerId = "637A9D81-2C54-47A2-AE6D-C14DAF8440CF";
name = path;
paths = (
{
closed = 0;
nodes = (
"75 500 LINE",
"75 0 LINE",
"975 0 LINE"
);
}
);
visible = 1;
width = 1050;
},
{
associatedMasterId = "ADA7F6FF-5955-4EF3-8FA7-BADC10F8EE4C";
layerId = "942E88DD-3A11-47D0-B0E3-0A3E4C22BC4F";
name = path;
paths = (
{
closed = 0;
nodes = (
"75 500 LINE",
"75 0 LINE",
"975 0 LINE"
);
}
);
width = 1050;
}
);
unicode = 006C;
},
{
color = 5;
glyphname = m;
lastChange = "2019-01-16 14:46:22 +0000";
layers = (
{
layerId = "ADA7F6FF-5955-4EF3-8FA7-BADC10F8EE4C";
paths = (
{
closed = 1;
nodes = (
"30 500 LINE SMOOTH",
"30 525 OFFCURVE",
"50 545 OFFCURVE",
"75 545 CURVE SMOOTH",
"88 545 OFFCURVE",
"101 539 OFFCURVE",
"109 530 CURVE SMOOTH",
"525 67 LINE",
"941 530 LINE SMOOTH",
"949 539 OFFCURVE",
"962 545 OFFCURVE",
"975 545 CURVE SMOOTH",
"1000 545 OFFCURVE",
"1020 525 OFFCURVE",
"1020 500 CURVE SMOOTH",
"1020 0 LINE SMOOTH",
"1020 -25 OFFCURVE",
"1000 -45 OFFCURVE",
"975 -45 CURVE SMOOTH",
"950 -45 OFFCURVE",
"930 -25 OFFCURVE",
"930 0 CURVE SMOOTH",
"930 383 LINE",
"559 -30 LINE",
"550 -39 OFFCURVE",
"538 -45 OFFCURVE",
"525 -45 CURVE SMOOTH",
"512 -45 OFFCURVE",
"499 -39 OFFCURVE",
"491 -30 CURVE SMOOTH",
"120 383 LINE",
"120 0 LINE SMOOTH",
"120 -25 OFFCURVE",
"100 -45 OFFCURVE",
"75 -45 CURVE SMOOTH",
"50 -45 OFFCURVE",
"30 -25 OFFCURVE",
"30 0 CURVE SMOOTH"
);
}
);
width = 1050;
},
{
associatedMasterId = "ADA7F6FF-5955-4EF3-8FA7-BADC10F8EE4C";
layerId = "E9CD9745-830B-4D8F-8EEC-047829840350";
name = path;
paths = (
{
closed = 0;
nodes = (
"75 0 LINE",
"75 500 LINE",
"525 0 LINE",
"975 500 LINE",
"975 0 LINE"
);
}
);
visible = 1;
width = 1050;
}
);
unicode = 006D;
},
{
color = 5;
glyphname = n;
lastChange = "2019-01-16 14:30:19 +0000";
layers = (
{
layerId = "ADA7F6FF-5955-4EF3-8FA7-BADC10F8EE4C";
paths = (
{
closed = 1;
nodes = (
"30 -25 OFFCURVE",
"50 -45 OFFCURVE",
"75 -45 CURVE SMOOTH",
"100 -45 OFFCURVE",
"120 -25 OFFCURVE",
"120 0 CURVE SMOOTH",
"120 423 LINE",
"952 -39 LINE SMOOTH",
"959 -43 OFFCURVE",
"967 -45 OFFCURVE",
"975 -45 CURVE SMOOTH",
"1000 -45 OFFCURVE",
"1020 -25 OFFCURVE",
"1020 0 CURVE SMOOTH",
"1020 500 LINE SMOOTH",
"1020 525 OFFCURVE",
"1000 545 OFFCURVE",
"975 545 CURVE SMOOTH",
"950 545 OFFCURVE",
"930 525 OFFCURVE",
"930 500 CURVE SMOOTH",
"930 77 LINE",
"98 539 LINE SMOOTH",
"91 543 OFFCURVE",
"83 545 OFFCURVE",
"75 545 CURVE SMOOTH",
"50 545 OFFCURVE",
"30 525 OFFCURVE",
"30 500 CURVE SMOOTH",
"30 0 LINE SMOOTH"
);
}
);
width = 1050;
},
{
associatedMasterId = "ADA7F6FF-5955-4EF3-8FA7-BADC10F8EE4C";
layerId = "5F73D92C-F725-4790-99E6-F9125000BA04";
name = path;
paths = (
{
closed = 0;
nodes = (
"75 0 LINE",
"75 500 LINE",
"975 0 LINE",
"975 500 LINE"
);
}
);
visible = 1;
width = 1050;
}
);
unicode = 006E;
},
{
color = 5;
glyphname = o;
lastChange = "2019-01-16 14:30:32 +0000";
layers = (
{
layerId = "ADA7F6FF-5955-4EF3-8FA7-BADC10F8EE4C";
paths = (
{
closed = 1;
nodes = (
"120 455 LINE",
"930 455 LINE",
"930 45 LINE",
"120 45 LINE"
);
},
{
closed = 1;
nodes = (
"1000 -45 OFFCURVE",
"1020 -25 OFFCURVE",
"1020 0 CURVE SMOOTH",
"1020 500 LINE SMOOTH",
"1020 525 OFFCURVE",
"1000 545 OFFCURVE",
"975 545 CURVE SMOOTH",
"75 545 LINE SMOOTH",
"50 545 OFFCURVE",
"30 525 OFFCURVE",
"30 500 CURVE SMOOTH",
"30 0 LINE SMOOTH",
"30 -25 OFFCURVE",
"50 -45 OFFCURVE",
"75 -45 CURVE SMOOTH",
"975 -45 LINE SMOOTH"
);
}
);
width = 1050;
},
{
associatedMasterId = "ADA7F6FF-5955-4EF3-8FA7-BADC10F8EE4C";
layerId = "B4BC032E-6B95-43AF-A639-205330557AEB";
name = path;
paths = (
{
closed = 1;
nodes = (
"75 0 LINE",
"975 0 LINE",
"975 500 LINE",
"75 500 LINE"
);
}
);
visible = 1;
width = 1050;
}
);
unicode = 006F;
},
{
color = 3;
glyphname = oslash;
lastChange = "2019-01-16 14:38:03 +0000";
layers = (
{
layerId = "ADA7F6FF-5955-4EF3-8FA7-BADC10F8EE4C";
paths = (
{
closed = 1;
nodes = (
"-95 -65 OFFCURVE",
"-75 -85 OFFCURVE",
"-50 -85 CURVE SMOOTH",
"-42 -85 OFFCURVE",
"-35 -83 OFFCURVE",
"-29 -80 CURVE SMOOTH",
"52.06 -38.794 LINE",
"58.763 -42.742 OFFCURVE",
"66.599 -45 OFFCURVE",
"75 -45 CURVE SMOOTH",
"975 -45 LINE SMOOTH",
"1000 -45 OFFCURVE",
"1020 -25 OFFCURVE",
"1020 0 CURVE SMOOTH",
"1020 453.249 LINE",
"1110 499 LINE SMOOTH",
"1125 507 OFFCURVE",
"1135 522 OFFCURVE",
"1135 540 CURVE SMOOTH",
"1135 565 OFFCURVE",
"1115 585 OFFCURVE",
"1090 585 CURVE SMOOTH",
"1082 585 OFFCURVE",
"1075 583 OFFCURVE",
"1069 580 CURVE SMOOTH",
"992.934 541.333 LINE",
"987.45 543.694 OFFCURVE",
"981.388 545 OFFCURVE",
"975 545 CURVE SMOOTH",
"75 545 LINE SMOOTH",
"50 545 OFFCURVE",
"30 525 OFFCURVE",
"30 500 CURVE SMOOTH",
"30 51.834 LINE",
"-70 1 LINE SMOOTH",
"-85 -7 OFFCURVE",
"-95 -22 OFFCURVE",
"-95 -40 CURVE SMOOTH"
);
},
{
closed = 1;
nodes = (
"120 455 LINE",
"823.102 455 LINE",
"120 97.585 LINE"
);
},
{
closed = 1;
nodes = (
"930 407.499 LINE",
"930 45 LINE",
"216.898 45 LINE"
);
}
);
width = 1050;
},
{
associatedMasterId = "ADA7F6FF-5955-4EF3-8FA7-BADC10F8EE4C";
layerId = "D1B4E26A-B409-46C9-8869-80C35E981593";
name = "Jan 16 19, 15:34";
paths = (
{
closed = 1;
nodes = (
"-42.358 -85 OFFCURVE",
"-35.161 -83.094 OFFCURVE",
"-28.857 -79.733 CURVE SMOOTH",
"1109.592 499.478 LINE SMOOTH",
"1124.63 506.762 OFFCURVE",
"1135 522.169 OFFCURVE",
"1135 540 CURVE SMOOTH",
"1135 564.853 OFFCURVE",
"1114.853 585 OFFCURVE",
"1090 585 CURVE SMOOTH",
"1082.358 585 OFFCURVE",
"1075.161 583.094 OFFCURVE",
"1068.857 579.733 CURVE SMOOTH",
"-69.591 0.523 LINE SMOOTH",
"-84.629 -6.761 OFFCURVE",
"-95 -22.169 OFFCURVE",
"-95 -40 CURVE SMOOTH",
"-95 -64.853 OFFCURVE",
"-74.853 -85 OFFCURVE",
"-50 -85 CURVE SMOOTH"
);
}
);
width = 1050;
},
{
associatedMasterId = "ADA7F6FF-5955-4EF3-8FA7-BADC10F8EE4C";
layerId = "D76E5E82-DBA1-4202-ADF5-CBEDA07AAAFC";
name = "Jan 16 19, 15:37";
paths = (
{
closed = 0;
nodes = (
"-50 -40 LINE",
"1090 540 LINE"
);
}
);
width = 1050;
}
);
unicode = 00F8;
},
{
color = 5;
glyphname = oe;
lastChange = "2019-01-15 14:25:18 +0000";
layers = (
{
layerId = "ADA7F6FF-5955-4EF3-8FA7-BADC10F8EE4C";
paths = (
{
closed = 1;
nodes = (
"480 45 LINE",
"480 455 LINE",
"120 455 LINE",
"120 45 LINE"
);
},
{
closed = 1;
nodes = (
"50 -45 OFFCURVE",
"30 -25 OFFCURVE",
"30 0 CURVE SMOOTH",
"30 500 LINE SMOOTH",
"30 525 OFFCURVE",
"50 545 OFFCURVE",
"75 545 CURVE SMOOTH",
"975 545 LINE SMOOTH",
"1000 545 OFFCURVE",
"1020 525 OFFCURVE",
"1020 500 CURVE SMOOTH",
"1020 475 OFFCURVE",
"1000 455 OFFCURVE",
"975 455 CURVE SMOOTH",
"570 455 LINE",
"570 295 LINE",
"975 295 LINE SMOOTH",
"1000 295 OFFCURVE",
"1020 275 OFFCURVE",
"1020 250 CURVE SMOOTH",
"1020 225 OFFCURVE",
"1000 205 OFFCURVE",
"975 205 CURVE SMOOTH",
"570 205 LINE",
"570 45 LINE",
"975 45 LINE SMOOTH",
"1000 45 OFFCURVE",
"1020 25 OFFCURVE",
"1020 0 CURVE SMOOTH",
"1020 -25 OFFCURVE",
"1000 -45 OFFCURVE",
"975 -45 CURVE SMOOTH",
"75 -45 LINE SMOOTH"
);
}
);
width = 1050;
},
{
associatedMasterId = "ADA7F6FF-5955-4EF3-8FA7-BADC10F8EE4C";
layerId = "B4C0546C-C644-4BFA-AB77-1E59C7B244D9";
name = path;
paths = (
{
closed = 0;
nodes = (
"975 0 LINE",
"525 0 LINE",
"525 500 LINE",
"975 500 LINE"
);
},
{
closed = 0;
nodes = (
"525 250 LINE",
"975 250 LINE"
);
},
{
closed = 0;
nodes = (
"525 500 LINE",
"75 500 LINE",
"75 0 LINE",
"525 0 LINE"
);
}
);
visible = 1;
width = 1050;
}
);
unicode = 0153;
},
{
color = 5;
glyphname = p;
lastChange = "2019-01-16 14:30:43 +0000";
layers = (
{
layerId = "ADA7F6FF-5955-4EF3-8FA7-BADC10F8EE4C";
paths = (
{
closed = 1;
nodes = (
"120 455 LINE",
"930 455 LINE",
"930 295 LINE",
"120 295 LINE"
);
},
{
closed = 1;
nodes = (
"1000 205 OFFCURVE",
"1020 225 OFFCURVE",
"1020 250 CURVE SMOOTH",
"1020 500 LINE SMOOTH",
"1020 525 OFFCURVE",
"1000 545 OFFCURVE",
"975 545 CURVE SMOOTH",
"75 545 LINE SMOOTH",
"50 545 OFFCURVE",
"30 525 OFFCURVE",
"30 500 CURVE SMOOTH",
"30 0 LINE SMOOTH",
"30 -25 OFFCURVE",
"50 -45 OFFCURVE",
"75 -45 CURVE SMOOTH",
"100 -45 OFFCURVE",
"120 -25 OFFCURVE",
"120 0 CURVE SMOOTH",
"120 205 LINE",
"975 205 LINE SMOOTH"
);
}
);
width = 1050;
},
{
associatedMasterId = "ADA7F6FF-5955-4EF3-8FA7-BADC10F8EE4C";
layerId = "4BB6A6DD-9957-4E77-9CA6-F4C09DA3752E";
name = path;
paths = (
{
closed = 0;
nodes = (
"75 250 LINE",
"975 250 LINE",
"975 500 LINE",
"75 500 LINE",
"75 0 LINE"
);
}
);
visible = 1;
width = 1050;
}
);
unicode = 0070;
},
{
color = 5;
glyphname = thorn;
lastChange = "2019-01-16 14:42:08 +0000";
layers = (
{
layerId = "ADA7F6FF-5955-4EF3-8FA7-BADC10F8EE4C";
paths = (
{
closed = 1;
nodes = (
"30 -25 OFFCURVE",
"50 -45 OFFCURVE",
"75 -45 CURVE SMOOTH",
"100 -45 OFFCURVE",
"120 -25 OFFCURVE",
"120 0 CURVE SMOOTH",
"120 55 LINE",
"830 57 LINE SMOOTH",
"930 57 OFFCURVE",
"1000 127 OFFCURVE",
"1000 227 CURVE SMOOTH",
"1000 277 LINE SMOOTH",
"1000 377 OFFCURVE",
"930 447 OFFCURVE",
"830 447 CURVE SMOOTH",
"120 445 LINE",
"120 500 LINE SMOOTH",
"120 525 OFFCURVE",
"100 545 OFFCURVE",
"75 545 CURVE SMOOTH",
"50 545 OFFCURVE",
"30 525 OFFCURVE",
"30 500 CURVE SMOOTH",
"30 0 LINE SMOOTH"
);
},
{
closed = 1;
nodes = (
"120 355 LINE",
"830 357 LINE SMOOTH",
"880 357 OFFCURVE",
"910 327 OFFCURVE",
"910 277 CURVE SMOOTH",
"910 227 LINE SMOOTH",
"910 177 OFFCURVE",
"880 147 OFFCURVE",
"830 147 CURVE SMOOTH",
"120 145 LINE"
);
}
);
width = 1030;
},
{
associatedMasterId = "ADA7F6FF-5955-4EF3-8FA7-BADC10F8EE4C";
layerId = "596E879A-9F24-4541-9D09-189BA8F197F5";
name = path;
paths = (
{
closed = 0;
nodes = (
"75 500 LINE",
"75 0 LINE"
);
},
{
closed = 0;
nodes = (
"75 400 LINE",
"830 402 LINE",
"905 402 OFFCURVE",
"955 347 OFFCURVE",
"955 277 CURVE",
"955 227 LINE",
"955 157 OFFCURVE",
"903 100 OFFCURVE",
"828 100 CURVE SMOOTH",
"75 100 LINE"
);
}
);
visible = 1;
width = 1030;
}
);
unicode = 00FE;
},
{
color = 5;
glyphname = q;
lastChange = "2019-01-16 14:30:49 +0000";
layers = (
{
layerId = "ADA7F6FF-5955-4EF3-8FA7-BADC10F8EE4C";
paths = (
{
closed = 1;
nodes = (
"801 45 LINE",
"120 45 LINE",
"120 455 LINE",
"930 455 LINE",
"930 76 LINE",
"549 288 LINE SMOOTH",
"527 300 OFFCURVE",
"499 294 OFFCURVE",
"487 272 CURVE SMOOTH",
"475 250 OFFCURVE",
"482 222 OFFCURVE",
"504 210 CURVE SMOOTH"
);
},
{
closed = 1;
nodes = (
"30 -25 OFFCURVE",
"50 -45 OFFCURVE",
"75 -45 CURVE SMOOTH",
"975 -45 LINE SMOOTH",
"1000 -45 OFFCURVE",
"1020 -25 OFFCURVE",
"1020 0 CURVE SMOOTH",
"1020 500 LINE SMOOTH",
"1020 525 OFFCURVE",
"1000 545 OFFCURVE",
"975 545 CURVE SMOOTH",
"75 545 LINE SMOOTH",
"50 545 OFFCURVE",
"30 525 OFFCURVE",
"30 500 CURVE SMOOTH",
"30 0 LINE SMOOTH"
);
}
);
width = 1050;
},
{
associatedMasterId = "ADA7F6FF-5955-4EF3-8FA7-BADC10F8EE4C";
layerId = "9870B0FB-9ECF-40D3-9114-57BE9533717F";
name = path;
paths = (
{
closed = 1;
nodes = (
"75 0 LINE",
"975 0 LINE",
"975 500 LINE",
"75 500 LINE"
);
},
{
closed = 0;
nodes = (
"975 0 LINE",
"527 250 LINE"
);
}
);
visible = 1;
width = 1050;
}
);
unicode = 0071;
},
{
color = 5;
glyphname = r;
lastChange = "2019-01-16 14:10:43 +0000";
layers = (
{
layerId = "ADA7F6FF-5955-4EF3-8FA7-BADC10F8EE4C";
paths = (
{
closed = 1;
nodes = (
"75 545 LINE SMOOTH",
"50 545 OFFCURVE",
"30 525 OFFCURVE",
"30 500 CURVE SMOOTH",
"30 0 LINE SMOOTH",
"30 -25 OFFCURVE",
"50 -45 OFFCURVE",
"75 -45 CURVE SMOOTH",
"100 -45 OFFCURVE",
"120 -25 OFFCURVE",
"120 0 CURVE SMOOTH",
"120 205 LINE",
"850 205 LINE SMOOTH",
"900 205 OFFCURVE",
"930 174 OFFCURVE",
"930 124 CURVE SMOOTH",
"930 -1 LINE SMOOTH",
"930 -26 OFFCURVE",
"950 -46 OFFCURVE",
"975 -46 CURVE SMOOTH",
"1000 -46 OFFCURVE",
"1020 -26 OFFCURVE",
"1020 -1 CURVE SMOOTH",
"1020 124 LINE SMOOTH",
"1020 176 OFFCURVE",
"1001 219 OFFCURVE",
"970 250 CURVE",
"1001 280 OFFCURVE",
"1020 324 OFFCURVE",
"1020 375 CURVE SMOOTH",
"1020 500 LINE SMOOTH",
"1020 525 OFFCURVE",
"1000 545 OFFCURVE",
"975 545 CURVE SMOOTH"
);
},
{
closed = 1;
nodes = (
"120 455 LINE",
"930 455 LINE",
"930 375 LINE SMOOTH",
"930 325 OFFCURVE",
"900 295 OFFCURVE",
"850 295 CURVE SMOOTH",
"120 295 LINE"
);
}
);
width = 1050;
},
{
associatedMasterId = "ADA7F6FF-5955-4EF3-8FA7-BADC10F8EE4C";
layerId = "0E016109-FF42-43F5-B089-C4A8E53A39BB";
name = path;
paths = (
{
closed = 0;
nodes = (
"75 0 LINE",
"75 500 LINE",
"975 500 LINE",
"975 375 LINE SMOOTH",
"975 300 OFFCURVE",
"925 250 OFFCURVE",
"850 250 CURVE SMOOTH",
"75 250 LINE"
);
},
{
closed = 0;
nodes = (
"975 -1 LINE",
"975 124 LINE SMOOTH",
"975 199 OFFCURVE",
"925 250 OFFCURVE",
"850 250 CURVE SMOOTH",
"819 250 LINE"
);
}
);
visible = 1;
width = 1050;
}
);
unicode = 0072;
},
{
color = 5;
glyphname = s;
lastChange = "2019-01-16 14:30:55 +0000";
layers = (
{
layerId = "ADA7F6FF-5955-4EF3-8FA7-BADC10F8EE4C";
paths = (
{
closed = 1;
nodes = (
"1020 250 LINE SMOOTH",
"1020 275 OFFCURVE",
"1000 295 OFFCURVE",
"975 295 CURVE SMOOTH",
"120 295 LINE",
"120 455 LINE",
"975 455 LINE SMOOTH",
"1000 455 OFFCURVE",
"1020 475 OFFCURVE",
"1020 500 CURVE SMOOTH",
"1020 525 OFFCURVE",
"1000 545 OFFCURVE",
"975 545 CURVE SMOOTH",
"75 545 LINE SMOOTH",
"50 545 OFFCURVE",
"30 525 OFFCURVE",
"30 500 CURVE SMOOTH",
"30 250 LINE SMOOTH",
"30 225 OFFCURVE",
"50 205 OFFCURVE",
"75 205 CURVE SMOOTH",
"930 205 LINE",
"930 45 LINE",
"75 45 LINE SMOOTH",
"50 45 OFFCURVE",
"30 25 OFFCURVE",
"30 0 CURVE SMOOTH",
"30 -25 OFFCURVE",
"50 -45 OFFCURVE",
"75 -45 CURVE SMOOTH",
"975 -45 LINE SMOOTH",
"1000 -45 OFFCURVE",
"1020 -25 OFFCURVE",
"1020 0 CURVE SMOOTH"
);
}
);
width = 1050;
},
{
associatedMasterId = "ADA7F6FF-5955-4EF3-8FA7-BADC10F8EE4C";
layerId = "8FA1B3EB-39A8-4F87-A70A-049BF7C1F4BC";
name = path;
paths = (
{
closed = 0;
nodes = (
"975 500 LINE",
"75 500 LINE",
"75 250 LINE",
"975 250 LINE",
"975 0 LINE",
"75 0 LINE"
);
}
);
visible = 1;
width = 1050;
}
);
unicode = 0073;
},
{
color = 5;
glyphname = germandbls;
lastChange = "2019-01-16 14:33:04 +0000";
layers = (
{
layerId = "ADA7F6FF-5955-4EF3-8FA7-BADC10F8EE4C";
paths = (
{
closed = 1;
nodes = (
"1020 124 LINE SMOOTH",
"1020 208 OFFCURVE",
"970 272 OFFCURVE",
"895 290 CURVE",
"895 375 LINE SMOOTH",
"895 475 OFFCURVE",
"825 545 OFFCURVE",
"725 545 CURVE SMOOTH",
"75 545 LINE SMOOTH",
"50 545 OFFCURVE",
"30 525 OFFCURVE",
"30 500 CURVE SMOOTH",
"30 0 LINE SMOOTH",
"30 -25 OFFCURVE",
"50 -45 OFFCURVE",
"75 -45 CURVE SMOOTH",
"100 -45 OFFCURVE",
"120 -25 OFFCURVE",
"120 0 CURVE SMOOTH",
"120 455 LINE",
"725 455 LINE SMOOTH",
"775 455 OFFCURVE",
"805 425 OFFCURVE",
"805 375 CURVE SMOOTH",
"805 295 LINE",
"325 295 LINE SMOOTH",
"300 295 OFFCURVE",
"280 275 OFFCURVE",
"280 250 CURVE SMOOTH",
"280 225 OFFCURVE",
"300 205 OFFCURVE",
"325 205 CURVE SMOOTH",
"850 205 LINE SMOOTH",
"900 205 OFFCURVE",
"930 174 OFFCURVE",
"930 124 CURVE SMOOTH",
"930 44 LINE",
"325 45 LINE SMOOTH",
"300 45 OFFCURVE",
"280 25 OFFCURVE",
"280 0 CURVE SMOOTH",
"280 -25 OFFCURVE",
"300 -45 OFFCURVE",
"325 -45 CURVE SMOOTH",
"975 -45 LINE SMOOTH",
"1000 -45 OFFCURVE",
"1020 -25 OFFCURVE",
"1020 0 CURVE SMOOTH"
);
}
);
width = 1050;
},
{
associatedMasterId = "ADA7F6FF-5955-4EF3-8FA7-BADC10F8EE4C";
layerId = "2CCA6678-4A53-4795-863A-C9C950C1C15F";
name = path;
paths = (
{
closed = 0;
nodes = (
"325 250 LINE",
"850 250 LINE",
"925 250 OFFCURVE",
"975 199 OFFCURVE",
"975 124 CURVE",
"975 -1 LINE",
"325 0 LINE"
);
},
{
closed = 0;
nodes = (
"75 0 LINE",
"75 500 LINE",
"725 500 LINE",
"800 500 OFFCURVE",
"850 450 OFFCURVE",
"850 375 CURVE",
"850 250 LINE"
);
}
);
visible = 1;
width = 1050;
}
);
unicode = 00DF;
},
{
color = 5;
glyphname = t;
lastChange = "2019-01-14 19:02:58 +0000";
layers = (
{
layerId = "ADA7F6FF-5955-4EF3-8FA7-BADC10F8EE4C";
paths = (
{
closed = 1;
nodes = (
"550 -45 OFFCURVE",
"570 -25 OFFCURVE",
"570 0 CURVE SMOOTH",
"570 455 LINE",
"975 455 LINE SMOOTH",
"1000 455 OFFCURVE",
"1020 475 OFFCURVE",
"1020 500 CURVE SMOOTH",
"1020 525 OFFCURVE",
"1000 545 OFFCURVE",
"975 545 CURVE SMOOTH",
"75 545 LINE SMOOTH",
"50 545 OFFCURVE",
"30 525 OFFCURVE",
"30 500 CURVE SMOOTH",
"30 475 OFFCURVE",
"50 455 OFFCURVE",
"75 455 CURVE SMOOTH",
"480 455 LINE",
"480 0 LINE SMOOTH",
"480 -25 OFFCURVE",
"500 -45 OFFCURVE",
"525 -45 CURVE SMOOTH"
);
}
);
width = 1050;
},
{
associatedMasterId = "ADA7F6FF-5955-4EF3-8FA7-BADC10F8EE4C";
layerId = "3535D4A7-2C2E-418E-A601-50F9DA832617";
name = path;
paths = (
{
closed = 0;
nodes = (
"75 500 LINE",
"975 500 LINE"
);
},
{
closed = 0;
nodes = (
"525 500 LINE",
"525 0 LINE"
);
}
);
visible = 1;
width = 1050;
},
{
associatedMasterId = "ADA7F6FF-5955-4EF3-8FA7-BADC10F8EE4C";
layerId = "8614A8A5-B88E-4A99-920B-7BEE52CA5751";
name = path;
paths = (
{
closed = 0;
nodes = (
"75 500 LINE",
"975 500 LINE"
);
},
{
closed = 0;
nodes = (
"525 500 LINE",
"525 0 LINE"
);
}
);
width = 1050;
}
);
unicode = 0074;
},
{
color = 5;
glyphname = u;
lastChange = "2019-01-14 19:02:58 +0000";
layers = (
{
layerId = "ADA7F6FF-5955-4EF3-8FA7-BADC10F8EE4C";
paths = (
{
closed = 1;
nodes = (
"1000 -45 OFFCURVE",
"1020 -25 OFFCURVE",
"1020 0 CURVE SMOOTH",
"1020 500 LINE SMOOTH",
"1020 525 OFFCURVE",
"1000 545 OFFCURVE",
"975 545 CURVE SMOOTH",
"950 545 OFFCURVE",
"930 525 OFFCURVE",
"930 500 CURVE SMOOTH",
"930 45 LINE",
"120 45 LINE",
"120 500 LINE SMOOTH",
"120 525 OFFCURVE",
"100 545 OFFCURVE",
"75 545 CURVE SMOOTH",
"50 545 OFFCURVE",
"30 525 OFFCURVE",
"30 500 CURVE SMOOTH",
"30 0 LINE SMOOTH",
"30 -25 OFFCURVE",
"50 -45 OFFCURVE",
"75 -45 CURVE SMOOTH",
"975 -45 LINE SMOOTH"
);
}
);
width = 1050;
},
{
associatedMasterId = "ADA7F6FF-5955-4EF3-8FA7-BADC10F8EE4C";
layerId = "AEDD40DA-DE5D-4FA6-9478-4FBAC0128739";
name = path;
paths = (
{
closed = 0;
nodes = (
"975 500 LINE",
"975 0 LINE",
"75 0 LINE",
"75 500 LINE"
);
}
);
visible = 1;
width = 1050;
},
{
associatedMasterId = "ADA7F6FF-5955-4EF3-8FA7-BADC10F8EE4C";
layerId = "1B9E8ECC-6CA4-442C-A7A8-F18837FE8054";
name = path;
paths = (
{
closed = 0;
nodes = (
"975 500 LINE",
"975 0 LINE",
"75 0 LINE",
"75 500 LINE"
);
}
);
width = 1050;
}
);
unicode = 0075;
},
{
color = 5;
glyphname = v;
lastChange = "2019-01-16 14:07:51 +0000";
layers = (
{
layerId = "ADA7F6FF-5955-4EF3-8FA7-BADC10F8EE4C";
paths = (
{
closed = 1;
nodes = (
"30 488 OFFCURVE",
"34 478 OFFCURVE",
"42 470 CURVE",
"491 -30 LINE",
"495 -34 LINE SMOOTH",
"503 -41 OFFCURVE",
"513 -45 OFFCURVE",
"525 -45 CURVE SMOOTH",
"537 -45 OFFCURVE",
"547 -41 OFFCURVE",
"555 -34 CURVE SMOOTH",
"559 -30 LINE",
"1008 470 LINE",
"1016 478 OFFCURVE",
"1020 488 OFFCURVE",
"1020 500 CURVE SMOOTH",
"1020 525 OFFCURVE",
"1000 545 OFFCURVE",
"975 545 CURVE SMOOTH",
"962 545 OFFCURVE",
"950 539 OFFCURVE",
"941 530 CURVE",
"525 67 LINE",
"109 530 LINE",
"100 539 OFFCURVE",
"88 545 OFFCURVE",
"75 545 CURVE SMOOTH",
"50 545 OFFCURVE",
"30 525 OFFCURVE",
"30 500 CURVE SMOOTH"
);
}
);
width = 1050;
},
{
associatedMasterId = "ADA7F6FF-5955-4EF3-8FA7-BADC10F8EE4C";
layerId = "6270949F-F8D9-4DDC-8584-86501F8C3D88";
name = path;
paths = (
{
closed = 0;
nodes = (
"75 500 LINE",
"525 0 LINE",
"975 500 LINE"
);
}
);
visible = 1;
width = 1050;
}
);
unicode = 0076;
},
{
color = 5;
glyphname = w;
lastChange = "2019-01-16 14:18:01 +0000";
layers = (
{
layerId = "ADA7F6FF-5955-4EF3-8FA7-BADC10F8EE4C";
paths = (
{
closed = 1;
nodes = (
"30 525 OFFCURVE",
"50 545 OFFCURVE",
"75 545 CURVE SMOOTH",
"94 545 OFFCURVE",
"110 533 OFFCURVE",
"117 516 CURVE SMOOTH",
"279 110 LINE",
"484 519 LINE SMOOTH",
"491 534 OFFCURVE",
"507 545 OFFCURVE",
"525 545 CURVE SMOOTH",
"543 545 OFFCURVE",
"558 534 OFFCURVE",
"566 519 CURVE SMOOTH",
"771 110 LINE",
"933 516 LINE SMOOTH",
"940 533 OFFCURVE",
"956 545 OFFCURVE",
"975 545 CURVE SMOOTH",
"1000 545 OFFCURVE",
"1020 525 OFFCURVE",
"1020 500 CURVE SMOOTH",
"1020 494 OFFCURVE",
"1018 488 OFFCURVE",
"1016 482 CURVE",
"817 -16 LINE SMOOTH",
"810 -33 OFFCURVE",
"794 -45 OFFCURVE",
"775 -45 CURVE SMOOTH",
"757 -45 OFFCURVE",
"741 -34 OFFCURVE",
"734 -19 CURVE SMOOTH",
"525 399 LINE",
"316 -19 LINE SMOOTH",
"308 -34 OFFCURVE",
"293 -45 OFFCURVE",
"275 -45 CURVE SMOOTH",
"255 -45 OFFCURVE",
"238 -32 OFFCURVE",
"232 -14 CURVE",
"34 482 LINE",
"32 488 OFFCURVE",
"30 494 OFFCURVE",
"30 500 CURVE SMOOTH"
);
}
);
width = 1050;
},
{
associatedMasterId = "ADA7F6FF-5955-4EF3-8FA7-BADC10F8EE4C";
layerId = "CA329C05-ACA3-43F5-B2F7-2808A7947A38";
name = path;
paths = (
{
closed = 0;
nodes = (
"975 500 LINE",
"775 0 LINE",
"525 500 LINE",
"275 0 LINE",
"75 500 LINE"
);
}
);
visible = 1;
width = 1050;
}
);
unicode = 0077;
},
{
color = 5;
glyphname = x;
lastChange = "2019-01-16 14:09:25 +0000";
layers = (
{
layerId = "ADA7F6FF-5955-4EF3-8FA7-BADC10F8EE4C";
paths = (
{
closed = 1;
nodes = (
"83 -45 OFFCURVE",
"91 -43 OFFCURVE",
"98 -39 CURVE SMOOTH",
"525 199 LINE",
"952 -39 LINE SMOOTH",
"959 -43 OFFCURVE",
"967 -45 OFFCURVE",
"975 -45 CURVE SMOOTH",
"1000 -45 OFFCURVE",
"1020 -25 OFFCURVE",
"1020 0 CURVE SMOOTH",
"1020 17 OFFCURVE",
"1010 32 OFFCURVE",
"996 40 CURVE SMOOTH",
"618 250 LINE",
"996 460 LINE SMOOTH",
"1010 468 OFFCURVE",
"1020 483 OFFCURVE",
"1020 500 CURVE SMOOTH",
"1020 525 OFFCURVE",
"1000 545 OFFCURVE",
"975 545 CURVE SMOOTH",
"967 545 OFFCURVE",
"959 543 OFFCURVE",
"952 539 CURVE SMOOTH",
"525 301 LINE",
"98 539 LINE SMOOTH",
"91 543 OFFCURVE",
"83 545 OFFCURVE",
"75 545 CURVE SMOOTH",
"50 545 OFFCURVE",
"30 525 OFFCURVE",
"30 500 CURVE SMOOTH",
"30 483 OFFCURVE",
"40 468 OFFCURVE",
"54 460 CURVE SMOOTH",
"432 250 LINE",
"54 40 LINE SMOOTH",
"40 32 OFFCURVE",
"30 17 OFFCURVE",
"30 0 CURVE SMOOTH",
"30 -25 OFFCURVE",
"50 -45 OFFCURVE",
"75 -45 CURVE SMOOTH"
);
}
);
width = 1050;
},
{
associatedMasterId = "ADA7F6FF-5955-4EF3-8FA7-BADC10F8EE4C";
layerId = "DA68D4D1-1276-4F92-9EC1-0D365B12073F";
name = path;
paths = (
{
closed = 0;
nodes = (
"75 500 LINE",
"975 0 LINE"
);
},
{
closed = 0;
nodes = (
"975 500 LINE",
"75 0 LINE"
);
}
);
visible = 1;
width = 1050;
}
);
unicode = 0078;
},
{
color = 5;
glyphname = y;
lastChange = "2019-01-16 14:08:39 +0000";
layers = (
{
layerId = "ADA7F6FF-5955-4EF3-8FA7-BADC10F8EE4C";
paths = (
{
closed = 1;
nodes = (
"550 -45 OFFCURVE",
"570 -25 OFFCURVE",
"570 0 CURVE SMOOTH",
"570 80 LINE",
"1005 466 LINE SMOOTH",
"1014 474 OFFCURVE",
"1020 487 OFFCURVE",
"1020 500 CURVE SMOOTH",
"1020 525 OFFCURVE",
"1000 545 OFFCURVE",
"975 545 CURVE SMOOTH",
"963 545 OFFCURVE",
"953 541 OFFCURVE",
"945 534 CURVE SMOOTH",
"525 160 LINE",
"105 534 LINE SMOOTH",
"97 541 OFFCURVE",
"87 545 OFFCURVE",
"75 545 CURVE SMOOTH",
"50 545 OFFCURVE",
"30 525 OFFCURVE",
"30 500 CURVE SMOOTH",
"30 487 OFFCURVE",
"36 474 OFFCURVE",
"45 466 CURVE SMOOTH",
"480 80 LINE",
"480 0 LINE SMOOTH",
"480 -25 OFFCURVE",
"500 -45 OFFCURVE",
"525 -45 CURVE SMOOTH"
);
}
);
width = 1050;
},
{
associatedMasterId = "ADA7F6FF-5955-4EF3-8FA7-BADC10F8EE4C";
layerId = "479A0975-5415-4FF7-B5A5-208B47166D52";
name = path;
paths = (
{
closed = 0;
nodes = (
"75 500 LINE",
"525 100 LINE",
"975 500 LINE"
);
},
{
closed = 0;
nodes = (
"525 100 LINE",
"525 0 LINE"
);
}
);
visible = 1;
width = 1050;
}
);
unicode = 0079;
},
{
color = 5;
glyphname = z;
lastChange = "2019-01-16 14:23:15 +0000";
layers = (
{
layerId = "ADA7F6FF-5955-4EF3-8FA7-BADC10F8EE4C";
paths = (
{
closed = 1;
nodes = (
"30 -25 OFFCURVE",
"50 -45 OFFCURVE",
"75 -45 CURVE SMOOTH",
"975 -45 LINE SMOOTH",
"1000 -45 OFFCURVE",
"1020 -25 OFFCURVE",
"1020 0 CURVE SMOOTH",
"1020 25 OFFCURVE",
"1000 45 OFFCURVE",
"975 45 CURVE SMOOTH",
"249 45 LINE",
"996 460 LINE SMOOTH",
"1010 468 OFFCURVE",
"1020 483 OFFCURVE",
"1020 500 CURVE SMOOTH",
"1020 525 OFFCURVE",
"1000 545 OFFCURVE",
"975 545 CURVE SMOOTH",
"75 545 LINE SMOOTH",
"50 545 OFFCURVE",
"30 525 OFFCURVE",
"30 500 CURVE SMOOTH",
"30 475 OFFCURVE",
"50 455 OFFCURVE",
"75 455 CURVE SMOOTH",
"801 455 LINE",
"54 40 LINE SMOOTH",
"40 32 OFFCURVE",
"30 17 OFFCURVE",
"30 0 CURVE SMOOTH"
);
}
);
width = 1050;
},
{
associatedMasterId = "ADA7F6FF-5955-4EF3-8FA7-BADC10F8EE4C";
layerId = "B37C4D40-93E4-4FAE-8AB1-0C13AA4D182D";
name = path;
paths = (
{
closed = 0;
nodes = (
"975 0 LINE",
"75 0 LINE",
"975 500 LINE",
"75 500 LINE"
);
}
);
visible = 1;
width = 1050;
}
);
unicode = 007A;
},
{
color = 5;
glyphname = a.alt1;
lastChange = "2019-01-15 14:30:26 +0000";
layers = (
{
layerId = "ADA7F6FF-5955-4EF3-8FA7-BADC10F8EE4C";
paths = (
{
closed = 1;
nodes = (
"75 545 LINE SMOOTH",
"50 545 OFFCURVE",
"30 525 OFFCURVE",
"30 500 CURVE SMOOTH",
"30 0 LINE SMOOTH",
"30 -25 OFFCURVE",
"50 -45 OFFCURVE",
"75 -45 CURVE SMOOTH",
"100 -45 OFFCURVE",
"120 -25 OFFCURVE",
"120 0 CURVE SMOOTH",
"120 205 LINE",
"930 205 LINE",
"930 0 LINE SMOOTH",
"930 -25 OFFCURVE",
"950 -45 OFFCURVE",
"975 -45 CURVE SMOOTH",
"1000 -45 OFFCURVE",
"1020 -25 OFFCURVE",
"1020 0 CURVE SMOOTH",
"1020 500 LINE SMOOTH",
"1020 525 OFFCURVE",
"1000 545 OFFCURVE",
"975 545 CURVE SMOOTH"
);
},
{
closed = 1;
nodes = (
"120 455 LINE",
"930 455 LINE",
"930 295 LINE",
"120 295 LINE"
);
},
{
closed = 0;
nodes = (
"75 0 LINE",
"75 500 LINE",
"975 500 LINE",
"975 0 LINE"
);
},
{
closed = 0;
nodes = (
"75 250 LINE",
"975 250 LINE"
);
}
);
width = 1050;
},
{
associatedMasterId = "ADA7F6FF-5955-4EF3-8FA7-BADC10F8EE4C";
layerId = "2326A2AD-EEA1-4569-A6C1-49A3B95F8D99";
name = path;
paths = (
{
closed = 0;
nodes = (
"75 0 LINE",
"75 500 LINE",
"975 500 LINE",
"975 0 LINE"
);
},
{
closed = 0;
nodes = (
"75 250 LINE",
"975 250 LINE"
);
}
);
width = 1050;
}
);
},
{
color = 5;
glyphname = w.alt1;
lastChange = "2019-01-16 14:02:35 +0000";
layers = (
{
layerId = "ADA7F6FF-5955-4EF3-8FA7-BADC10F8EE4C";
paths = (
{
closed = 1;
nodes = (
"30 -25 OFFCURVE",
"50 -45 OFFCURVE",
"75 -45 CURVE SMOOTH",
"87.221 -45 OFFCURVE",
"98 -40 OFFCURVE",
"106 -33 CURVE",
"525 293.013 LINE",
"945 -33 LINE SMOOTH",
"954 -40 OFFCURVE",
"962.701 -44.966 OFFCURVE",
"974.869 -45 CURVE SMOOTH",
"1000 -45 OFFCURVE",
"1020 -25 OFFCURVE",
"1020 0 CURVE SMOOTH",
"1020 500 LINE SMOOTH",
"1020 525 OFFCURVE",
"1000 545 OFFCURVE",
"975 545 CURVE SMOOTH",
"950 545 OFFCURVE",
"930 525 OFFCURVE",
"930 500 CURVE SMOOTH",
"930 91.964 LINE",
"556.325 382.415 LINE",
"548.246 390.221 OFFCURVE",
"537.221 395 OFFCURVE",
"525 395 CURVE SMOOTH",
"512.701 394.966 OFFCURVE",
"501.725 390.193 OFFCURVE",
"493.675 382.415 CURVE",
"120 91.964 LINE",
"120 500 LINE SMOOTH",
"120 525 OFFCURVE",
"100 545 OFFCURVE",
"75 545 CURVE SMOOTH",
"50 545 OFFCURVE",
"30 525 OFFCURVE",
"30 500 CURVE SMOOTH",
"30 0 LINE SMOOTH"
);
}
);
width = 1050;
},
{
associatedMasterId = "ADA7F6FF-5955-4EF3-8FA7-BADC10F8EE4C";
layerId = "6E6ADFED-5FC1-4547-8EFC-59BF4F5710C1";
name = path;
paths = (
{
closed = 0;
nodes = (
"975 500 LINE",
"975 0 LINE",
"525 350 LINE",
"75 0 LINE",
"75 500 LINE"
);
}
);
visible = 1;
width = 1050;
}
);
},
{
color = 5;
glyphname = y.alt1;
lastChange = "2019-01-15 14:31:03 +0000";
layers = (
{
layerId = "ADA7F6FF-5955-4EF3-8FA7-BADC10F8EE4C";
paths = (
{
closed = 1;
nodes = (
"1020 500 LINE SMOOTH",
"1020 525 OFFCURVE",
"1000 545 OFFCURVE",
"975 545 CURVE SMOOTH",
"950 545 OFFCURVE",
"930 525 OFFCURVE",
"930 500 CURVE SMOOTH",
"930 295 LINE",
"120 295 LINE",
"120 500 LINE SMOOTH",
"120 525 OFFCURVE",
"100 545 OFFCURVE",
"75 545 CURVE SMOOTH",
"50 545 OFFCURVE",
"30 525 OFFCURVE",
"30 500 CURVE SMOOTH",
"30 250 LINE SMOOTH",
"30 225 OFFCURVE",
"50 205 OFFCURVE",
"75 205 CURVE SMOOTH",
"930 205 LINE",
"930 45 LINE",
"75 45 LINE SMOOTH",
"50 45 OFFCURVE",
"30 25 OFFCURVE",
"30 0 CURVE SMOOTH",
"30 -25 OFFCURVE",
"50 -45 OFFCURVE",
"75 -45 CURVE SMOOTH",
"975 -45 LINE SMOOTH",
"1000 -45 OFFCURVE",
"1020 -25 OFFCURVE",
"1020 0 CURVE SMOOTH"
);
}
);
width = 1050;
},
{
associatedMasterId = "ADA7F6FF-5955-4EF3-8FA7-BADC10F8EE4C";
layerId = "7C2A7ACC-3EF1-4770-A6A5-9DD0034410B3";
name = path;
paths = (
{
closed = 0;
nodes = (
"75 0 LINE",
"975 0 LINE",
"975 250 LINE"
);
},
{
closed = 0;
nodes = (
"975 500 LINE",
"975 250 LINE",
"75 250 LINE",
"75 500 LINE"
);
}
);
visible = 1;
width = 1050;
}
);
},
{
color = 5;
glyphname = Delta;
lastChange = "2019-01-16 16:44:20 +0000";
layers = (
{
layerId = "ADA7F6FF-5955-4EF3-8FA7-BADC10F8EE4C";
paths = (
{
closed = 1;
nodes = (
"30 -25 OFFCURVE",
"50 -45 OFFCURVE",
"75 -45 CURVE SMOOTH",
"975 -45 LINE SMOOTH",
"1000 -45 OFFCURVE",
"1020 -25 OFFCURVE",
"1020 0 CURVE SMOOTH",
"1020 8 OFFCURVE",
"1018 14 OFFCURVE",
"1015 20 CURVE SMOOTH",
"1012 26 OFFCURVE",
"1008 31 OFFCURVE",
"1004 35 CURVE",
"559 530 LINE",
"555 534 LINE SMOOTH",
"547 541 OFFCURVE",
"537 545 OFFCURVE",
"525 545 CURVE SMOOTH",
"513 545 OFFCURVE",
"503 541 OFFCURVE",
"495 534 CURVE SMOOTH",
"491 530 LINE",
"46 35 LINE",
"42 31 OFFCURVE",
"38 26 OFFCURVE",
"35 20 CURVE SMOOTH",
"32 14 OFFCURVE",
"30 8 OFFCURVE",
"30 0 CURVE SMOOTH"
);
},
{
closed = 1;
nodes = (
"525 433 LINE",
"874 45 LINE",
"176 45 LINE"
);
}
);
width = 1050;
},
{
associatedMasterId = "ADA7F6FF-5955-4EF3-8FA7-BADC10F8EE4C";
layerId = "E384C503-C243-4737-9AE8-F23E43C793A9";
name = path;
paths = (
{
closed = 1;
nodes = (
"525 500 LINE",
"975 0 LINE",
"75 0 LINE"
);
}
);
visible = 1;
width = 1050;
}
);
unicode = 0394;
},
{
color = 5;
glyphname = Sigma;
lastChange = "2019-01-16 16:41:31 +0000";
layers = (
{
layerId = "ADA7F6FF-5955-4EF3-8FA7-BADC10F8EE4C";
paths = (
{
closed = 1;
nodes = (
"30 -25 OFFCURVE",
"50 -45 OFFCURVE",
"75 -45 CURVE SMOOTH",
"975 -45 LINE SMOOTH",
"1000 -45 OFFCURVE",
"1020 -25 OFFCURVE",
"1020 0 CURVE SMOOTH",
"1020 25 OFFCURVE",
"1000 45 OFFCURVE",
"975 45 CURVE SMOOTH",
"249 45 LINE",
"546 210 LINE SMOOTH",
"560 218 OFFCURVE",
"570 233 OFFCURVE",
"570 250 CURVE SMOOTH",
"570 267 OFFCURVE",
"560 282 OFFCURVE",
"546 290 CURVE SMOOTH",
"249 455 LINE",
"975 455 LINE SMOOTH",
"1000 455 OFFCURVE",
"1020 475 OFFCURVE",
"1020 500 CURVE SMOOTH",
"1020 525 OFFCURVE",
"1000 545 OFFCURVE",
"975 545 CURVE SMOOTH",
"75 545 LINE SMOOTH",
"50 545 OFFCURVE",
"30 525 OFFCURVE",
"30 500 CURVE SMOOTH",
"30 483 OFFCURVE",
"40 468 OFFCURVE",
"54 460 CURVE SMOOTH",
"432 250 LINE",
"54 40 LINE SMOOTH",
"40 32 OFFCURVE",
"30 17 OFFCURVE",
"30 0 CURVE SMOOTH"
);
}
);
width = 1050;
},
{
associatedMasterId = "ADA7F6FF-5955-4EF3-8FA7-BADC10F8EE4C";
layerId = "2F3BFCCD-4A4B-4302-A9E4-E0DBC7481D34";
name = path;
paths = (
{
closed = 0;
nodes = (
"975 500 LINE",
"75 500 LINE",
"525 250 LINE",
"75 0 LINE",
"975 -2 LINE"
);
}
);
visible = 1;
width = 1050;
}
);
unicode = 03A3;
},
{
color = 5;
glyphname = Phi;
lastChange = "2019-01-15 14:18:46 +0000";
layers = (
{
layerId = "ADA7F6FF-5955-4EF3-8FA7-BADC10F8EE4C";
paths = (
{
closed = 1;
nodes = (
"120 455 LINE",
"480 455 LINE",
"480 45 LINE",
"120 45 LINE"
);
},
{
closed = 1;
nodes = (
"570 455 LINE",
"930 455 LINE",
"930 45 LINE",
"570 45 LINE"
);
},
{
closed = 1;
nodes = (
"30 -25 OFFCURVE",
"50 -45 OFFCURVE",
"75 -45 CURVE SMOOTH",
"480 -45 LINE",
"480 -90 LINE SMOOTH",
"480 -115 OFFCURVE",
"500 -135 OFFCURVE",
"525 -135 CURVE SMOOTH",
"550 -135 OFFCURVE",
"570 -115 OFFCURVE",
"570 -90 CURVE SMOOTH",
"570 -45 LINE",
"975 -45 LINE SMOOTH",
"1000 -45 OFFCURVE",
"1020 -25 OFFCURVE",
"1020 0 CURVE SMOOTH",
"1020 500 LINE SMOOTH",
"1020 525 OFFCURVE",
"1000 545 OFFCURVE",
"975 545 CURVE SMOOTH",
"570 545 LINE",
"570 590 LINE SMOOTH",
"570 615 OFFCURVE",
"550 635 OFFCURVE",
"525 635 CURVE SMOOTH",
"500 635 OFFCURVE",
"480 615 OFFCURVE",
"480 590 CURVE SMOOTH",
"480 545 LINE",
"75 545 LINE SMOOTH",
"50 545 OFFCURVE",
"30 525 OFFCURVE",
"30 500 CURVE SMOOTH",
"30 0 LINE SMOOTH"
);
}
);
width = 1050;
},
{
associatedMasterId = "ADA7F6FF-5955-4EF3-8FA7-BADC10F8EE4C";
layerId = "6BBE77B2-6B4B-4D18-8CFE-D33E98E29672";
name = path;
paths = (
{
closed = 1;
nodes = (
"75 0 LINE",
"975 0 LINE",
"975 500 LINE",
"75 500 LINE"
);
},
{
closed = 0;
nodes = (
"525 590 LINE",
"525 -90 LINE"
);
}
);
visible = 1;
width = 1050;
}
);
unicode = 03A6;
},
{
color = 5;
glyphname = pi;
lastChange = "2019-01-15 14:16:36 +0000";
layers = (
{
layerId = "ADA7F6FF-5955-4EF3-8FA7-BADC10F8EE4C";
paths = (
{
closed = 1;
nodes = (
"679 -25 OFFCURVE",
"699 -45 OFFCURVE",
"724 -45 CURVE SMOOTH",
"895 -45 LINE SMOOTH",
"920 -45 OFFCURVE",
"940 -25 OFFCURVE",
"940 0 CURVE SMOOTH",
"940 25 OFFCURVE",
"920 45 OFFCURVE",
"895 45 CURVE SMOOTH",
"769 45 LINE",
"769 455 LINE",
"975 455 LINE SMOOTH",
"1000 455 OFFCURVE",
"1020 475 OFFCURVE",
"1020 500 CURVE SMOOTH",
"1020 525 OFFCURVE",
"1000 545 OFFCURVE",
"975 545 CURVE SMOOTH",
"75 543 LINE SMOOTH",
"50 543 OFFCURVE",
"30 523 OFFCURVE",
"30 498 CURVE SMOOTH",
"30 473 OFFCURVE",
"50 453 OFFCURVE",
"75 453 CURVE SMOOTH",
"280 453 LINE",
"280 0 LINE SMOOTH",
"280 -25 OFFCURVE",
"300 -45 OFFCURVE",
"325 -45 CURVE SMOOTH",
"350 -45 OFFCURVE",
"370 -25 OFFCURVE",
"370 0 CURVE SMOOTH",
"370 454 LINE",
"679 454 LINE",
"679 0 LINE SMOOTH"
);
}
);
width = 1050;
},
{
associatedMasterId = "ADA7F6FF-5955-4EF3-8FA7-BADC10F8EE4C";
layerId = "83E20E60-68F9-449A-BED9-3CC812012B61";
name = path;
paths = (
{
closed = 0;
nodes = (
"75 498 LINE",
"975 500 LINE"
);
},
{
closed = 0;
nodes = (
"325 0 LINE",
"325 500 LINE"
);
},
{
closed = 0;
nodes = (
"724 500 LINE",
"724 0 LINE",
"895 0 LINE"
);
}
);
visible = 1;
width = 1050;
}
);
unicode = 03C0;
},
{
color = 5;
glyphname = zero;
lastChange = "2019-01-14 19:02:58 +0000";
layers = (
{
layerId = "ADA7F6FF-5955-4EF3-8FA7-BADC10F8EE4C";
paths = (
{
closed = 1;
nodes = (
"120 455 LINE",
"802 455 LINE",
"120 77 LINE"
);
},
{
closed = 1;
nodes = (
"930 423 LINE",
"930 45 LINE",
"248 45 LINE"
);
},
{
closed = 1;
nodes = (
"30 -25 OFFCURVE",
"50 -45 OFFCURVE",
"75 -45 CURVE SMOOTH",
"975 -45 LINE SMOOTH",
"1000 -45 OFFCURVE",
"1020 -25 OFFCURVE",
"1020 0 CURVE SMOOTH",
"1020 500 LINE SMOOTH",
"1020 525 OFFCURVE",
"1000 545 OFFCURVE",
"975 545 CURVE SMOOTH",
"75 545 LINE SMOOTH",
"50 545 OFFCURVE",
"30 525 OFFCURVE",
"30 500 CURVE SMOOTH",
"30 0 LINE SMOOTH"
);
}
);
width = 1050;
},
{
associatedMasterId = "ADA7F6FF-5955-4EF3-8FA7-BADC10F8EE4C";
layerId = "7480C5BB-4728-486A-A93E-3754290A7739";
name = path;
paths = (
{
closed = 1;
nodes = (
"930 500 LINE",
"930 0 LINE",
"30 0 LINE",
"30 500 LINE"
);
},
{
closed = 0;
nodes = (
"31 1 LINE",
"929 499 LINE"
);
}
);
visible = 1;
width = 960;
},
{
associatedMasterId = "ADA7F6FF-5955-4EF3-8FA7-BADC10F8EE4C";
layerId = "89AF0000-25F6-4E10-A495-CF72B9CDAC35";
name = path;
paths = (
{
closed = 1;
nodes = (
"930 500 LINE",
"930 0 LINE",
"30 0 LINE",
"30 500 LINE"
);
},
{
closed = 0;
nodes = (
"31 1 LINE",
"929 499 LINE"
);
}
);
width = 960;
}
);
unicode = 0030;
},
{
color = 5;
glyphname = one;
lastChange = "2019-01-14 19:02:58 +0000";
layers = (
{
layerId = "ADA7F6FF-5955-4EF3-8FA7-BADC10F8EE4C";
paths = (
{
closed = 1;
nodes = (
"75 545 LINE SMOOTH",
"50 545 OFFCURVE",
"30 525 OFFCURVE",
"30 500 CURVE SMOOTH",
"30 475 OFFCURVE",
"50 455 OFFCURVE",
"75 455 CURVE SMOOTH",
"480 455 LINE",
"480 45 LINE",
"75 45 LINE SMOOTH",
"50 45 OFFCURVE",
"30 25 OFFCURVE",
"30 0 CURVE SMOOTH",
"30 -25 OFFCURVE",
"50 -45 OFFCURVE",
"75 -45 CURVE SMOOTH",
"975 -45 LINE SMOOTH",
"1000 -45 OFFCURVE",
"1020 -25 OFFCURVE",
"1020 0 CURVE SMOOTH",
"1020 25 OFFCURVE",
"1000 45 OFFCURVE",
"975 45 CURVE SMOOTH",
"570 45 LINE",
"570 500 LINE SMOOTH",
"570 525 OFFCURVE",
"550 545 OFFCURVE",
"525 545 CURVE SMOOTH"
);
}
);
width = 1050;
},
{
associatedMasterId = "ADA7F6FF-5955-4EF3-8FA7-BADC10F8EE4C";
layerId = "0C02CCB5-A14C-44DD-9DCF-477CB513D1FE";
name = path;
paths = (
{
closed = 0;
nodes = (
"930 0 LINE",
"30 0 LINE"
);
},
{
closed = 0;
nodes = (
"30 500 LINE",
"480 500 LINE",
"480 0 LINE"
);
}
);
visible = 1;
width = 960;
},
{
associatedMasterId = "ADA7F6FF-5955-4EF3-8FA7-BADC10F8EE4C";
layerId = "DDEAF12A-DC9E-4BAB-8814-EB7B8561208C";
name = path;
paths = (
{
closed = 0;
nodes = (
"930 0 LINE",
"30 0 LINE"
);
},
{
closed = 0;
nodes = (
"30 500 LINE",
"480 500 LINE",
"480 0 LINE"
);
}
);
width = 960;
}
);
unicode = 0031;
},
{
color = 5;
glyphname = two;
lastChange = "2019-01-14 19:02:58 +0000";
layers = (
{
layerId = "ADA7F6FF-5955-4EF3-8FA7-BADC10F8EE4C";
paths = (
{
closed = 1;
nodes = (
"30 -25 OFFCURVE",
"50 -45 OFFCURVE",
"75 -45 CURVE SMOOTH",
"975 -45 LINE SMOOTH",
"1000 -45 OFFCURVE",
"1020 -25 OFFCURVE",
"1020 0 CURVE SMOOTH",
"1020 25 OFFCURVE",
"1000 45 OFFCURVE",
"975 45 CURVE SMOOTH",
"120 45 LINE",
"120 205 LINE",
"975 205 LINE SMOOTH",
"1000 205 OFFCURVE",
"1020 225 OFFCURVE",
"1020 250 CURVE SMOOTH",
"1020 500 LINE SMOOTH",
"1020 525 OFFCURVE",
"1000 545 OFFCURVE",
"975 545 CURVE SMOOTH",
"75 545 LINE SMOOTH",
"50 545 OFFCURVE",
"30 525 OFFCURVE",
"30 500 CURVE SMOOTH",
"30 475 OFFCURVE",
"50 455 OFFCURVE",
"75 455 CURVE SMOOTH",
"930 455 LINE",
"930 295 LINE",
"75 295 LINE SMOOTH",
"50 295 OFFCURVE",
"30 275 OFFCURVE",
"30 250 CURVE SMOOTH",
"30 0 LINE SMOOTH"
);
}
);
width = 1050;
},
{
associatedMasterId = "ADA7F6FF-5955-4EF3-8FA7-BADC10F8EE4C";
layerId = "A54A7C22-C022-42EA-A1E0-70340B2D46A4";
name = path;
paths = (
{
closed = 0;
nodes = (
"30 500 LINE",
"930 500 LINE",
"930 250 LINE",
"30 250 LINE",
"30 0 LINE",
"930 0 LINE"
);
}
);
visible = 1;
width = 960;
},
{
associatedMasterId = "ADA7F6FF-5955-4EF3-8FA7-BADC10F8EE4C";
layerId = "1B6F2D96-296F-4776-8A5F-D9EC119EC2B8";
name = path;
paths = (
{
closed = 0;
nodes = (
"30 500 LINE",
"930 500 LINE",
"930 250 LINE",
"30 250 LINE",
"30 0 LINE",
"930 0 LINE"
);
}
);
width = 960;
}
);
rightMetricsKey = v;
unicode = 0032;
},
{
color = 5;
glyphname = three;
lastChange = "2019-01-14 19:02:58 +0000";
layers = (
{
layerId = "ADA7F6FF-5955-4EF3-8FA7-BADC10F8EE4C";
paths = (
{
closed = 1;
nodes = (
"1000 -45 OFFCURVE",
"1020 -25 OFFCURVE",
"1020 0 CURVE SMOOTH",
"1020 500 LINE SMOOTH",
"1020 525 OFFCURVE",
"1000 545 OFFCURVE",
"975 545 CURVE SMOOTH",
"75 545 LINE SMOOTH",
"50 545 OFFCURVE",
"30 525 OFFCURVE",
"30 500 CURVE SMOOTH",
"30 475 OFFCURVE",
"50 455 OFFCURVE",
"75 455 CURVE SMOOTH",
"930 455 LINE",
"930 295 LINE",
"75 295 LINE SMOOTH",
"50 295 OFFCURVE",
"30 275 OFFCURVE",
"30 250 CURVE SMOOTH",
"30 225 OFFCURVE",
"50 205 OFFCURVE",
"75 205 CURVE SMOOTH",
"930 205 LINE",
"930 45 LINE",
"75 45 LINE SMOOTH",
"50 45 OFFCURVE",
"30 25 OFFCURVE",
"30 0 CURVE SMOOTH",
"30 -25 OFFCURVE",
"50 -45 OFFCURVE",
"75 -45 CURVE SMOOTH",
"975 -45 LINE SMOOTH"
);
}
);
width = 1050;
},
{
associatedMasterId = "ADA7F6FF-5955-4EF3-8FA7-BADC10F8EE4C";
layerId = "C79E28BD-99D4-4D6D-BA20-22E3EAA9A517";
name = path;
paths = (
{
closed = 0;
nodes = (
"30 0 LINE",
"930 0 LINE",
"930 500 LINE",
"30 500 LINE"
);
},
{
closed = 0;
nodes = (
"930 250 LINE",
"30 250 LINE"
);
}
);
visible = 1;
width = 960;
},
{
associatedMasterId = "ADA7F6FF-5955-4EF3-8FA7-BADC10F8EE4C";
layerId = "95A24670-5DDE-4A1C-9A55-746F18A58217";
name = path;
paths = (
{
closed = 0;
nodes = (
"30 0 LINE",
"930 0 LINE",
"930 500 LINE",
"30 500 LINE"
);
},
{
closed = 0;
nodes = (
"930 250 LINE",
"30 250 LINE"
);
}
);
width = 960;
}
);
unicode = 0033;
},
{
color = 5;
glyphname = four;
lastChange = "2019-01-14 19:02:58 +0000";
layers = (
{
layerId = "ADA7F6FF-5955-4EF3-8FA7-BADC10F8EE4C";
paths = (
{
closed = 1;
nodes = (
"30 225 OFFCURVE",
"50 205 OFFCURVE",
"75 205 CURVE SMOOTH",
"930 205 LINE",
"930 0 LINE SMOOTH",
"930 -25 OFFCURVE",
"950 -45 OFFCURVE",
"975 -45 CURVE SMOOTH",
"1000 -45 OFFCURVE",
"1020 -25 OFFCURVE",
"1020 0 CURVE SMOOTH",
"1020 500 LINE SMOOTH",
"1020 525 OFFCURVE",
"1000 545 OFFCURVE",
"975 545 CURVE SMOOTH",
"950 545 OFFCURVE",
"930 525 OFFCURVE",
"930 500 CURVE SMOOTH",
"930 295 LINE",
"120 295 LINE",
"120 500 LINE SMOOTH",
"120 525 OFFCURVE",
"100 545 OFFCURVE",
"75 545 CURVE SMOOTH",
"50 545 OFFCURVE",
"30 525 OFFCURVE",
"30 500 CURVE SMOOTH",
"30 250 LINE SMOOTH"
);
}
);
width = 1050;
},
{
associatedMasterId = "ADA7F6FF-5955-4EF3-8FA7-BADC10F8EE4C";
layerId = "BE732878-BC44-4269-8280-2E6C7F67816D";
name = path;
paths = (
{
closed = 0;
nodes = (
"930 250 LINE",
"30 250 LINE",
"30 500 LINE"
);
},
{
closed = 0;
nodes = (
"930 0 LINE",
"930 500 LINE"
);
}
);
visible = 1;
width = 960;
},
{
associatedMasterId = "ADA7F6FF-5955-4EF3-8FA7-BADC10F8EE4C";
layerId = "C196F01C-25B4-45CD-B436-4730DAD7239F";
name = path;
paths = (
{
closed = 0;
nodes = (
"930 250 LINE",
"30 250 LINE",
"30 500 LINE"
);
},
{
closed = 0;
nodes = (
"930 0 LINE",
"930 500 LINE"
);
}
);
width = 960;
}
);
unicode = 0034;
},
{
color = 5;
glyphname = five;
lastChange = "2019-01-14 19:02:58 +0000";
layers = (
{
layerId = "ADA7F6FF-5955-4EF3-8FA7-BADC10F8EE4C";
paths = (
{
closed = 1;
nodes = (
"1020 250 LINE SMOOTH",
"1020 275 OFFCURVE",
"1000 295 OFFCURVE",
"975 295 CURVE SMOOTH",
"120 295 LINE",
"120 455 LINE",
"975 455 LINE SMOOTH",
"1000 455 OFFCURVE",
"1020 475 OFFCURVE",
"1020 500 CURVE SMOOTH",
"1020 525 OFFCURVE",
"1000 545 OFFCURVE",
"975 545 CURVE SMOOTH",
"75 545 LINE SMOOTH",
"50 545 OFFCURVE",
"30 525 OFFCURVE",
"30 500 CURVE SMOOTH",
"30 250 LINE SMOOTH",
"30 225 OFFCURVE",
"50 205 OFFCURVE",
"75 205 CURVE SMOOTH",
"930 205 LINE",
"930 45 LINE",
"75 45 LINE SMOOTH",
"50 45 OFFCURVE",
"30 25 OFFCURVE",
"30 0 CURVE SMOOTH",
"30 -25 OFFCURVE",
"50 -45 OFFCURVE",
"75 -45 CURVE SMOOTH",
"975 -45 LINE SMOOTH",
"1000 -45 OFFCURVE",
"1020 -25 OFFCURVE",
"1020 0 CURVE SMOOTH"
);
}
);
width = 1050;
},
{
associatedMasterId = "ADA7F6FF-5955-4EF3-8FA7-BADC10F8EE4C";
layerId = "B70655FA-A5B5-42C2-A027-4F7C7A53601C";
name = path;
paths = (
{
closed = 0;
nodes = (
"950 500 LINE",
"50 500 LINE",
"50 250 LINE",
"950 250 LINE",
"950 0 LINE",
"50 0 LINE"
);
}
);
visible = 1;
width = 1000;
},
{
associatedMasterId = "ADA7F6FF-5955-4EF3-8FA7-BADC10F8EE4C";
layerId = "A59FA37E-C227-43B9-A2D7-33DBA99D454F";
name = path;
paths = (
{
closed = 0;
nodes = (
"950 500 LINE",
"50 500 LINE",
"50 250 LINE",
"950 250 LINE",
"950 0 LINE",
"50 0 LINE"
);
}
);
width = 1000;
}
);
unicode = 0035;
},
{
color = 5;
glyphname = six;
lastChange = "2019-01-14 19:02:58 +0000";
layers = (
{
layerId = "ADA7F6FF-5955-4EF3-8FA7-BADC10F8EE4C";
paths = (
{
closed = 1;
nodes = (
"120 205 LINE",
"930 205 LINE",
"930 45 LINE",
"120 45 LINE"
);
},
{
closed = 1;
nodes = (
"30 -25 OFFCURVE",
"50 -45 OFFCURVE",
"75 -45 CURVE SMOOTH",
"975 -45 LINE SMOOTH",
"1000 -45 OFFCURVE",
"1020 -25 OFFCURVE",
"1020 0 CURVE SMOOTH",
"1020 250 LINE SMOOTH",
"1020 275 OFFCURVE",
"1000 295 OFFCURVE",
"975 295 CURVE SMOOTH",
"120 295 LINE",
"120 455 LINE",
"975 455 LINE SMOOTH",
"1000 455 OFFCURVE",
"1020 475 OFFCURVE",
"1020 500 CURVE SMOOTH",
"1020 525 OFFCURVE",
"1000 545 OFFCURVE",
"975 545 CURVE SMOOTH",
"75 545 LINE SMOOTH",
"50 545 OFFCURVE",
"30 525 OFFCURVE",
"30 500 CURVE SMOOTH",
"30 0 LINE SMOOTH"
);
}
);
width = 1050;
},
{
associatedMasterId = "ADA7F6FF-5955-4EF3-8FA7-BADC10F8EE4C";
layerId = "2DB9C964-297F-4314-AFBB-0A2DF2A57601";
name = path;
paths = (
{
closed = 0;
nodes = (
"930 500 LINE",
"30 500 LINE",
"30 0 LINE",
"930 0 LINE",
"930 250 LINE",
"30 250 LINE"
);
}
);
visible = 1;
width = 960;
},
{
associatedMasterId = "ADA7F6FF-5955-4EF3-8FA7-BADC10F8EE4C";
layerId = "9F502077-0171-41F1-8436-AA309B8899A2";
name = path;
paths = (
{
closed = 0;
nodes = (
"930 500 LINE",
"30 500 LINE",
"30 0 LINE",
"930 0 LINE",
"930 250 LINE",
"30 250 LINE"
);
}
);
width = 960;
}
);
unicode = 0036;
},
{
color = 5;
glyphname = seven;
lastChange = "2019-01-14 19:02:58 +0000";
layers = (
{
associatedMasterId = "ADA7F6FF-5955-4EF3-8FA7-BADC10F8EE4C";
layerId = "CF108064-E8B7-404C-9538-D301E72EFDE7";
name = path;
paths = (
{
closed = 0;
nodes = (
"950 0 LINE",
"950 500 LINE",
"50 500 LINE"
);
}
);
visible = 1;
width = 1000;
},
{
layerId = "ADA7F6FF-5955-4EF3-8FA7-BADC10F8EE4C";
paths = (
{
closed = 1;
nodes = (
"75 545 LINE SMOOTH",
"50 545 OFFCURVE",
"30 525 OFFCURVE",
"30 500 CURVE SMOOTH",
"30 475 OFFCURVE",
"50 455 OFFCURVE",
"75 455 CURVE SMOOTH",
"930 455 LINE",
"930 0 LINE SMOOTH",
"930 -25 OFFCURVE",
"950 -45 OFFCURVE",
"975 -45 CURVE SMOOTH",
"1000 -45 OFFCURVE",
"1020 -25 OFFCURVE",
"1020 0 CURVE SMOOTH",
"1020 500 LINE SMOOTH",
"1020 525 OFFCURVE",
"1000 545 OFFCURVE",
"975 545 CURVE SMOOTH"
);
}
);
width = 1050;
},
{
associatedMasterId = "ADA7F6FF-5955-4EF3-8FA7-BADC10F8EE4C";
layerId = "0FBC9356-11E3-4BC0-A891-39829CCBA040";
name = path;
paths = (
{
closed = 0;
nodes = (
"950 0 LINE",
"950 500 LINE",
"50 500 LINE"
);
}
);
width = 1000;
}
);
unicode = 0037;
},
{
color = 5;
glyphname = eight;
lastChange = "2019-01-14 19:02:58 +0000";
layers = (
{
layerId = "ADA7F6FF-5955-4EF3-8FA7-BADC10F8EE4C";
paths = (
{
closed = 1;
nodes = (
"120 205 LINE",
"930 205 LINE",
"930 45 LINE",
"120 45 LINE"
);
},
{
closed = 1;
nodes = (
"120 455 LINE",
"930 455 LINE",
"930 295 LINE",
"120 295 LINE"
);
},
{
closed = 1;
nodes = (
"30 -25 OFFCURVE",
"50 -45 OFFCURVE",
"75 -45 CURVE SMOOTH",
"975 -45 LINE SMOOTH",
"1000 -45 OFFCURVE",
"1020 -25 OFFCURVE",
"1020 0 CURVE SMOOTH",
"1020 500 LINE SMOOTH",
"1020 525 OFFCURVE",
"1000 545 OFFCURVE",
"975 545 CURVE SMOOTH",
"75 545 LINE SMOOTH",
"50 545 OFFCURVE",
"30 525 OFFCURVE",
"30 500 CURVE SMOOTH",
"30 0 LINE SMOOTH"
);
}
);
width = 1050;
},
{
associatedMasterId = "ADA7F6FF-5955-4EF3-8FA7-BADC10F8EE4C";
layerId = "FB4D025F-ED2A-456C-A909-086A51F494B0";
name = path;
paths = (
{
closed = 1;
nodes = (
"950 500 LINE",
"950 0 LINE",
"50 0 LINE",
"50 500 LINE"
);
},
{
closed = 0;
nodes = (
"50 250 LINE",
"950 250 LINE"
);
}
);
visible = 1;
width = 1000;
},
{
associatedMasterId = "ADA7F6FF-5955-4EF3-8FA7-BADC10F8EE4C";
layerId = "488F0FCA-3A14-4055-A5F0-7526ABD3C752";
name = path;
paths = (
{
closed = 1;
nodes = (
"950 500 LINE",
"950 0 LINE",
"50 0 LINE",
"50 500 LINE"
);
},
{
closed = 0;
nodes = (
"50 250 LINE",
"950 250 LINE"
);
}
);
width = 1000;
}
);
unicode = 0038;
},
{
color = 5;
glyphname = nine;
lastChange = "2019-01-14 19:02:58 +0000";
layers = (
{
layerId = "ADA7F6FF-5955-4EF3-8FA7-BADC10F8EE4C";
paths = (
{
closed = 1;
nodes = (
"120 455 LINE",
"930 455 LINE",
"930 295 LINE",
"120 295 LINE"
);
},
{
closed = 1;
nodes = (
"30 225 OFFCURVE",
"50 205 OFFCURVE",
"75 205 CURVE SMOOTH",
"930 205 LINE",
"930 45 LINE",
"75 45 LINE SMOOTH",
"50 45 OFFCURVE",
"30 25 OFFCURVE",
"30 0 CURVE SMOOTH",
"30 -25 OFFCURVE",
"50 -45 OFFCURVE",
"75 -45 CURVE SMOOTH",
"975 -45 LINE SMOOTH",
"1000 -45 OFFCURVE",
"1020 -25 OFFCURVE",
"1020 0 CURVE SMOOTH",
"1020 500 LINE SMOOTH",
"1020 525 OFFCURVE",
"1000 545 OFFCURVE",
"975 545 CURVE SMOOTH",
"75 545 LINE SMOOTH",
"50 545 OFFCURVE",
"30 525 OFFCURVE",
"30 500 CURVE SMOOTH",
"30 250 LINE SMOOTH"
);
}
);
width = 1050;
},
{
associatedMasterId = "ADA7F6FF-5955-4EF3-8FA7-BADC10F8EE4C";
layerId = "5C7D2E79-3006-48EB-9E4A-9C7A22790322";
name = path;
paths = (
{
closed = 0;
nodes = (
"30 0 LINE",
"930 0 LINE",
"930 500 LINE",
"30 500 LINE",
"30 250 LINE",
"930 250 LINE"
);
}
);
visible = 1;
width = 960;
},
{
associatedMasterId = "ADA7F6FF-5955-4EF3-8FA7-BADC10F8EE4C";
layerId = "AD44FB8C-38CB-44B0-993C-BB6C223C2366";
name = path;
paths = (
{
closed = 0;
nodes = (
"30 0 LINE",
"930 0 LINE",
"930 500 LINE",
"30 500 LINE",
"30 250 LINE",
"930 250 LINE"
);
}
);
width = 960;
}
);
unicode = 0039;
},
{
color = 5;
glyphname = zero.alt1;
lastChange = "2019-01-14 19:02:58 +0000";
layers = (
{
layerId = "ADA7F6FF-5955-4EF3-8FA7-BADC10F8EE4C";
paths = (
{
closed = 1;
nodes = (
"120 455 LINE",
"930 455 LINE",
"930 45 LINE",
"120 45 LINE"
);
},
{
closed = 1;
nodes = (
"457 303 OFFCURVE",
"477 323 OFFCURVE",
"502 323 CURVE SMOOTH",
"557 323 LINE",
"582 323 OFFCURVE",
"602 303 OFFCURVE",
"602 278 CURVE SMOOTH",
"602 223 LINE",
"602 198 OFFCURVE",
"582 178 OFFCURVE",
"557 178 CURVE",
"502 178 LINE SMOOTH",
"477 178 OFFCURVE",
"457 198 OFFCURVE",
"457 223 CURVE SMOOTH",
"457 278 LINE"
);
},
{
closed = 1;
nodes = (
"30 -25 OFFCURVE",
"50 -45 OFFCURVE",
"75 -45 CURVE SMOOTH",
"975 -45 LINE SMOOTH",
"1000 -45 OFFCURVE",
"1020 -25 OFFCURVE",
"1020 0 CURVE SMOOTH",
"1020 500 LINE SMOOTH",
"1020 525 OFFCURVE",
"1000 545 OFFCURVE",
"975 545 CURVE SMOOTH",
"75 545 LINE SMOOTH",
"50 545 OFFCURVE",
"30 525 OFFCURVE",
"30 500 CURVE SMOOTH",
"30 0 LINE SMOOTH"
);
}
);
width = 1050;
}
);
},
{
color = 5;
glyphname = seven.alt1;
lastChange = "2019-01-16 17:04:48 +0000";
layers = (
{
layerId = "ADA7F6FF-5955-4EF3-8FA7-BADC10F8EE4C";
paths = (
{
closed = 1;
nodes = (
"30 475 OFFCURVE",
"50 455 OFFCURVE",
"75 455 CURVE SMOOTH",
"771 455 LINE",
"311 243 LINE",
"293 235 OFFCURVE",
"280 220 OFFCURVE",
"280 200 CURVE SMOOTH",
"280 0 LINE SMOOTH",
"280 -25 OFFCURVE",
"300 -45 OFFCURVE",
"325 -45 CURVE SMOOTH",
"350 -45 OFFCURVE",
"370 -25 OFFCURVE",
"370 0 CURVE SMOOTH",
"370 172 LINE",
"989 457 LINE",
"1007 466 OFFCURVE",
"1020 480 OFFCURVE",
"1020 500 CURVE SMOOTH",
"1020 525 OFFCURVE",
"1000 545 OFFCURVE",
"975 545 CURVE SMOOTH",
"75 545 LINE SMOOTH",
"50 545 OFFCURVE",
"30 525 OFFCURVE",
"30 500 CURVE SMOOTH"
);
}
);
width = 1050;
},
{
associatedMasterId = "ADA7F6FF-5955-4EF3-8FA7-BADC10F8EE4C";
layerId = "83BFDF7F-0AFB-4074-AD03-2BC6C0C5F9B0";
name = path;
paths = (
{
closed = 0;
nodes = (
"325 0 LINE",
"325 200 LINE",
"975 500 LINE",
"75 500 LINE"
);
}
);
visible = 1;
width = 1050;
}
);
},
{
color = 5;
glyphname = nine.alt1;
lastChange = "2019-01-14 19:02:58 +0000";
layers = (
{
layerId = "ADA7F6FF-5955-4EF3-8FA7-BADC10F8EE4C";
paths = (
{
closed = 1;
nodes = (
"120 455 LINE",
"930 455 LINE",
"930 295 LINE",
"120 295 LINE"
);
},
{
closed = 1;
nodes = (
"30 225 OFFCURVE",
"50 205 OFFCURVE",
"75 205 CURVE SMOOTH",
"930 205 LINE",
"930 0 LINE SMOOTH",
"930 -25 OFFCURVE",
"950 -45 OFFCURVE",
"975 -45 CURVE SMOOTH",
"1000 -45 OFFCURVE",
"1020 -25 OFFCURVE",
"1020 0 CURVE SMOOTH",
"1020 500 LINE SMOOTH",
"1020 525 OFFCURVE",
"1000 545 OFFCURVE",
"975 545 CURVE SMOOTH",
"75 545 LINE SMOOTH",
"50 545 OFFCURVE",
"30 525 OFFCURVE",
"30 500 CURVE SMOOTH",
"30 250 LINE SMOOTH"
);
}
);
width = 1050;
},
{
associatedMasterId = "ADA7F6FF-5955-4EF3-8FA7-BADC10F8EE4C";
layerId = "DE3B5C19-112A-431F-BBE8-3C1AB02D511E";
name = path;
paths = (
{
closed = 0;
nodes = (
"930 0 LINE",
"930 500 LINE",
"30 500 LINE",
"30 250 LINE",
"930 250 LINE"
);
}
);
visible = 1;
width = 960;
},
{
associatedMasterId = "ADA7F6FF-5955-4EF3-8FA7-BADC10F8EE4C";
layerId = "17876D7F-6EF7-4B52-BE93-144DB848445F";
name = path;
paths = (
{
closed = 0;
nodes = (
"930 0 LINE",
"930 500 LINE",
"30 500 LINE",
"30 250 LINE",
"930 250 LINE"
);
}
);
width = 960;
}
);
},
{
glyphname = seven.alt2;
lastChange = "2019-01-14 19:08:21 +0000";
layers = (
{
associatedMasterId = "ADA7F6FF-5955-4EF3-8FA7-BADC10F8EE4C";
layerId = "E76CB519-347C-4CD5-A62E-E69F1D82C4F4";
name = path;
paths = (
{
closed = 1;
nodes = (
"83 -45 OFFCURVE",
"91 -43 OFFCURVE",
"98 -39 CURVE SMOOTH",
"962 441 LINE SMOOTH",
"985 454 OFFCURVE",
"994 473 OFFCURVE",
"987 499 CURVE SMOOTH",
"985 506 LINE SMOOTH",
"978 532 OFFCURVE",
"962 545 OFFCURVE",
"935 545 CURVE SMOOTH",
"75 545 LINE SMOOTH",
"50 545 OFFCURVE",
"30 525 OFFCURVE",
"30 500 CURVE SMOOTH",
"30 475 OFFCURVE",
"50 455 OFFCURVE",
"75 455 CURVE SMOOTH",
"801 455 LINE",
"54 40 LINE SMOOTH",
"40 32 OFFCURVE",
"30 17 OFFCURVE",
"30 0 CURVE SMOOTH",
"30 -25 OFFCURVE",
"50 -45 OFFCURVE",
"75 -45 CURVE SMOOTH"
);
}
);
visible = 1;
width = 1019;
},
{
layerId = "ADA7F6FF-5955-4EF3-8FA7-BADC10F8EE4C";
paths = (
{
closed = 1;
nodes = (
"83 -45 OFFCURVE",
"91 -43 OFFCURVE",
"98 -39 CURVE SMOOTH",
"537 205 LINE",
"975 205 LINE SMOOTH",
"1000 205 OFFCURVE",
"1020 225 OFFCURVE",
"1020 250 CURVE SMOOTH",
"1020 275 OFFCURVE",
"1000 295 OFFCURVE",
"975 295 CURVE SMOOTH",
"699 295 LINE",
"962 441 LINE SMOOTH",
"985 454 OFFCURVE",
"994 473 OFFCURVE",
"987 499 CURVE SMOOTH",
"985 506 LINE SMOOTH",
"978 532 OFFCURVE",
"962 545 OFFCURVE",
"935 545 CURVE SMOOTH",
"75 545 LINE SMOOTH",
"50 545 OFFCURVE",
"30 525 OFFCURVE",
"30 500 CURVE SMOOTH",
"30 475 OFFCURVE",
"50 455 OFFCURVE",
"75 455 CURVE SMOOTH",
"801 455 LINE",
"513 295 LINE",
"75 295 LINE SMOOTH",
"50 295 OFFCURVE",
"30 275 OFFCURVE",
"30 250 CURVE SMOOTH",
"30 225 OFFCURVE",
"50 205 OFFCURVE",
"75 205 CURVE SMOOTH",
"351 205 LINE",
"54 40 LINE SMOOTH",
"40 32 OFFCURVE",
"30 17 OFFCURVE",
"30 0 CURVE SMOOTH",
"30 -25 OFFCURVE",
"50 -45 OFFCURVE",
"75 -45 CURVE SMOOTH"
);
}
);
width = 1050;
},
{
associatedMasterId = "ADA7F6FF-5955-4EF3-8FA7-BADC10F8EE4C";
layerId = "8DD03A37-8C87-4FA1-AFE5-97B694A3A17F";
name = path;
paths = (
{
closed = 1;
nodes = (
"58.214 -45 OFFCURVE",
"65.913 -42.799 OFFCURVE",
"72.542 -38.955 CURVE SMOOTH",
"936.955 441.275 LINE SMOOTH",
"960.469 454.338 OFFCURVE",
"968.587 473.271 OFFCURVE",
"961.84 499.31 CURVE SMOOTH",
"960.014 506.353 LINE SMOOTH",
"953.267 532.392 OFFCURVE",
"936.976 545 OFFCURVE",
"910.077 545 CURVE SMOOTH",
"50 545 LINE SMOOTH",
"25.147 545 OFFCURVE",
"5 524.853 OFFCURVE",
"5 500 CURVE SMOOTH",
"5 475.147 OFFCURVE",
"25.147 455 OFFCURVE",
"50 455 CURVE SMOOTH",
"776.339 455 LINE",
"28.908 39.76 LINE SMOOTH",
"14.685 32.2 OFFCURVE",
"5 17.231 OFFCURVE",
"5 0 CURVE SMOOTH",
"5 -24.853 OFFCURVE",
"25.147 -45 OFFCURVE",
"50 -45 CURVE SMOOTH"
);
}
);
width = 600;
},
{
associatedMasterId = "ADA7F6FF-5955-4EF3-8FA7-BADC10F8EE4C";
layerId = "1F117603-4151-4CD4-B471-D87BFFA426D4";
name = "Nov 21 18, 21:11";
paths = (
{
closed = 1;
nodes = (
"58.214 -45 OFFCURVE",
"65.913 -42.799 OFFCURVE",
"72.542 -38.955 CURVE SMOOTH",
"936.955 441.275 LINE SMOOTH",
"960.469 454.338 OFFCURVE",
"968.587 473.271 OFFCURVE",
"961.84 499.31 CURVE SMOOTH",
"960.014 506.353 LINE SMOOTH",
"953.267 532.392 OFFCURVE",
"936.976 545 OFFCURVE",
"910.077 545 CURVE SMOOTH",
"50 545 LINE SMOOTH",
"25.147 545 OFFCURVE",
"5 524.853 OFFCURVE",
"5 500 CURVE SMOOTH",
"5 475.147 OFFCURVE",
"25.147 455 OFFCURVE",
"50 455 CURVE SMOOTH",
"776.339 455 LINE",
"28.908 39.76 LINE SMOOTH",
"14.685 32.2 OFFCURVE",
"5 17.231 OFFCURVE",
"5 0 CURVE SMOOTH",
"5 -24.853 OFFCURVE",
"25.147 -45 OFFCURVE",
"50 -45 CURVE SMOOTH"
);
}
);
width = 600;
},
{
associatedMasterId = "ADA7F6FF-5955-4EF3-8FA7-BADC10F8EE4C";
layerId = "22351058-0426-4984-9AAD-108EFE337ED0";
name = "Color 0";
paths = (
{
closed = 1;
nodes = (
"83 -45 OFFCURVE",
"91 -43 OFFCURVE",
"98 -39 CURVE SMOOTH",
"537 205 LINE",
"975 205 LINE SMOOTH",
"1000 205 OFFCURVE",
"1020 225 OFFCURVE",
"1020 250 CURVE SMOOTH",
"1020 275 OFFCURVE",
"1000 295 OFFCURVE",
"975 295 CURVE SMOOTH",
"699 295 LINE",
"962 441 LINE SMOOTH",
"985 454 OFFCURVE",
"994 473 OFFCURVE",
"987 499 CURVE SMOOTH",
"985 506 LINE SMOOTH",
"978 532 OFFCURVE",
"962 545 OFFCURVE",
"935 545 CURVE SMOOTH",
"75 545 LINE SMOOTH",
"50 545 OFFCURVE",
"30 525 OFFCURVE",
"30 500 CURVE SMOOTH",
"30 475 OFFCURVE",
"50 455 OFFCURVE",
"75 455 CURVE SMOOTH",
"801 455 LINE",
"513 295 LINE",
"75 295 LINE SMOOTH",
"50 295 OFFCURVE",
"30 275 OFFCURVE",
"30 250 CURVE SMOOTH",
"30 225 OFFCURVE",
"50 205 OFFCURVE",
"75 205 CURVE SMOOTH",
"351 205 LINE",
"54 40 LINE SMOOTH",
"40 32 OFFCURVE",
"30 17 OFFCURVE",
"30 0 CURVE SMOOTH",
"30 -25 OFFCURVE",
"50 -45 OFFCURVE",
"75 -45 CURVE SMOOTH"
);
}
);
width = 1050;
}
);
},
{
color = 5;
glyphname = fraction;
lastChange = "2019-01-16 09:24:55 +0000";
layers = (
{
layerId = "ADA7F6FF-5955-4EF3-8FA7-BADC10F8EE4C";
paths = (
{
closed = 1;
nodes = (
"89 -45 OFFCURVE",
"102 -38 OFFCURVE",
"110 -28 CURVE SMOOTH",
"510 472 LINE SMOOTH",
"516 479 OFFCURVE",
"520 489 OFFCURVE",
"520 500 CURVE SMOOTH",
"520 525 OFFCURVE",
"500 545 OFFCURVE",
"475 545 CURVE SMOOTH",
"461 545 OFFCURVE",
"448 538 OFFCURVE",
"440 528 CURVE SMOOTH",
"40 28 LINE SMOOTH",
"34 21 OFFCURVE",
"30 11 OFFCURVE",
"30 0 CURVE SMOOTH",
"30 -25 OFFCURVE",
"50 -45 OFFCURVE",
"75 -45 CURVE SMOOTH"
);
}
);
width = 550;
},
{
associatedMasterId = "ADA7F6FF-5955-4EF3-8FA7-BADC10F8EE4C";
layerId = "00BD0CBD-498E-4066-A9EF-A5802CEFA9E8";
name = path;
paths = (
{
closed = 0;
nodes = (
"75 0 LINE",
"475 500 LINE"
);
}
);
visible = 1;
width = 550;
}
);
unicode = 2044;
},
{
color = 5;
glyphname = onehalf;
lastChange = "2019-01-16 09:24:35 +0000";
layers = (
{
layerId = "ADA7F6FF-5955-4EF3-8FA7-BADC10F8EE4C";
paths = (
{
closed = 1;
nodes = (
"340 -45 OFFCURVE",
"353 -38 OFFCURVE",
"361 -28 CURVE SMOOTH",
"761 472 LINE SMOOTH",
"767 479 OFFCURVE",
"771 489 OFFCURVE",
"771 500 CURVE SMOOTH",
"771 525 OFFCURVE",
"751 545 OFFCURVE",
"726 545 CURVE SMOOTH",
"712 545 OFFCURVE",
"699 538 OFFCURVE",
"691 528 CURVE SMOOTH",
"291 28 LINE SMOOTH",
"285 21 OFFCURVE",
"281 11 OFFCURVE",
"281 0 CURVE SMOOTH",
"281 -25 OFFCURVE",
"301 -45 OFFCURVE",
"326 -45 CURVE SMOOTH"
);
},
{
closed = 1;
nodes = (
"75 545 LINE SMOOTH",
"50 545 OFFCURVE",
"30 525 OFFCURVE",
"30 500 CURVE SMOOTH",
"30 475 OFFCURVE",
"50 455 OFFCURVE",
"75 455 CURVE SMOOTH",
"180 455 LINE",
"180 295 LINE",
"75 295 LINE SMOOTH",
"50 295 OFFCURVE",
"30 275 OFFCURVE",
"30 250 CURVE SMOOTH",
"30 225 OFFCURVE",
"50 205 OFFCURVE",
"75 205 CURVE SMOOTH",
"375 205 LINE SMOOTH",
"400 205 OFFCURVE",
"420 225 OFFCURVE",
"420 250 CURVE SMOOTH",
"420 275 OFFCURVE",
"400 295 OFFCURVE",
"375 295 CURVE SMOOTH",
"270 295 LINE",
"270 500 LINE SMOOTH",
"270 525 OFFCURVE",
"250 545 OFFCURVE",
"225 545 CURVE SMOOTH"
);
},
{
closed = 1;
nodes = (
"630 -25 OFFCURVE",
"650 -45 OFFCURVE",
"675 -45 CURVE SMOOTH",
"975 -45 LINE SMOOTH",
"1000 -45 OFFCURVE",
"1020 -25 OFFCURVE",
"1020 0 CURVE SMOOTH",
"1020 25 OFFCURVE",
"1000 45 OFFCURVE",
"975 45 CURVE SMOOTH",
"720 45 LINE",
"720 80 LINE",
"975 80 LINE SMOOTH",
"1000 80 OFFCURVE",
"1020 100 OFFCURVE",
"1020 125 CURVE SMOOTH",
"1020 250 LINE SMOOTH",
"1020 275 OFFCURVE",
"1000 295 OFFCURVE",
"975 295 CURVE SMOOTH",
"675 295 LINE SMOOTH",
"650 295 OFFCURVE",
"630 275 OFFCURVE",
"630 250 CURVE SMOOTH",
"630 225 OFFCURVE",
"650 205 OFFCURVE",
"675 205 CURVE SMOOTH",
"930 205 LINE",
"930 170 LINE",
"675 170 LINE SMOOTH",
"650 170 OFFCURVE",
"630 150 OFFCURVE",
"630 125 CURVE SMOOTH",
"630 0 LINE SMOOTH"
);
}
);
width = 1050;
},
{
associatedMasterId = "ADA7F6FF-5955-4EF3-8FA7-BADC10F8EE4C";
layerId = "406C0831-8C9D-4D9E-BD5A-2E10C66B4065";
name = path;
paths = (
{
closed = 0;
nodes = (
"75 250 LINE",
"375 250 LINE"
);
},
{
closed = 0;
nodes = (
"75 500 LINE",
"225 500 LINE",
"225 250 LINE"
);
},
{
closed = 0;
nodes = (
"326 0 LINE",
"726 500 LINE"
);
},
{
closed = 0;
nodes = (
"675 250 LINE",
"975 250 LINE",
"975 125 LINE",
"675 125 LINE",
"675 0 LINE",
"975 0 LINE"
);
}
);
visible = 1;
width = 1050;
}
);
unicode = 00BD;
},
{
color = 5;
glyphname = onethird;
lastChange = "2019-01-16 09:26:24 +0000";
layers = (
{
layerId = "ADA7F6FF-5955-4EF3-8FA7-BADC10F8EE4C";
paths = (
{
closed = 1;
nodes = (
"340 -45 OFFCURVE",
"353 -38 OFFCURVE",
"361 -28 CURVE SMOOTH",
"761 472 LINE SMOOTH",
"767 479 OFFCURVE",
"771 489 OFFCURVE",
"771 500 CURVE SMOOTH",
"771 525 OFFCURVE",
"751 545 OFFCURVE",
"726 545 CURVE SMOOTH",
"712 545 OFFCURVE",
"699 538 OFFCURVE",
"691 528 CURVE SMOOTH",
"291 28 LINE SMOOTH",
"285 21 OFFCURVE",
"281 11 OFFCURVE",
"281 0 CURVE SMOOTH",
"281 -25 OFFCURVE",
"301 -45 OFFCURVE",
"326 -45 CURVE SMOOTH"
);
},
{
closed = 1;
nodes = (
"75 545 LINE SMOOTH",
"50 545 OFFCURVE",
"30 525 OFFCURVE",
"30 500 CURVE SMOOTH",
"30 475 OFFCURVE",
"50 455 OFFCURVE",
"75 455 CURVE SMOOTH",
"180 455 LINE",
"180 295 LINE",
"75 295 LINE SMOOTH",
"50 295 OFFCURVE",
"30 275 OFFCURVE",
"30 250 CURVE SMOOTH",
"30 225 OFFCURVE",
"50 205 OFFCURVE",
"75 205 CURVE SMOOTH",
"375 205 LINE SMOOTH",
"400 205 OFFCURVE",
"420 225 OFFCURVE",
"420 250 CURVE SMOOTH",
"420 275 OFFCURVE",
"400 295 OFFCURVE",
"375 295 CURVE SMOOTH",
"270 295 LINE",
"270 500 LINE SMOOTH",
"270 525 OFFCURVE",
"250 545 OFFCURVE",
"225 545 CURVE SMOOTH"
);
},
{
closed = 1;
nodes = (
"675 295 LINE SMOOTH",
"650 295 OFFCURVE",
"630 275 OFFCURVE",
"630 250 CURVE SMOOTH",
"630 225 OFFCURVE",
"650 205 OFFCURVE",
"675 205 CURVE SMOOTH",
"930 205 LINE",
"930 170 LINE",
"675 170 LINE SMOOTH",
"650 170 OFFCURVE",
"630 150 OFFCURVE",
"630 125 CURVE SMOOTH",
"630 100 OFFCURVE",
"650 80 OFFCURVE",
"675 80 CURVE SMOOTH",
"930 80 LINE",
"930 45 LINE",
"675 45 LINE SMOOTH",
"650 45 OFFCURVE",
"630 25 OFFCURVE",
"630 0 CURVE SMOOTH",
"630 -25 OFFCURVE",
"650 -45 OFFCURVE",
"675 -45 CURVE SMOOTH",
"975 -45 LINE SMOOTH",
"1000 -45 OFFCURVE",
"1020 -25 OFFCURVE",
"1020 0 CURVE SMOOTH",
"1020 250 LINE SMOOTH",
"1020 275 OFFCURVE",
"1000 295 OFFCURVE",
"975 295 CURVE SMOOTH"
);
}
);
width = 1050;
},
{
associatedMasterId = "ADA7F6FF-5955-4EF3-8FA7-BADC10F8EE4C";
layerId = "CCD0D9A0-07A3-4C64-88DF-0F0A71DECF0F";
name = "Nov 28 18, 17:39";
paths = (
{
closed = 0;
nodes = (
"75 250 LINE",
"375 250 LINE"
);
},
{
closed = 0;
nodes = (
"75 500 LINE",
"225 500 LINE",
"225 250 LINE"
);
},
{
closed = 0;
nodes = (
"326 0 LINE",
"726 500 LINE"
);
},
{
closed = 0;
nodes = (
"675 250 LINE",
"975 250 LINE",
"975 125 LINE",
"675 125 LINE"
);
},
{
closed = 0;
nodes = (
"675 0 LINE",
"975 0 LINE",
"975 125 LINE"
);
}
);
visible = 1;
width = 1050;
}
);
unicode = 2153;
},
{
color = 5;
glyphname = onequarter;
lastChange = "2019-01-16 09:27:23 +0000";
layers = (
{
layerId = "ADA7F6FF-5955-4EF3-8FA7-BADC10F8EE4C";
paths = (
{
closed = 1;
nodes = (
"340 -45 OFFCURVE",
"353 -38 OFFCURVE",
"361 -28 CURVE SMOOTH",
"761 472 LINE SMOOTH",
"767 479 OFFCURVE",
"771 489 OFFCURVE",
"771 500 CURVE SMOOTH",
"771 525 OFFCURVE",
"751 545 OFFCURVE",
"726 545 CURVE SMOOTH",
"712 545 OFFCURVE",
"699 538 OFFCURVE",
"691 528 CURVE SMOOTH",
"291 28 LINE SMOOTH",
"285 21 OFFCURVE",
"281 11 OFFCURVE",
"281 0 CURVE SMOOTH",
"281 -25 OFFCURVE",
"301 -45 OFFCURVE",
"326 -45 CURVE SMOOTH"
);
},
{
closed = 1;
nodes = (
"75 545 LINE SMOOTH",
"50 545 OFFCURVE",
"30 525 OFFCURVE",
"30 500 CURVE SMOOTH",
"30 475 OFFCURVE",
"50 455 OFFCURVE",
"75 455 CURVE SMOOTH",
"180 455 LINE",
"180 295 LINE",
"75 295 LINE SMOOTH",
"50 295 OFFCURVE",
"30 275 OFFCURVE",
"30 250 CURVE SMOOTH",
"30 225 OFFCURVE",
"50 205 OFFCURVE",
"75 205 CURVE SMOOTH",
"375 205 LINE SMOOTH",
"400 205 OFFCURVE",
"420 225 OFFCURVE",
"420 250 CURVE SMOOTH",
"420 275 OFFCURVE",
"400 295 OFFCURVE",
"375 295 CURVE SMOOTH",
"270 295 LINE",
"270 500 LINE SMOOTH",
"270 525 OFFCURVE",
"250 545 OFFCURVE",
"225 545 CURVE SMOOTH"
);
},
{
closed = 1;
nodes = (
"630 100 OFFCURVE",
"650 80 OFFCURVE",
"675 80 CURVE SMOOTH",
"930 80 LINE",
"930 0 LINE SMOOTH",
"930 -25 OFFCURVE",
"950 -45 OFFCURVE",
"975 -45 CURVE SMOOTH",
"1000 -45 OFFCURVE",
"1020 -25 OFFCURVE",
"1020 0 CURVE SMOOTH",
"1020 250 LINE SMOOTH",
"1020 275 OFFCURVE",
"1000 295 OFFCURVE",
"975 295 CURVE SMOOTH",
"950 295 OFFCURVE",
"930 275 OFFCURVE",
"930 250 CURVE SMOOTH",
"930 170 LINE",
"720 170 LINE",
"720 250 LINE SMOOTH",
"720 275 OFFCURVE",
"700 295 OFFCURVE",
"675 295 CURVE SMOOTH",
"650 295 OFFCURVE",
"630 275 OFFCURVE",
"630 250 CURVE SMOOTH",
"630 125 LINE SMOOTH"
);
}
);
width = 1050;
},
{
associatedMasterId = "ADA7F6FF-5955-4EF3-8FA7-BADC10F8EE4C";
layerId = "5C736C4D-5B34-46EF-8A8B-B247D6B3313B";
name = path;
paths = (
{
closed = 0;
nodes = (
"75 250 LINE",
"375 250 LINE"
);
},
{
closed = 0;
nodes = (
"75 500 LINE",
"225 500 LINE",
"225 250 LINE"
);
},
{
closed = 0;
nodes = (
"326 0 LINE",
"726 500 LINE"
);
},
{
closed = 0;
nodes = (
"975 125 LINE",
"675 125 LINE",
"675 250 LINE"
);
},
{
closed = 0;
nodes = (
"975 0 LINE",
"975 250 LINE"
);
}
);
visible = 1;
width = 1050;
}
);
unicode = 00BC;
},
{
color = 5;
glyphname = threequarters;
lastChange = "2019-01-16 09:28:47 +0000";
layers = (
{
layerId = "ADA7F6FF-5955-4EF3-8FA7-BADC10F8EE4C";
paths = (
{
closed = 1;
nodes = (
"340 -45 OFFCURVE",
"353 -38 OFFCURVE",
"361 -28 CURVE SMOOTH",
"761 472 LINE SMOOTH",
"767 479 OFFCURVE",
"771 489 OFFCURVE",
"771 500 CURVE SMOOTH",
"771 525 OFFCURVE",
"751 545 OFFCURVE",
"726 545 CURVE SMOOTH",
"712 545 OFFCURVE",
"699 538 OFFCURVE",
"691 528 CURVE SMOOTH",
"291 28 LINE SMOOTH",
"285 21 OFFCURVE",
"281 11 OFFCURVE",
"281 0 CURVE SMOOTH",
"281 -25 OFFCURVE",
"301 -45 OFFCURVE",
"326 -45 CURVE SMOOTH"
);
},
{
closed = 1;
nodes = (
"75 545 LINE SMOOTH",
"50 545 OFFCURVE",
"30 525 OFFCURVE",
"30 500 CURVE SMOOTH",
"30 475 OFFCURVE",
"50 455 OFFCURVE",
"75 455 CURVE SMOOTH",
"330 455 LINE",
"330 420 LINE",
"75 420 LINE SMOOTH",
"50 420 OFFCURVE",
"30 400 OFFCURVE",
"30 375 CURVE SMOOTH",
"30 350 OFFCURVE",
"50 330 OFFCURVE",
"75 330 CURVE SMOOTH",
"330 330 LINE",
"330 295 LINE",
"75 295 LINE SMOOTH",
"50 295 OFFCURVE",
"30 275 OFFCURVE",
"30 250 CURVE SMOOTH",
"30 225 OFFCURVE",
"50 205 OFFCURVE",
"75 205 CURVE SMOOTH",
"375 205 LINE SMOOTH",
"400 205 OFFCURVE",
"420 225 OFFCURVE",
"420 250 CURVE SMOOTH",
"420 500 LINE SMOOTH",
"420 525 OFFCURVE",
"400 545 OFFCURVE",
"375 545 CURVE SMOOTH"
);
},
{
closed = 1;
nodes = (
"630 100 OFFCURVE",
"650 80 OFFCURVE",
"675 80 CURVE SMOOTH",
"930 80 LINE",
"930 0 LINE SMOOTH",
"930 -25 OFFCURVE",
"950 -45 OFFCURVE",
"975 -45 CURVE SMOOTH",
"1000 -45 OFFCURVE",
"1020 -25 OFFCURVE",
"1020 0 CURVE SMOOTH",
"1020 250 LINE SMOOTH",
"1020 275 OFFCURVE",
"1000 295 OFFCURVE",
"975 295 CURVE SMOOTH",
"950 295 OFFCURVE",
"930 275 OFFCURVE",
"930 250 CURVE SMOOTH",
"930 170 LINE",
"720 170 LINE",
"720 250 LINE SMOOTH",
"720 275 OFFCURVE",
"700 295 OFFCURVE",
"675 295 CURVE SMOOTH",
"650 295 OFFCURVE",
"630 275 OFFCURVE",
"630 250 CURVE SMOOTH",
"630 125 LINE SMOOTH"
);
}
);
width = 1050;
},
{
associatedMasterId = "ADA7F6FF-5955-4EF3-8FA7-BADC10F8EE4C";
layerId = "DBAA0D56-896E-434F-822E-90257F449F06";
name = path;
paths = (
{
closed = 0;
nodes = (
"75 250 LINE",
"375 250 LINE",
"375 500 LINE",
"75 500 LINE"
);
},
{
closed = 0;
nodes = (
"326 0 LINE",
"726 500 LINE"
);
},
{
closed = 0;
nodes = (
"975 125 LINE",
"675 125 LINE",
"675 250 LINE"
);
},
{
closed = 0;
nodes = (
"975 0 LINE",
"975 250 LINE"
);
},
{
closed = 0;
nodes = (
"75 375 LINE",
"375 375 LINE"
);
}
);
visible = 1;
width = 1050;
}
);
unicode = 00BE;
},
{
color = 5;
glyphname = onefifth;
lastChange = "2019-01-16 09:30:59 +0000";
layers = (
{
layerId = "ADA7F6FF-5955-4EF3-8FA7-BADC10F8EE4C";
paths = (
{
closed = 1;
nodes = (
"340 -45 OFFCURVE",
"353 -38 OFFCURVE",
"361 -28 CURVE SMOOTH",
"761 472 LINE SMOOTH",
"767 479 OFFCURVE",
"771 489 OFFCURVE",
"771 500 CURVE SMOOTH",
"771 525 OFFCURVE",
"751 545 OFFCURVE",
"726 545 CURVE SMOOTH",
"712 545 OFFCURVE",
"699 538 OFFCURVE",
"691 528 CURVE SMOOTH",
"291 28 LINE SMOOTH",
"285 21 OFFCURVE",
"281 11 OFFCURVE",
"281 0 CURVE SMOOTH",
"281 -25 OFFCURVE",
"301 -45 OFFCURVE",
"326 -45 CURVE SMOOTH"
);
},
{
closed = 1;
nodes = (
"75 545 LINE SMOOTH",
"50 545 OFFCURVE",
"30 525 OFFCURVE",
"30 500 CURVE SMOOTH",
"30 475 OFFCURVE",
"50 455 OFFCURVE",
"75 455 CURVE SMOOTH",
"180 455 LINE",
"180 295 LINE",
"75 295 LINE SMOOTH",
"50 295 OFFCURVE",
"30 275 OFFCURVE",
"30 250 CURVE SMOOTH",
"30 225 OFFCURVE",
"50 205 OFFCURVE",
"75 205 CURVE SMOOTH",
"375 205 LINE SMOOTH",
"400 205 OFFCURVE",
"420 225 OFFCURVE",
"420 250 CURVE SMOOTH",
"420 275 OFFCURVE",
"400 295 OFFCURVE",
"375 295 CURVE SMOOTH",
"270 295 LINE",
"270 500 LINE SMOOTH",
"270 525 OFFCURVE",
"250 545 OFFCURVE",
"225 545 CURVE SMOOTH"
);
},
{
closed = 1;
nodes = (
"1020 125 LINE SMOOTH",
"1020 150 OFFCURVE",
"1000 170 OFFCURVE",
"975 170 CURVE SMOOTH",
"720 170 LINE",
"720 205 LINE",
"975 205 LINE SMOOTH",
"1000 205 OFFCURVE",
"1020 225 OFFCURVE",
"1020 250 CURVE SMOOTH",
"1020 275 OFFCURVE",
"1000 295 OFFCURVE",
"975 295 CURVE SMOOTH",
"675 295 LINE SMOOTH",
"650 295 OFFCURVE",
"630 275 OFFCURVE",
"630 250 CURVE SMOOTH",
"630 125 LINE SMOOTH",
"630 100 OFFCURVE",
"650 80 OFFCURVE",
"675 80 CURVE SMOOTH",
"930 80 LINE",
"930 45 LINE",
"675 45 LINE SMOOTH",
"650 45 OFFCURVE",
"630 25 OFFCURVE",
"630 0 CURVE SMOOTH",
"630 -25 OFFCURVE",
"650 -45 OFFCURVE",
"675 -45 CURVE SMOOTH",
"975 -45 LINE SMOOTH",
"1000 -45 OFFCURVE",
"1020 -25 OFFCURVE",
"1020 0 CURVE SMOOTH"
);
}
);
width = 1050;
},
{
associatedMasterId = "ADA7F6FF-5955-4EF3-8FA7-BADC10F8EE4C";
layerId = "44382FC3-A0CC-4295-B291-CF64F2004DD4";
name = path;
paths = (
{
closed = 0;
nodes = (
"75 250 LINE",
"375 250 LINE"
);
},
{
closed = 0;
nodes = (
"75 500 LINE",
"225 500 LINE",
"225 250 LINE"
);
},
{
closed = 0;
nodes = (
"326 0 LINE",
"726 500 LINE"
);
},
{
closed = 0;
nodes = (
"975 250 LINE",
"675 250 LINE",
"675 125 LINE",
"975 125 LINE",
"975 0 LINE",
"675 0 LINE"
);
}
);
visible = 1;
width = 1050;
}
);
unicode = 2155;
},
{
color = 5;
glyphname = onesixth;
lastChange = "2019-01-16 09:34:26 +0000";
layers = (
{
layerId = "ADA7F6FF-5955-4EF3-8FA7-BADC10F8EE4C";
paths = (
{
closed = 1;
nodes = (
"340 -45 OFFCURVE",
"353 -38 OFFCURVE",
"361 -28 CURVE SMOOTH",
"761 472 LINE SMOOTH",
"767 479 OFFCURVE",
"771 489 OFFCURVE",
"771 500 CURVE SMOOTH",
"771 525 OFFCURVE",
"751 545 OFFCURVE",
"726 545 CURVE SMOOTH",
"712 545 OFFCURVE",
"699 538 OFFCURVE",
"691 528 CURVE SMOOTH",
"291 28 LINE SMOOTH",
"285 21 OFFCURVE",
"281 11 OFFCURVE",
"281 0 CURVE SMOOTH",
"281 -25 OFFCURVE",
"301 -45 OFFCURVE",
"326 -45 CURVE SMOOTH"
);
},
{
closed = 1;
nodes = (
"75 545 LINE SMOOTH",
"50 545 OFFCURVE",
"30 525 OFFCURVE",
"30 500 CURVE SMOOTH",
"30 475 OFFCURVE",
"50 455 OFFCURVE",
"75 455 CURVE SMOOTH",
"180 455 LINE",
"180 295 LINE",
"75 295 LINE SMOOTH",
"50 295 OFFCURVE",
"30 275 OFFCURVE",
"30 250 CURVE SMOOTH",
"30 225 OFFCURVE",
"50 205 OFFCURVE",
"75 205 CURVE SMOOTH",
"375 205 LINE SMOOTH",
"400 205 OFFCURVE",
"420 225 OFFCURVE",
"420 250 CURVE SMOOTH",
"420 275 OFFCURVE",
"400 295 OFFCURVE",
"375 295 CURVE SMOOTH",
"270 295 LINE",
"270 500 LINE SMOOTH",
"270 525 OFFCURVE",
"250 545 OFFCURVE",
"225 545 CURVE SMOOTH"
);
},
{
closed = 1;
nodes = (
"720 80 LINE",
"930 80 LINE",
"930 45 LINE",
"720 45 LINE"
);
},
{
closed = 1;
nodes = (
"1020 125 LINE SMOOTH",
"1020 150 OFFCURVE",
"1000 170 OFFCURVE",
"975 170 CURVE SMOOTH",
"720 170 LINE",
"720 205 LINE",
"975 205 LINE SMOOTH",
"1000 205 OFFCURVE",
"1020 225 OFFCURVE",
"1020 250 CURVE SMOOTH",
"1020 275 OFFCURVE",
"1000 295 OFFCURVE",
"975 295 CURVE SMOOTH",
"675 295 LINE SMOOTH",
"650 295 OFFCURVE",
"630 275 OFFCURVE",
"630 250 CURVE SMOOTH",
"630 0 LINE SMOOTH",
"630 -25 OFFCURVE",
"650 -45 OFFCURVE",
"675 -45 CURVE SMOOTH",
"975 -45 LINE SMOOTH",
"1000 -45 OFFCURVE",
"1020 -25 OFFCURVE",
"1020 0 CURVE SMOOTH"
);
}
);
width = 1050;
},
{
associatedMasterId = "ADA7F6FF-5955-4EF3-8FA7-BADC10F8EE4C";
layerId = "F616D5A9-36BA-4365-A06E-1228C7E725BE";
name = path;
paths = (
{
closed = 0;
nodes = (
"75 250 LINE",
"375 250 LINE"
);
},
{
closed = 0;
nodes = (
"75 500 LINE",
"225 500 LINE",
"225 250 LINE"
);
},
{
closed = 0;
nodes = (
"326 0 LINE",
"726 500 LINE"
);
},
{
closed = 0;
nodes = (
"975 250 LINE",
"675 250 LINE",
"675 125 LINE",
"975 125 LINE",
"975 0 LINE",
"675 0 LINE",
"675 125 LINE"
);
}
);
visible = 1;
width = 1050;
}
);
unicode = 2159;
},
{
color = 5;
glyphname = oneseventh;
lastChange = "2019-01-16 15:05:56 +0000";
layers = (
{
layerId = "ADA7F6FF-5955-4EF3-8FA7-BADC10F8EE4C";
paths = (
{
closed = 1;
nodes = (
"340 -45 OFFCURVE",
"353 -38 OFFCURVE",
"361 -28 CURVE SMOOTH",
"761 472 LINE SMOOTH",
"767 479 OFFCURVE",
"771 489 OFFCURVE",
"771 500 CURVE SMOOTH",
"771 525 OFFCURVE",
"751 545 OFFCURVE",
"726 545 CURVE SMOOTH",
"712 545 OFFCURVE",
"699 538 OFFCURVE",
"691 528 CURVE SMOOTH",
"291 28 LINE SMOOTH",
"285 21 OFFCURVE",
"281 11 OFFCURVE",
"281 0 CURVE SMOOTH",
"281 -25 OFFCURVE",
"301 -45 OFFCURVE",
"326 -45 CURVE SMOOTH"
);
},
{
closed = 1;
nodes = (
"75 545 LINE SMOOTH",
"50 545 OFFCURVE",
"30 525 OFFCURVE",
"30 500 CURVE SMOOTH",
"30 475 OFFCURVE",
"50 455 OFFCURVE",
"75 455 CURVE SMOOTH",
"180 455 LINE",
"180 295 LINE",
"75 295 LINE SMOOTH",
"50 295 OFFCURVE",
"30 275 OFFCURVE",
"30 250 CURVE SMOOTH",
"30 225 OFFCURVE",
"50 205 OFFCURVE",
"75 205 CURVE SMOOTH",
"375 205 LINE SMOOTH",
"400 205 OFFCURVE",
"420 225 OFFCURVE",
"420 250 CURVE SMOOTH",
"420 275 OFFCURVE",
"400 295 OFFCURVE",
"375 295 CURVE SMOOTH",
"270 295 LINE",
"270 500 LINE SMOOTH",
"270 525 OFFCURVE",
"250 545 OFFCURVE",
"225 545 CURVE SMOOTH"
);
},
{
closed = 1;
nodes = (
"675 295 LINE SMOOTH",
"650 295 OFFCURVE",
"630 275 OFFCURVE",
"630 250 CURVE SMOOTH",
"630 225 OFFCURVE",
"650 205 OFFCURVE",
"675 205 CURVE SMOOTH",
"930 205 LINE",
"930 0 LINE SMOOTH",
"930 -25 OFFCURVE",
"950 -45 OFFCURVE",
"975 -45 CURVE SMOOTH",
"1000 -45 OFFCURVE",
"1020 -25 OFFCURVE",
"1020 0 CURVE SMOOTH",
"1020 250 LINE SMOOTH",
"1020 275 OFFCURVE",
"1000 295 OFFCURVE",
"975 295 CURVE SMOOTH"
);
}
);
width = 1050;
},
{
associatedMasterId = "ADA7F6FF-5955-4EF3-8FA7-BADC10F8EE4C";
layerId = "A11C0B09-9C4B-4916-8A97-41BB98831867";
name = path;
paths = (
{
closed = 0;
nodes = (
"75 250 LINE",
"375 250 LINE"
);
},
{
closed = 0;
nodes = (
"75 500 LINE",
"225 500 LINE",
"225 250 LINE"
);
},
{
closed = 0;
nodes = (
"326 0 LINE",
"726 500 LINE"
);
},
{
closed = 0;
nodes = (
"675 250 LINE",
"975 250 LINE",
"975 0 LINE"
);
}
);
visible = 1;
width = 1050;
}
);
unicode = 2150;
},
{
color = 5;
glyphname = oneeighth;
lastChange = "2019-01-16 09:37:25 +0000";
layers = (
{
layerId = "ADA7F6FF-5955-4EF3-8FA7-BADC10F8EE4C";
paths = (
{
closed = 1;
nodes = (
"340 -45 OFFCURVE",
"353 -38 OFFCURVE",
"361 -28 CURVE SMOOTH",
"761 472 LINE SMOOTH",
"767 479 OFFCURVE",
"771 489 OFFCURVE",
"771 500 CURVE SMOOTH",
"771 525 OFFCURVE",
"751 545 OFFCURVE",
"726 545 CURVE SMOOTH",
"712 545 OFFCURVE",
"699 538 OFFCURVE",
"691 528 CURVE SMOOTH",
"291 28 LINE SMOOTH",
"285 21 OFFCURVE",
"281 11 OFFCURVE",
"281 0 CURVE SMOOTH",
"281 -25 OFFCURVE",
"301 -45 OFFCURVE",
"326 -45 CURVE SMOOTH"
);
},
{
closed = 1;
nodes = (
"75 545 LINE SMOOTH",
"50 545 OFFCURVE",
"30 525 OFFCURVE",
"30 500 CURVE SMOOTH",
"30 475 OFFCURVE",
"50 455 OFFCURVE",
"75 455 CURVE SMOOTH",
"180 455 LINE",
"180 295 LINE",
"75 295 LINE SMOOTH",
"50 295 OFFCURVE",
"30 275 OFFCURVE",
"30 250 CURVE SMOOTH",
"30 225 OFFCURVE",
"50 205 OFFCURVE",
"75 205 CURVE SMOOTH",
"375 205 LINE SMOOTH",
"400 205 OFFCURVE",
"420 225 OFFCURVE",
"420 250 CURVE SMOOTH",
"420 275 OFFCURVE",
"400 295 OFFCURVE",
"375 295 CURVE SMOOTH",
"270 295 LINE",
"270 500 LINE SMOOTH",
"270 525 OFFCURVE",
"250 545 OFFCURVE",
"225 545 CURVE SMOOTH"
);
},
{
closed = 1;
nodes = (
"720 80 LINE",
"930 80 LINE",
"930 45 LINE",
"720 45 LINE"
);
},
{
closed = 1;
nodes = (
"720 205 LINE",
"930 205 LINE",
"930 170 LINE",
"720 170 LINE"
);
},
{
closed = 1;
nodes = (
"1020 250 LINE SMOOTH",
"1020 275 OFFCURVE",
"1000 295 OFFCURVE",
"975 295 CURVE SMOOTH",
"675 295 LINE SMOOTH",
"650 295 OFFCURVE",
"630 275 OFFCURVE",
"630 250 CURVE SMOOTH",
"630 0 LINE SMOOTH",
"630 -25 OFFCURVE",
"650 -45 OFFCURVE",
"675 -45 CURVE SMOOTH",
"975 -45 LINE SMOOTH",
"1000 -45 OFFCURVE",
"1020 -25 OFFCURVE",
"1020 0 CURVE SMOOTH"
);
}
);
width = 1050;
},
{
associatedMasterId = "ADA7F6FF-5955-4EF3-8FA7-BADC10F8EE4C";
layerId = "AA7974F3-9C26-4FAD-9F30-0CA8A41FBB65";
name = path;
paths = (
{
closed = 0;
nodes = (
"75 250 LINE",
"375 250 LINE"
);
},
{
closed = 0;
nodes = (
"75 500 LINE",
"225 500 LINE",
"225 250 LINE"
);
},
{
closed = 0;
nodes = (
"326 0 LINE",
"726 500 LINE"
);
},
{
closed = 1;
nodes = (
"975 250 LINE",
"975 0 LINE",
"675 0 LINE",
"675 250 LINE"
);
},
{
closed = 0;
nodes = (
"675 125 LINE",
"975 125 LINE"
);
}
);
visible = 1;
width = 1050;
}
);
unicode = 215B;
},
{
color = 5;
glyphname = oneninth;
lastChange = "2019-01-16 10:03:06 +0000";
layers = (
{
layerId = "ADA7F6FF-5955-4EF3-8FA7-BADC10F8EE4C";
paths = (
{
closed = 1;
nodes = (
"340 -45 OFFCURVE",
"353 -38 OFFCURVE",
"361 -28 CURVE SMOOTH",
"761 472 LINE SMOOTH",
"767 479 OFFCURVE",
"771 489 OFFCURVE",
"771 500 CURVE SMOOTH",
"771 525 OFFCURVE",
"751 545 OFFCURVE",
"726 545 CURVE SMOOTH",
"712 545 OFFCURVE",
"699 538 OFFCURVE",
"691 528 CURVE SMOOTH",
"291 28 LINE SMOOTH",
"285 21 OFFCURVE",
"281 11 OFFCURVE",
"281 0 CURVE SMOOTH",
"281 -25 OFFCURVE",
"301 -45 OFFCURVE",
"326 -45 CURVE SMOOTH"
);
},
{
closed = 1;
nodes = (
"75 545 LINE SMOOTH",
"50 545 OFFCURVE",
"30 525 OFFCURVE",
"30 500 CURVE SMOOTH",
"30 475 OFFCURVE",
"50 455 OFFCURVE",
"75 455 CURVE SMOOTH",
"180 455 LINE",
"180 295 LINE",
"75 295 LINE SMOOTH",
"50 295 OFFCURVE",
"30 275 OFFCURVE",
"30 250 CURVE SMOOTH",
"30 225 OFFCURVE",
"50 205 OFFCURVE",
"75 205 CURVE SMOOTH",
"375 205 LINE SMOOTH",
"400 205 OFFCURVE",
"420 225 OFFCURVE",
"420 250 CURVE SMOOTH",
"420 275 OFFCURVE",
"400 295 OFFCURVE",
"375 295 CURVE SMOOTH",
"270 295 LINE",
"270 500 LINE SMOOTH",
"270 525 OFFCURVE",
"250 545 OFFCURVE",
"225 545 CURVE SMOOTH"
);
},
{
closed = 1;
nodes = (
"720 205 LINE",
"930 205 LINE",
"930 170 LINE",
"720 170 LINE"
);
},
{
closed = 1;
nodes = (
"1020 250 LINE SMOOTH",
"1020 275 OFFCURVE",
"1000 295 OFFCURVE",
"975 295 CURVE SMOOTH",
"675 295 LINE SMOOTH",
"650 295 OFFCURVE",
"630 275 OFFCURVE",
"630 250 CURVE SMOOTH",
"630 125 LINE SMOOTH",
"630 100 OFFCURVE",
"650 80 OFFCURVE",
"675 80 CURVE SMOOTH",
"930 80 LINE",
"930 45 LINE",
"675 45 LINE SMOOTH",
"650 45 OFFCURVE",
"630 25 OFFCURVE",
"630 0 CURVE SMOOTH",
"630 -25 OFFCURVE",
"650 -45 OFFCURVE",
"675 -45 CURVE SMOOTH",
"975 -45 LINE SMOOTH",
"1000 -45 OFFCURVE",
"1020 -25 OFFCURVE",
"1020 0 CURVE SMOOTH"
);
}
);
width = 1050;
},
{
associatedMasterId = "ADA7F6FF-5955-4EF3-8FA7-BADC10F8EE4C";
layerId = "4AE943B7-18A1-4D3C-91A7-E6D0828998DE";
name = path;
paths = (
{
closed = 0;
nodes = (
"75 250 LINE",
"375 250 LINE"
);
},
{
closed = 0;
nodes = (
"75 500 LINE",
"225 500 LINE",
"225 250 LINE"
);
},
{
closed = 0;
nodes = (
"326 0 LINE",
"726 500 LINE"
);
},
{
closed = 0;
nodes = (
"675 0 LINE",
"975 0 LINE",
"975 125 LINE",
"675 125 LINE",
"675 250 LINE",
"975 250 LINE",
"975 125 LINE"
);
}
);
visible = 1;
width = 1050;
}
);
unicode = 2151;
},
{
color = 5;
glyphname = onetenth;
lastChange = "2019-01-16 10:05:57 +0000";
layers = (
{
layerId = "ADA7F6FF-5955-4EF3-8FA7-BADC10F8EE4C";
paths = (
{
closed = 1;
nodes = (
"340 -45 OFFCURVE",
"353 -38 OFFCURVE",
"361 -28 CURVE SMOOTH",
"761 472 LINE SMOOTH",
"767 479 OFFCURVE",
"771 489 OFFCURVE",
"771 500 CURVE SMOOTH",
"771 525 OFFCURVE",
"751 545 OFFCURVE",
"726 545 CURVE SMOOTH",
"712 545 OFFCURVE",
"699 538 OFFCURVE",
"691 528 CURVE SMOOTH",
"291 28 LINE SMOOTH",
"285 21 OFFCURVE",
"281 11 OFFCURVE",
"281 0 CURVE SMOOTH",
"281 -25 OFFCURVE",
"301 -45 OFFCURVE",
"326 -45 CURVE SMOOTH"
);
},
{
closed = 1;
nodes = (
"675 295 LINE SMOOTH",
"650 295 OFFCURVE",
"630 275 OFFCURVE",
"630 250 CURVE SMOOTH",
"630 225 OFFCURVE",
"650 205 OFFCURVE",
"675 205 CURVE SMOOTH",
"780 205 LINE",
"780 45 LINE",
"675 45 LINE SMOOTH",
"650 45 OFFCURVE",
"630 25 OFFCURVE",
"630 0 CURVE SMOOTH",
"630 -25 OFFCURVE",
"650 -45 OFFCURVE",
"675 -45 CURVE SMOOTH",
"975 -45 LINE SMOOTH",
"1000 -45 OFFCURVE",
"1020 -25 OFFCURVE",
"1020 0 CURVE SMOOTH",
"1020 25 OFFCURVE",
"1000 45 OFFCURVE",
"975 45 CURVE SMOOTH",
"870 45 LINE",
"870 250 LINE SMOOTH",
"870 275 OFFCURVE",
"850 295 OFFCURVE",
"825 295 CURVE SMOOTH"
);
},
{
closed = 1;
nodes = (
"1130 205 LINE",
"1340 205 LINE",
"1340 45 LINE",
"1130 45 LINE"
);
},
{
closed = 1;
nodes = (
"270 525 OFFCURVE",
"250 545 OFFCURVE",
"225 545 CURVE SMOOTH",
"75 545 LINE SMOOTH",
"50 545 OFFCURVE",
"30 525 OFFCURVE",
"30 500 CURVE SMOOTH",
"30 475 OFFCURVE",
"50 455 OFFCURVE",
"75 455 CURVE SMOOTH",
"180 455 LINE",
"180 295 LINE",
"75 295 LINE SMOOTH",
"50 295 OFFCURVE",
"30 275 OFFCURVE",
"30 250 CURVE SMOOTH",
"30 225 OFFCURVE",
"50 205 OFFCURVE",
"75 205 CURVE SMOOTH",
"375 205 LINE SMOOTH",
"400 205 OFFCURVE",
"420 225 OFFCURVE",
"420 250 CURVE SMOOTH",
"420 275 OFFCURVE",
"400 295 OFFCURVE",
"375 295 CURVE SMOOTH",
"270 295 LINE",
"270 500 LINE SMOOTH"
);
},
{
closed = 1;
nodes = (
"1430 250 LINE SMOOTH",
"1430 275 OFFCURVE",
"1410 295 OFFCURVE",
"1385 295 CURVE SMOOTH",
"1085 295 LINE SMOOTH",
"1060 295 OFFCURVE",
"1040 275 OFFCURVE",
"1040 250 CURVE SMOOTH",
"1040 0 LINE SMOOTH",
"1040 -25 OFFCURVE",
"1060 -45 OFFCURVE",
"1085 -45 CURVE SMOOTH",
"1385 -45 LINE SMOOTH",
"1410 -45 OFFCURVE",
"1430 -25 OFFCURVE",
"1430 0 CURVE SMOOTH"
);
}
);
width = 1460;
},
{
associatedMasterId = "ADA7F6FF-5955-4EF3-8FA7-BADC10F8EE4C";
layerId = "BF2EE11C-1411-4ACA-B464-2B9B2C072950";
name = path;
paths = (
{
closed = 0;
nodes = (
"75 250 LINE",
"375 250 LINE"
);
},
{
closed = 0;
nodes = (
"75 500 LINE",
"225 500 LINE",
"225 250 LINE"
);
},
{
closed = 0;
nodes = (
"326 0 LINE",
"726 500 LINE"
);
},
{
closed = 1;
nodes = (
"1425 250 LINE",
"1425 0 LINE",
"1125 0 LINE",
"1125 250 LINE"
);
},
{
closed = 0;
nodes = (
"675 0 LINE",
"975 0 LINE"
);
},
{
closed = 0;
nodes = (
"675 250 LINE",
"825 250 LINE",
"825 0 LINE"
);
}
);
visible = 1;
width = 1500;
}
);
unicode = 2152;
},
{
color = 5;
glyphname = asterisk;
lastChange = "2019-01-16 09:32:06 +0000";
layers = (
{
layerId = "ADA7F6FF-5955-4EF3-8FA7-BADC10F8EE4C";
paths = (
{
closed = 1;
nodes = (
"156 309 OFFCURVE",
"170 317 OFFCURVE",
"178 328 CURVE SMOOTH",
"247 423 LINE",
"316 328 LINE SMOOTH",
"324 317 OFFCURVE",
"338 309 OFFCURVE",
"353 309 CURVE SMOOTH",
"378 309 OFFCURVE",
"398 329 OFFCURVE",
"398 354 CURVE SMOOTH",
"398 364 OFFCURVE",
"395 373 OFFCURVE",
"389 381 CURVE SMOOTH",
"320 476 LINE",
"432 513 LINE SMOOTH",
"450 518 OFFCURVE",
"464 536 OFFCURVE",
"464 556 CURVE SMOOTH",
"464 581 OFFCURVE",
"444 601 OFFCURVE",
"419 601 CURVE SMOOTH",
"414 601 OFFCURVE",
"409 600 OFFCURVE",
"404 598 CURVE SMOOTH",
"292 562 LINE",
"292 680 LINE SMOOTH",
"292 705 OFFCURVE",
"272 725 OFFCURVE",
"247 725 CURVE SMOOTH",
"222 725 OFFCURVE",
"202 705 OFFCURVE",
"202 680 CURVE SMOOTH",
"202 562 LINE",
"90 598 LINE SMOOTH",
"85 600 OFFCURVE",
"80 601 OFFCURVE",
"75 601 CURVE SMOOTH",
"50 601 OFFCURVE",
"30 581 OFFCURVE",
"30 556 CURVE SMOOTH",
"30 536 OFFCURVE",
"44 518 OFFCURVE",
"62 513 CURVE SMOOTH",
"174 476 LINE",
"105 381 LINE SMOOTH",
"99 373 OFFCURVE",
"96 364 OFFCURVE",
"96 354 CURVE SMOOTH",
"96 329 OFFCURVE",
"116 309 OFFCURVE",
"141 309 CURVE SMOOTH"
);
}
);
width = 494;
},
{
associatedMasterId = "ADA7F6FF-5955-4EF3-8FA7-BADC10F8EE4C";
layerId = "1EFEC963-E54A-456D-BF4B-0395037464ED";
name = path;
paths = (
{
closed = 0;
nodes = (
"247 680 LINE"
);
},
{
closed = 0;
nodes = (
"419 556 LINE",
"247 500 LINE",
"353 354 LINE"
);
},
{
closed = 0;
nodes = (
"75 556 LINE",
"247 500 LINE",
"141 354 LINE"
);
},
{
closed = 0;
nodes = (
"247 500 LINE",
"247 680 LINE"
);
}
);
visible = 1;
width = 494;
}
);
unicode = 002A;
},
{
color = 5;
glyphname = backslash;
lastChange = "2019-01-16 09:32:25 +0000";
layers = (
{
layerId = "ADA7F6FF-5955-4EF3-8FA7-BADC10F8EE4C";
paths = (
{
closed = 1;
nodes = (
"550 -45 OFFCURVE",
"570 -25 OFFCURVE",
"570 0 CURVE SMOOTH",
"570 9 OFFCURVE",
"567 18 OFFCURVE",
"562 25 CURVE SMOOTH",
"113 704 LINE SMOOTH",
"105 717 OFFCURVE",
"91 725 OFFCURVE",
"75 725 CURVE SMOOTH",
"50 725 OFFCURVE",
"30 705 OFFCURVE",
"30 680 CURVE SMOOTH",
"30 671 OFFCURVE",
"33 662 OFFCURVE",
"38 655 CURVE SMOOTH",
"487 -24 LINE SMOOTH",
"495 -37 OFFCURVE",
"509 -45 OFFCURVE",
"525 -45 CURVE SMOOTH"
);
}
);
width = 600;
},
{
associatedMasterId = "ADA7F6FF-5955-4EF3-8FA7-BADC10F8EE4C";
layerId = "17EE935D-4B0F-4AB1-B879-26390F3E7825";
name = path;
paths = (
{
closed = 0;
nodes = (
"525 0 LINE",
"75 680 LINE"
);
}
);
visible = 1;
width = 600;
}
);
unicode = 005C;
},
{
color = 5;
glyphname = periodcentered;
lastChange = "2019-01-14 19:04:31 +0000";
layers = (
{
layerId = "ADA7F6FF-5955-4EF3-8FA7-BADC10F8EE4C";
paths = (
{
closed = 1;
nodes = (
"280 320 OFFCURVE",
"224 375 OFFCURVE",
"155 375 CURVE SMOOTH",
"85 375 OFFCURVE",
"30 320 OFFCURVE",
"30 250 CURVE SMOOTH",
"30 181 OFFCURVE",
"85 125 OFFCURVE",
"155 125 CURVE SMOOTH",
"224 125 OFFCURVE",
"280 181 OFFCURVE",
"280 250 CURVE SMOOTH"
);
}
);
width = 310;
}
);
unicode = 00B7;
},
{
color = 5;
glyphname = bullet;
lastChange = "2019-01-14 19:04:31 +0000";
layers = (
{
layerId = "ADA7F6FF-5955-4EF3-8FA7-BADC10F8EE4C";
paths = (
{
closed = 1;
nodes = (
"30 373 OFFCURVE",
"50 393 OFFCURVE",
"75 393 CURVE SMOOTH",
"270 393 LINE",
"295 393 OFFCURVE",
"315 373 OFFCURVE",
"315 348 CURVE SMOOTH",
"315 153 LINE",
"315 128 OFFCURVE",
"295 108 OFFCURVE",
"270 108 CURVE",
"75 108 LINE SMOOTH",
"50 108 OFFCURVE",
"30 128 OFFCURVE",
"30 153 CURVE SMOOTH",
"30 348 LINE"
);
}
);
width = 345;
}
);
unicode = 2022;
},
{
color = 5;
glyphname = colon;
lastChange = "2019-01-14 19:04:49 +0000";
layers = (
{
layerId = "ADA7F6FF-5955-4EF3-8FA7-BADC10F8EE4C";
paths = (
{
closed = 1;
nodes = (
"30 398 OFFCURVE",
"50 378 OFFCURVE",
"75 378 CURVE SMOOTH",
"100 378 OFFCURVE",
"120 398 OFFCURVE",
"120 423 CURVE SMOOTH",
"120 448 OFFCURVE",
"100 468 OFFCURVE",
"75 468 CURVE SMOOTH",
"50 468 OFFCURVE",
"30 448 OFFCURVE",
"30 423 CURVE SMOOTH"
);
},
{
closed = 1;
nodes = (
"120 98 OFFCURVE",
"100 118 OFFCURVE",
"75 118 CURVE SMOOTH",
"50 118 OFFCURVE",
"30 98 OFFCURVE",
"30 73 CURVE SMOOTH",
"30 48 OFFCURVE",
"50 28 OFFCURVE",
"75 28 CURVE SMOOTH",
"100 28 OFFCURVE",
"120 48 OFFCURVE",
"120 73 CURVE SMOOTH"
);
}
);
width = 150;
}
);
unicode = 003A;
},
{
color = 5;
glyphname = comma;
lastChange = "2019-01-16 10:29:39 +0000";
layers = (
{
layerId = "ADA7F6FF-5955-4EF3-8FA7-BADC10F8EE4C";
paths = (
{
closed = 1;
nodes = (
"97 -145 OFFCURVE",
"115 -130 OFFCURVE",
"119 -109 CURVE SMOOTH",
"159 62 LINE SMOOTH",
"160 65 OFFCURVE",
"160 69 OFFCURVE",
"160 73 CURVE SMOOTH",
"160 98 OFFCURVE",
"140 118 OFFCURVE",
"115 118 CURVE SMOOTH",
"93 118 OFFCURVE",
"75 103 OFFCURVE",
"71 82 CURVE SMOOTH",
"31 -89 LINE SMOOTH",
"30 -92 OFFCURVE",
"30 -96 OFFCURVE",
"30 -100 CURVE SMOOTH",
"30 -125 OFFCURVE",
"50 -145 OFFCURVE",
"75 -145 CURVE SMOOTH"
);
}
);
width = 190;
},
{
associatedMasterId = "ADA7F6FF-5955-4EF3-8FA7-BADC10F8EE4C";
layerId = "E757D22E-0272-4DA7-ABCD-4A47D7D9FC41";
name = path;
paths = (
{
closed = 0;
nodes = (
"115 73 LINE",
"75 -100 LINE"
);
}
);
visible = 1;
width = 190;
}
);
unicode = 002C;
},
{
color = 5;
glyphname = ellipsis;
lastChange = "2019-01-14 19:04:52 +0000";
layers = (
{
layerId = "ADA7F6FF-5955-4EF3-8FA7-BADC10F8EE4C";
paths = (
{
closed = 1;
nodes = (
"120 25 OFFCURVE",
"100 45 OFFCURVE",
"75 45 CURVE SMOOTH",
"50 45 OFFCURVE",
"30 25 OFFCURVE",
"30 0 CURVE SMOOTH",
"30 -25 OFFCURVE",
"50 -45 OFFCURVE",
"75 -45 CURVE SMOOTH",
"100 -45 OFFCURVE",
"120 -25 OFFCURVE",
"120 0 CURVE SMOOTH"
);
},
{
closed = 1;
nodes = (
"390 25 OFFCURVE",
"370 45 OFFCURVE",
"345 45 CURVE SMOOTH",
"320 45 OFFCURVE",
"300 25 OFFCURVE",
"300 0 CURVE SMOOTH",
"300 -25 OFFCURVE",
"320 -45 OFFCURVE",
"345 -45 CURVE SMOOTH",
"370 -45 OFFCURVE",
"390 -25 OFFCURVE",
"390 0 CURVE SMOOTH"
);
},
{
closed = 1;
nodes = (
"660 25 OFFCURVE",
"640 45 OFFCURVE",
"615 45 CURVE SMOOTH",
"590 45 OFFCURVE",
"570 25 OFFCURVE",
"570 0 CURVE SMOOTH",
"570 -25 OFFCURVE",
"590 -45 OFFCURVE",
"615 -45 CURVE SMOOTH",
"640 -45 OFFCURVE",
"660 -25 OFFCURVE",
"660 0 CURVE SMOOTH"
);
}
);
width = 690;
}
);
unicode = 2026;
},
{
color = 5;
glyphname = exclam;
lastChange = "2019-01-14 19:04:57 +0000";
layers = (
{
layerId = "ADA7F6FF-5955-4EF3-8FA7-BADC10F8EE4C";
paths = (
{
closed = 1;
nodes = (
"100 135 OFFCURVE",
"120 155 OFFCURVE",
"120 180 CURVE SMOOTH",
"120 500 LINE SMOOTH",
"120 525 OFFCURVE",
"100 545 OFFCURVE",
"75 545 CURVE SMOOTH",
"50 545 OFFCURVE",
"30 525 OFFCURVE",
"30 500 CURVE SMOOTH",
"30 180 LINE SMOOTH",
"30 155 OFFCURVE",
"50 135 OFFCURVE",
"75 135 CURVE SMOOTH"
);
},
{
closed = 1;
nodes = (
"120 25 OFFCURVE",
"100 45 OFFCURVE",
"75 45 CURVE SMOOTH",
"50 45 OFFCURVE",
"30 25 OFFCURVE",
"30 0 CURVE SMOOTH",
"30 -25 OFFCURVE",
"50 -45 OFFCURVE",
"75 -45 CURVE SMOOTH",
"100 -45 OFFCURVE",
"120 -25 OFFCURVE",
"120 0 CURVE SMOOTH"
);
}
);
width = 150;
}
);
unicode = 0021;
},
{
color = 5;
glyphname = exclamdown;
lastChange = "2019-01-14 19:04:57 +0000";
layers = (
{
layerId = "ADA7F6FF-5955-4EF3-8FA7-BADC10F8EE4C";
paths = (
{
closed = 1;
nodes = (
"50 395 OFFCURVE",
"30 375 OFFCURVE",
"30 350 CURVE SMOOTH",
"30 0 LINE SMOOTH",
"30 -25 OFFCURVE",
"50 -45 OFFCURVE",
"75 -45 CURVE SMOOTH",
"100 -45 OFFCURVE",
"120 -25 OFFCURVE",
"120 0 CURVE SMOOTH",
"120 350 LINE SMOOTH",
"120 375 OFFCURVE",
"100 395 OFFCURVE",
"75 395 CURVE SMOOTH"
);
},
{
closed = 1;
nodes = (
"30 475 OFFCURVE",
"50 455 OFFCURVE",
"75 455 CURVE SMOOTH",
"100 455 OFFCURVE",
"120 475 OFFCURVE",
"120 500 CURVE SMOOTH",
"120 525 OFFCURVE",
"100 545 OFFCURVE",
"75 545 CURVE SMOOTH",
"50 545 OFFCURVE",
"30 525 OFFCURVE",
"30 500 CURVE SMOOTH"
);
}
);
width = 150;
}
);
unicode = 00A1;
},
{
color = 5;
glyphname = interrobang;
lastChange = "2019-01-16 10:06:36 +0000";
layers = (
{
layerId = "ADA7F6FF-5955-4EF3-8FA7-BADC10F8EE4C";
paths = (
{
closed = 1;
nodes = (
"120 25 OFFCURVE",
"100 45 OFFCURVE",
"75 45 CURVE SMOOTH",
"50 45 OFFCURVE",
"30 25 OFFCURVE",
"30 0 CURVE SMOOTH",
"30 -25 OFFCURVE",
"50 -45 OFFCURVE",
"75 -45 CURVE SMOOTH",
"100 -45 OFFCURVE",
"120 -25 OFFCURVE",
"120 0 CURVE SMOOTH"
);
},
{
closed = 1;
nodes = (
"75 545 LINE SMOOTH",
"50 545 OFFCURVE",
"30 525 OFFCURVE",
"30 500 CURVE SMOOTH",
"30 475 OFFCURVE",
"50 455 OFFCURVE",
"75 455 CURVE SMOOTH",
"480 455 LINE",
"480 225 LINE",
"120 225 LINE",
"120 320 LINE SMOOTH",
"120 345 OFFCURVE",
"100 365 OFFCURVE",
"75 365 CURVE SMOOTH",
"50 365 OFFCURVE",
"30 345 OFFCURVE",
"30 320 CURVE SMOOTH",
"30 180 LINE SMOOTH",
"30 155 OFFCURVE",
"50 135 OFFCURVE",
"75 135 CURVE SMOOTH",
"525 135 LINE SMOOTH",
"550 135 OFFCURVE",
"570 155 OFFCURVE",
"570 180 CURVE SMOOTH",
"570 500 LINE SMOOTH",
"570 525 OFFCURVE",
"550 545 OFFCURVE",
"525 545 CURVE SMOOTH"
);
}
);
width = 600;
},
{
associatedMasterId = "ADA7F6FF-5955-4EF3-8FA7-BADC10F8EE4C";
layerId = "DB339389-1D94-4588-B865-AC1A33B98928";
name = path;
paths = (
{
closed = 0;
nodes = (
"50 250 LINE",
"50 110 LINE",
"500 110 LINE",
"500 500 LINE",
"50 500 LINE"
);
}
);
visible = 1;
width = 600;
}
);
unicode = 203D;
},
{
color = 5;
glyphname = numbersign;
lastChange = "2019-01-14 19:06:52 +0000";
layers = (
{
layerId = "ADA7F6FF-5955-4EF3-8FA7-BADC10F8EE4C";
paths = (
{
closed = 1;
nodes = (
"222 -45 OFFCURVE",
"242 -25 OFFCURVE",
"242 0 CURVE",
"242 45 LINE",
"472 45 LINE",
"472 0 LINE SMOOTH",
"472 -25 OFFCURVE",
"492 -45 OFFCURVE",
"517 -45 CURVE SMOOTH",
"542 -45 OFFCURVE",
"562 -25 OFFCURVE",
"562 0 CURVE",
"562 45 LINE",
"625 45 LINE SMOOTH",
"650 45 OFFCURVE",
"670 65 OFFCURVE",
"670 90 CURVE SMOOTH",
"670 115 OFFCURVE",
"650 135 OFFCURVE",
"625 135 CURVE SMOOTH",
"561 135 LINE",
"671 365 LINE",
"735 365 LINE SMOOTH",
"760 365 OFFCURVE",
"780 385 OFFCURVE",
"780 410 CURVE SMOOTH",
"780 435 OFFCURVE",
"760 455 OFFCURVE",
"735 455 CURVE SMOOTH",
"670 455 LINE",
"670 500 LINE SMOOTH",
"670 525 OFFCURVE",
"650 545 OFFCURVE",
"625 545 CURVE SMOOTH",
"600 545 OFFCURVE",
"580 525 OFFCURVE",
"580 500 CURVE SMOOTH",
"580 455 LINE",
"350 455 LINE",
"350 500 LINE SMOOTH",
"350 525 OFFCURVE",
"330 545 OFFCURVE",
"305 545 CURVE SMOOTH",
"280 545 OFFCURVE",
"260 525 OFFCURVE",
"260 500 CURVE SMOOTH",
"260 455 LINE",
"185 455 LINE SMOOTH",
"160 455 OFFCURVE",
"140 435 OFFCURVE",
"140 410 CURVE SMOOTH",
"140 385 OFFCURVE",
"160 365 OFFCURVE",
"185 365 CURVE SMOOTH",
"261 365 LINE",
"151 135 LINE",
"75 135 LINE SMOOTH",
"50 135 OFFCURVE",
"30 115 OFFCURVE",
"30 90 CURVE SMOOTH",
"30 65 OFFCURVE",
"50 45 OFFCURVE",
"75 45 CURVE SMOOTH",
"152 45 LINE",
"152 0 LINE SMOOTH",
"152 -25 OFFCURVE",
"172 -45 OFFCURVE",
"197 -45 CURVE SMOOTH"
);
},
{
closed = 1;
nodes = (
"351 365 LINE",
"581 365 LINE",
"471 135 LINE",
"241 135 LINE"
);
}
);
width = 810;
},
{
associatedMasterId = "ADA7F6FF-5955-4EF3-8FA7-BADC10F8EE4C";
layerId = "88783A0A-DE5A-4CDB-87C6-8BDDA54E6ABC";
name = "Nov 26 18, 13:52";
paths = (
{
closed = 0;
nodes = (
"325 500 LINE",
"327 0 LINE"
);
},
{
closed = 0;
nodes = (
"675 500 LINE",
"677 0 LINE"
);
},
{
closed = 0;
nodes = (
"50 98 LINE",
"950 98 LINE"
);
},
{
closed = 0;
nodes = (
"950 402 LINE",
"50 402 LINE"
);
}
);
width = 600;
},
{
associatedMasterId = "ADA7F6FF-5955-4EF3-8FA7-BADC10F8EE4C";
layerId = "12F45844-6559-436F-A9C9-80B8625AF035";
name = "Nov 26 18, 13:54";
paths = (
{
closed = 0;
nodes = (
"284 500 LINE",
"286 0 LINE"
);
},
{
closed = 0;
nodes = (
"715 500 LINE",
"717 0 LINE"
);
},
{
closed = 0;
nodes = (
"50 98 LINE",
"950 98 LINE"
);
},
{
closed = 0;
nodes = (
"950 402 LINE",
"50 402 LINE"
);
}
);
width = 600;
},
{
associatedMasterId = "ADA7F6FF-5955-4EF3-8FA7-BADC10F8EE4C";
layerId = "85FCE2C0-D8D8-414A-9DAA-8BC0B18BEFC6";
name = "Nov 26 18, 13:52";
paths = (
{
closed = 0;
nodes = (
"325 500 LINE",
"327 0 LINE"
);
},
{
closed = 0;
nodes = (
"675 500 LINE",
"677 0 LINE"
);
},
{
closed = 0;
nodes = (
"50 98 LINE",
"950 98 LINE"
);
},
{
closed = 0;
nodes = (
"950 402 LINE",
"50 402 LINE"
);
}
);
width = 600;
},
{
associatedMasterId = "ADA7F6FF-5955-4EF3-8FA7-BADC10F8EE4C";
layerId = "55C929E7-AC97-4A64-BC7D-7CD93992BDAE";
name = "Nov 26 18, 13:54";
paths = (
{
closed = 0;
nodes = (
"284 500 LINE",
"286 0 LINE"
);
},
{
closed = 0;
nodes = (
"715 500 LINE",
"717 0 LINE"
);
},
{
closed = 0;
nodes = (
"50 98 LINE",
"950 98 LINE"
);
},
{
closed = 0;
nodes = (
"950 402 LINE",
"50 402 LINE"
);
}
);
width = 600;
}
);
unicode = 0023;
},
{
color = 5;
glyphname = period;
lastChange = "2019-01-14 19:06:42 +0000";
layers = (
{
layerId = "ADA7F6FF-5955-4EF3-8FA7-BADC10F8EE4C";
paths = (
{
closed = 1;
nodes = (
"120 25 OFFCURVE",
"100 45 OFFCURVE",
"75 45 CURVE SMOOTH",
"50 45 OFFCURVE",
"30 25 OFFCURVE",
"30 0 CURVE SMOOTH",
"30 -25 OFFCURVE",
"50 -45 OFFCURVE",
"75 -45 CURVE SMOOTH",
"100 -45 OFFCURVE",
"120 -25 OFFCURVE",
"120 0 CURVE SMOOTH"
);
},
{
closed = 1;
nodes = (
"120 25 OFFCURVE",
"100 45 OFFCURVE",
"75 45 CURVE SMOOTH",
"50 45 OFFCURVE",
"30 25 OFFCURVE",
"30 0 CURVE SMOOTH",
"30 -25 OFFCURVE",
"50 -45 OFFCURVE",
"75 -45 CURVE SMOOTH",
"100 -45 OFFCURVE",
"120 -25 OFFCURVE",
"120 0 CURVE SMOOTH"
);
}
);
width = 150;
}
);
unicode = 002E;
},
{
color = 5;
glyphname = question;
lastChange = "2019-01-16 10:07:34 +0000";
layers = (
{
layerId = "ADA7F6FF-5955-4EF3-8FA7-BADC10F8EE4C";
paths = (
{
closed = 1;
nodes = (
"570 25 OFFCURVE",
"550 45 OFFCURVE",
"525 45 CURVE SMOOTH",
"500 45 OFFCURVE",
"480 25 OFFCURVE",
"480 0 CURVE SMOOTH",
"480 -25 OFFCURVE",
"500 -45 OFFCURVE",
"525 -45 CURVE SMOOTH",
"550 -45 OFFCURVE",
"570 -25 OFFCURVE",
"570 0 CURVE SMOOTH"
);
},
{
closed = 1;
nodes = (
"75 545 LINE SMOOTH",
"50 545 OFFCURVE",
"30 525 OFFCURVE",
"30 500 CURVE SMOOTH",
"30 475 OFFCURVE",
"50 455 OFFCURVE",
"75 455 CURVE SMOOTH",
"480 455 LINE",
"480 180 LINE SMOOTH",
"480 155 OFFCURVE",
"500 135 OFFCURVE",
"525 135 CURVE SMOOTH",
"550 135 OFFCURVE",
"570 155 OFFCURVE",
"570 180 CURVE SMOOTH",
"570 500 LINE SMOOTH",
"570 525 OFFCURVE",
"550 545 OFFCURVE",
"525 545 CURVE SMOOTH"
);
}
);
width = 600;
},
{
associatedMasterId = "ADA7F6FF-5955-4EF3-8FA7-BADC10F8EE4C";
layerId = "E74A3781-5B44-48CF-919A-A27A7F0F7307";
name = path;
paths = (
{
closed = 0;
nodes = (
"75 500 LINE",
"525 500 LINE",
"525 180 LINE"
);
}
);
visible = 1;
width = 600;
}
);
unicode = 003F;
},
{
color = 5;
glyphname = questiondown;
lastChange = "2019-01-16 10:08:23 +0000";
layers = (
{
layerId = "ADA7F6FF-5955-4EF3-8FA7-BADC10F8EE4C";
paths = (
{
closed = 1;
nodes = (
"30 475 OFFCURVE",
"50 455 OFFCURVE",
"75 455 CURVE SMOOTH",
"100 455 OFFCURVE",
"120 475 OFFCURVE",
"120 500 CURVE SMOOTH",
"120 525 OFFCURVE",
"100 545 OFFCURVE",
"75 545 CURVE SMOOTH",
"50 545 OFFCURVE",
"30 525 OFFCURVE",
"30 500 CURVE SMOOTH"
);
},
{
closed = 1;
nodes = (
"525 -45 LINE SMOOTH",
"550 -45 OFFCURVE",
"570 -25 OFFCURVE",
"570 0 CURVE SMOOTH",
"570 25 OFFCURVE",
"550 45 OFFCURVE",
"525 45 CURVE SMOOTH",
"120 45 LINE",
"120 320 LINE SMOOTH",
"120 345 OFFCURVE",
"100 365 OFFCURVE",
"75 365 CURVE SMOOTH",
"50 365 OFFCURVE",
"30 345 OFFCURVE",
"30 320 CURVE SMOOTH",
"30 0 LINE SMOOTH",
"30 -25 OFFCURVE",
"50 -45 OFFCURVE",
"75 -45 CURVE SMOOTH"
);
}
);
width = 600;
},
{
associatedMasterId = "ADA7F6FF-5955-4EF3-8FA7-BADC10F8EE4C";
layerId = "AAE253F5-4A74-4694-947C-9B19F09093EE";
name = path;
paths = (
{
closed = 0;
nodes = (
"525 0 LINE",
"75 0 LINE",
"75 320 LINE"
);
}
);
visible = 1;
width = 600;
}
);
unicode = 00BF;
},
{
color = 5;
glyphname = quotedbl;
lastChange = "2019-01-14 19:06:35 +0000";
layers = (
{
layerId = "ADA7F6FF-5955-4EF3-8FA7-BADC10F8EE4C";
paths = (
{
closed = 1;
nodes = (
"280 462 OFFCURVE",
"300 482 OFFCURVE",
"300 507 CURVE SMOOTH",
"300 680 LINE SMOOTH",
"300 705 OFFCURVE",
"280 725 OFFCURVE",
"255 725 CURVE SMOOTH",
"230 725 OFFCURVE",
"210 705 OFFCURVE",
"210 680 CURVE SMOOTH",
"210 507 LINE SMOOTH",
"210 482 OFFCURVE",
"230 462 OFFCURVE",
"255 462 CURVE SMOOTH"
);
},
{
closed = 1;
nodes = (
"100 462 OFFCURVE",
"120 482 OFFCURVE",
"120 507 CURVE SMOOTH",
"120 680 LINE SMOOTH",
"120 705 OFFCURVE",
"100 725 OFFCURVE",
"75 725 CURVE SMOOTH",
"50 725 OFFCURVE",
"30 705 OFFCURVE",
"30 680 CURVE SMOOTH",
"30 507 LINE SMOOTH",
"30 482 OFFCURVE",
"50 462 OFFCURVE",
"75 462 CURVE SMOOTH"
);
}
);
width = 330;
},
{
associatedMasterId = "ADA7F6FF-5955-4EF3-8FA7-BADC10F8EE4C";
layerId = "2640CAC5-E0F8-43C4-8A6B-6BA2BD699257";
name = "Nov 28 18, 16:08";
paths = (
{
closed = 0;
nodes = (
"245 680 LINE",
"245 507 LINE"
);
},
{
closed = 0;
nodes = (
"425 680 LINE",
"425 507 LINE"
);
}
);
width = 600;
},
{
associatedMasterId = "ADA7F6FF-5955-4EF3-8FA7-BADC10F8EE4C";
layerId = "D1045D94-DF26-4C9D-A08B-B82F15A5F051";
name = "Nov 28 18, 16:08";
paths = (
{
closed = 0;
nodes = (
"245 680 LINE",
"245 507 LINE"
);
},
{
closed = 0;
nodes = (
"425 680 LINE",
"425 507 LINE"
);
}
);
width = 600;
}
);
unicode = 0022;
},
{
color = 5;
glyphname = quotesingle;
lastChange = "2019-01-14 19:06:37 +0000";
layers = (
{
layerId = "ADA7F6FF-5955-4EF3-8FA7-BADC10F8EE4C";
paths = (
{
closed = 1;
nodes = (
"100 462 OFFCURVE",
"120 482 OFFCURVE",
"120 507 CURVE SMOOTH",
"120 680 LINE SMOOTH",
"120 705 OFFCURVE",
"100 725 OFFCURVE",
"75 725 CURVE SMOOTH",
"50 725 OFFCURVE",
"30 705 OFFCURVE",
"30 680 CURVE SMOOTH",
"30 507 LINE SMOOTH",
"30 482 OFFCURVE",
"50 462 OFFCURVE",
"75 462 CURVE SMOOTH"
);
}
);
width = 150;
},
{
associatedMasterId = "ADA7F6FF-5955-4EF3-8FA7-BADC10F8EE4C";
layerId = "BDA70BB0-5A66-4055-944C-0E9528BAA61E";
name = "Nov 28 18, 16:09";
paths = (
{
closed = 0;
nodes = (
"245 680 LINE",
"245 507 LINE"
);
}
);
width = 600;
},
{
associatedMasterId = "ADA7F6FF-5955-4EF3-8FA7-BADC10F8EE4C";
layerId = "404A0B4D-A4D5-4CE1-A649-00D97896390D";
name = "Nov 28 18, 16:09";
paths = (
{
closed = 0;
nodes = (
"245 680 LINE",
"245 507 LINE"
);
}
);
width = 600;
}
);
unicode = 0027;
},
{
color = 5;
glyphname = semicolon;
lastChange = "2019-01-16 10:46:40 +0000";
layers = (
{
layerId = "ADA7F6FF-5955-4EF3-8FA7-BADC10F8EE4C";
paths = (
{
closed = 1;
nodes = (
"70 398 OFFCURVE",
"90 378 OFFCURVE",
"115 378 CURVE SMOOTH",
"140 378 OFFCURVE",
"160 398 OFFCURVE",
"160 423 CURVE SMOOTH",
"160 448 OFFCURVE",
"140 468 OFFCURVE",
"115 468 CURVE SMOOTH",
"90 468 OFFCURVE",
"70 448 OFFCURVE",
"70 423 CURVE SMOOTH"
);
},
{
closed = 1;
nodes = (
"97 -145 OFFCURVE",
"115 -130 OFFCURVE",
"119 -109 CURVE SMOOTH",
"159 62 LINE SMOOTH",
"160 65 OFFCURVE",
"160 69 OFFCURVE",
"160 73 CURVE SMOOTH",
"160 98 OFFCURVE",
"140 118 OFFCURVE",
"115 118 CURVE SMOOTH",
"93 118 OFFCURVE",
"75 103 OFFCURVE",
"71 82 CURVE SMOOTH",
"31 -89 LINE SMOOTH",
"30 -92 OFFCURVE",
"30 -96 OFFCURVE",
"30 -100 CURVE SMOOTH",
"30 -125 OFFCURVE",
"50 -145 OFFCURVE",
"75 -145 CURVE SMOOTH"
);
}
);
width = 190;
}
);
unicode = 003B;
},
{
color = 5;
glyphname = slash;
lastChange = "2019-01-16 10:06:20 +0000";
layers = (
{
layerId = "ADA7F6FF-5955-4EF3-8FA7-BADC10F8EE4C";
paths = (
{
closed = 1;
nodes = (
"91 -45 OFFCURVE",
"105 -37 OFFCURVE",
"113 -24 CURVE SMOOTH",
"562 655 LINE SMOOTH",
"567 662 OFFCURVE",
"570 671 OFFCURVE",
"570 680 CURVE SMOOTH",
"570 705 OFFCURVE",
"550 725 OFFCURVE",
"525 725 CURVE SMOOTH",
"509 725 OFFCURVE",
"495 717 OFFCURVE",
"487 704 CURVE SMOOTH",
"38 25 LINE SMOOTH",
"33 18 OFFCURVE",
"30 9 OFFCURVE",
"30 0 CURVE SMOOTH",
"30 -25 OFFCURVE",
"50 -45 OFFCURVE",
"75 -45 CURVE SMOOTH"
);
}
);
width = 600;
},
{
associatedMasterId = "ADA7F6FF-5955-4EF3-8FA7-BADC10F8EE4C";
layerId = "8D2A66B3-FFD6-4FED-B567-32331C2CBB1E";
name = path;
paths = (
{
closed = 0;
nodes = (
"75 0 LINE",
"525 680 LINE"
);
}
);
visible = 1;
width = 600;
}
);
unicode = 002F;
},
{
color = 5;
glyphname = underscore;
lastChange = "2019-01-14 19:05:17 +0000";
layers = (
{
layerId = "ADA7F6FF-5955-4EF3-8FA7-BADC10F8EE4C";
paths = (
{
closed = 1;
nodes = (
"785 -225 LINE SMOOTH",
"810 -225 OFFCURVE",
"830 -205 OFFCURVE",
"830 -180 CURVE SMOOTH",
"830 -155 OFFCURVE",
"810 -135 OFFCURVE",
"785 -135 CURVE SMOOTH",
"75 -135 LINE SMOOTH",
"50 -135 OFFCURVE",
"30 -155 OFFCURVE",
"30 -180 CURVE SMOOTH",
"30 -205 OFFCURVE",
"50 -225 OFFCURVE",
"75 -225 CURVE SMOOTH"
);
}
);
width = 860;
}
);
unicode = 005F;
},
{
color = 5;
glyphname = question.alt1;
lastChange = "2019-01-16 09:16:28 +0000";
layers = (
{
layerId = "ADA7F6FF-5955-4EF3-8FA7-BADC10F8EE4C";
paths = (
{
closed = 1;
nodes = (
"120 25 OFFCURVE",
"100 45 OFFCURVE",
"75 45 CURVE SMOOTH",
"50 45 OFFCURVE",
"30 25 OFFCURVE",
"30 0 CURVE SMOOTH",
"30 -25 OFFCURVE",
"50 -45 OFFCURVE",
"75 -45 CURVE SMOOTH",
"100 -45 OFFCURVE",
"120 -25 OFFCURVE",
"120 0 CURVE SMOOTH"
);
},
{
closed = 1;
nodes = (
"545 500 LINE SMOOTH",
"545 525 OFFCURVE",
"525 545 OFFCURVE",
"500 545 CURVE SMOOTH",
"75 545 LINE SMOOTH",
"50 545 OFFCURVE",
"30 525 OFFCURVE",
"30 500 CURVE SMOOTH",
"30 475 OFFCURVE",
"50 455 OFFCURVE",
"75 455 CURVE SMOOTH",
"455 455 LINE",
"455 225 LINE",
"75 225 LINE SMOOTH",
"50 225 OFFCURVE",
"30 205 OFFCURVE",
"30 180 CURVE SMOOTH",
"30 155 OFFCURVE",
"50 135 OFFCURVE",
"75 135 CURVE SMOOTH",
"500 135 LINE SMOOTH",
"525 135 OFFCURVE",
"545 155 OFFCURVE",
"545 180 CURVE SMOOTH"
);
}
);
width = 576;
},
{
associatedMasterId = "ADA7F6FF-5955-4EF3-8FA7-BADC10F8EE4C";
layerId = "0C197EBC-1689-4E5A-8D26-C56635B82349";
name = "Nov 26 18, 13:43";
paths = (
{
closed = 1;
nodes = (
"30 -25 OFFCURVE",
"50 -45 OFFCURVE",
"75 -45 CURVE SMOOTH",
"100 -45 OFFCURVE",
"120 -25 OFFCURVE",
"120 0 CURVE SMOOTH",
"120 25 OFFCURVE",
"100 45 OFFCURVE",
"75 45 CURVE SMOOTH",
"50 45 OFFCURVE",
"30 25 OFFCURVE",
"30 0 CURVE SMOOTH"
);
},
{
closed = 1;
nodes = (
"30 133 OFFCURVE",
"50 113 OFFCURVE",
"75 113 CURVE SMOOTH",
"100 113 OFFCURVE",
"120 133 OFFCURVE",
"120 158 CURVE SMOOTH",
"120 205 LINE",
"467 205 LINE SMOOTH",
"491 205 OFFCURVE",
"507 212 OFFCURVE",
"523 228 CURVE SMOOTH",
"538 243 OFFCURVE",
"545 259 OFFCURVE",
"545 283 CURVE SMOOTH",
"545 467 LINE SMOOTH",
"545 491 OFFCURVE",
"538 507 OFFCURVE",
"523 523 CURVE SMOOTH",
"508 539 OFFCURVE",
"491 545 OFFCURVE",
"467 545 CURVE SMOOTH",
"75 545 LINE SMOOTH",
"50 545 OFFCURVE",
"30 525 OFFCURVE",
"30 500 CURVE SMOOTH",
"30 475 OFFCURVE",
"50 455 OFFCURVE",
"75 455 CURVE SMOOTH",
"455 455 LINE",
"455 295 LINE",
"75 295 LINE SMOOTH",
"50 295 OFFCURVE",
"30 275 OFFCURVE",
"30 250 CURVE SMOOTH",
"30 158 LINE SMOOTH"
);
}
);
width = 850;
},
{
associatedMasterId = "ADA7F6FF-5955-4EF3-8FA7-BADC10F8EE4C";
layerId = "9BAA2805-1EA8-4FEA-86D7-4F0AF24F3F24";
name = path;
paths = (
{
closed = 0;
nodes = (
"75 500 LINE",
"501 500 LINE",
"500 180 LINE",
"75 180 LINE"
);
}
);
visible = 1;
width = 576;
}
);
},
{
color = 5;
glyphname = questiondown.alt1;
lastChange = "2019-01-16 09:17:23 +0000";
layers = (
{
layerId = "ADA7F6FF-5955-4EF3-8FA7-BADC10F8EE4C";
paths = (
{
closed = 1;
nodes = (
"455 475 OFFCURVE",
"475 455 OFFCURVE",
"500 455 CURVE SMOOTH",
"525 455 OFFCURVE",
"545 475 OFFCURVE",
"545 500 CURVE SMOOTH",
"545 525 OFFCURVE",
"525 545 OFFCURVE",
"500 545 CURVE SMOOTH",
"475 545 OFFCURVE",
"455 525 OFFCURVE",
"455 500 CURVE SMOOTH"
);
},
{
closed = 1;
nodes = (
"30 0 LINE SMOOTH",
"30 -25 OFFCURVE",
"50 -45 OFFCURVE",
"75 -45 CURVE SMOOTH",
"500 -45 LINE SMOOTH",
"525 -45 OFFCURVE",
"545 -25 OFFCURVE",
"545 0 CURVE SMOOTH",
"545 25 OFFCURVE",
"525 45 OFFCURVE",
"500 45 CURVE SMOOTH",
"120 45 LINE",
"120 275 LINE",
"500 275 LINE SMOOTH",
"525 275 OFFCURVE",
"545 295 OFFCURVE",
"545 320 CURVE SMOOTH",
"545 345 OFFCURVE",
"525 365 OFFCURVE",
"500 365 CURVE SMOOTH",
"75 365 LINE SMOOTH",
"50 365 OFFCURVE",
"30 345 OFFCURVE",
"30 320 CURVE SMOOTH"
);
}
);
width = 576;
},
{
associatedMasterId = "ADA7F6FF-5955-4EF3-8FA7-BADC10F8EE4C";
layerId = "98F0AE08-5451-42A2-8CC4-AF62C8BCBBA2";
name = path;
paths = (
{
closed = 0;
nodes = (
"501 320 LINE",
"76 320 LINE",
"75 0 LINE",
"501 0 LINE"
);
}
);
width = 576;
}
);
},
{
glyphname = braceleft;
lastChange = "2019-01-14 19:02:58 +0000";
layers = (
{
layerId = "ADA7F6FF-5955-4EF3-8FA7-BADC10F8EE4C";
paths = (
{
closed = 1;
nodes = (
"381 -225 OFFCURVE",
"401 -205 OFFCURVE",
"401 -180 CURVE SMOOTH",
"401 -175 OFFCURVE",
"400 -171 OFFCURVE",
"399 -166 CURVE SMOOTH",
"278 250 LINE",
"399 666 LINE SMOOTH",
"400 671 OFFCURVE",
"401 675 OFFCURVE",
"401 680 CURVE SMOOTH",
"401 705 OFFCURVE",
"381 725 OFFCURVE",
"356 725 CURVE SMOOTH",
"335 725 OFFCURVE",
"318 711 OFFCURVE",
"313 692 CURVE SMOOTH",
"197 295 LINE",
"75 295 LINE SMOOTH",
"50 295 OFFCURVE",
"30 275 OFFCURVE",
"30 250 CURVE SMOOTH",
"30 225 OFFCURVE",
"50 205 OFFCURVE",
"75 205 CURVE SMOOTH",
"197 205 LINE",
"313 -192 LINE SMOOTH",
"318 -211 OFFCURVE",
"335 -225 OFFCURVE",
"356 -225 CURVE SMOOTH"
);
}
);
width = 431;
},
{
associatedMasterId = "ADA7F6FF-5955-4EF3-8FA7-BADC10F8EE4C";
layerId = "B8528156-A068-4FF6-B29E-A8552AEC8F45";
name = "Nov 26 18, 11:47";
paths = (
{
closed = 0;
nodes = (
"50 250 LINE",
"250 250 LINE",
"500 -180 LINE"
);
},
{
closed = 0;
nodes = (
"500 680 LINE",
"250 250 LINE"
);
}
);
width = 600;
},
{
associatedMasterId = "ADA7F6FF-5955-4EF3-8FA7-BADC10F8EE4C";
layerId = "B1F9FD62-5D48-4062-AE01-7688A5D7EDFC";
name = "Nov 26 18, 11:48";
paths = (
{
closed = 0;
nodes = (
"50 250 LINE",
"175 250 LINE",
"375 -180 LINE",
"500 -180 LINE"
);
},
{
closed = 0;
nodes = (
"175 250 LINE",
"375 680 LINE",
"500 680 LINE"
);
}
);
width = 600;
},
{
associatedMasterId = "ADA7F6FF-5955-4EF3-8FA7-BADC10F8EE4C";
layerId = "EB28F7F6-2CBA-42E6-82B6-A61609047058";
name = "Nov 26 18, 13:59";
paths = (
{
closed = 0;
nodes = (
"367 -180 LINE",
"242 250 LINE",
"367 680 LINE"
);
},
{
closed = 0;
nodes = (
"86 250 LINE",
"242 250 LINE"
);
}
);
width = 600;
},
{
associatedMasterId = "ADA7F6FF-5955-4EF3-8FA7-BADC10F8EE4C";
layerId = "93BB7310-E2AC-4911-9251-D3F9B12456D6";
name = "Nov 26 18, 11:47";
paths = (
{
closed = 0;
nodes = (
"50 250 LINE",
"250 250 LINE",
"500 -180 LINE"
);
},
{
closed = 0;
nodes = (
"500 680 LINE",
"250 250 LINE"
);
}
);
width = 600;
},
{
associatedMasterId = "ADA7F6FF-5955-4EF3-8FA7-BADC10F8EE4C";
layerId = "5A78B8A6-074B-462B-8F26-110292FD3CC8";
name = "Nov 26 18, 11:48";
paths = (
{
closed = 0;
nodes = (
"50 250 LINE",
"175 250 LINE",
"375 -180 LINE",
"500 -180 LINE"
);
},
{
closed = 0;
nodes = (
"175 250 LINE",
"375 680 LINE",
"500 680 LINE"
);
}
);
width = 600;
},
{
associatedMasterId = "ADA7F6FF-5955-4EF3-8FA7-BADC10F8EE4C";
layerId = "063ADCA3-ED6F-490C-9D49-79FAA18F29C6";
name = "Nov 26 18, 13:59";
paths = (
{
closed = 0;
nodes = (
"367 -180 LINE",
"242 250 LINE",
"367 680 LINE"
);
},
{
closed = 0;
nodes = (
"86 250 LINE",
"242 250 LINE"
);
}
);
width = 600;
}
);
unicode = 007B;
},
{
glyphname = braceright;
lastChange = "2019-01-14 19:02:58 +0000";
layers = (
{
layerId = "ADA7F6FF-5955-4EF3-8FA7-BADC10F8EE4C";
paths = (
{
closed = 1;
nodes = (
"96 -225 OFFCURVE",
"113 -211 OFFCURVE",
"118 -192 CURVE SMOOTH",
"234 205 LINE",
"356 205 LINE SMOOTH",
"381 205 OFFCURVE",
"401 225 OFFCURVE",
"401 250 CURVE SMOOTH",
"401 275 OFFCURVE",
"381 295 OFFCURVE",
"356 295 CURVE SMOOTH",
"234 295 LINE",
"118 692 LINE SMOOTH",
"113 711 OFFCURVE",
"96 725 OFFCURVE",
"75 725 CURVE SMOOTH",
"50 725 OFFCURVE",
"30 705 OFFCURVE",
"30 680 CURVE SMOOTH",
"30 675 OFFCURVE",
"31 671 OFFCURVE",
"32 666 CURVE SMOOTH",
"153 250 LINE",
"32 -166 LINE SMOOTH",
"31 -171 OFFCURVE",
"30 -175 OFFCURVE",
"30 -180 CURVE SMOOTH",
"30 -205 OFFCURVE",
"50 -225 OFFCURVE",
"75 -225 CURVE SMOOTH"
);
}
);
width = 431;
},
{
associatedMasterId = "ADA7F6FF-5955-4EF3-8FA7-BADC10F8EE4C";
layerId = "1F5E8936-1F37-47AA-BEE9-A51F755FB445";
name = "Nov 26 18, 11:48";
paths = (
{
closed = 0;
nodes = (
"500 250 LINE",
"300 250 LINE",
"50 -180 LINE"
);
},
{
closed = 0;
nodes = (
"50 680 LINE",
"300 250 LINE"
);
}
);
width = 600;
},
{
associatedMasterId = "ADA7F6FF-5955-4EF3-8FA7-BADC10F8EE4C";
layerId = "5F95CF3D-B23D-4B10-B0D0-857A20E965F5";
name = "Nov 26 18, 11:49";
paths = (
{
closed = 0;
nodes = (
"500 250 LINE",
"375 250 LINE",
"175 -180 LINE",
"50 -180 LINE"
);
},
{
closed = 0;
nodes = (
"375 250 LINE",
"175 680 LINE",
"50 680 LINE"
);
}
);
width = 600;
},
{
associatedMasterId = "ADA7F6FF-5955-4EF3-8FA7-BADC10F8EE4C";
layerId = "ECEA26C6-6ACF-4054-B679-EFC7FE44F416";
name = "Nov 26 18, 11:48";
paths = (
{
closed = 0;
nodes = (
"500 250 LINE",
"300 250 LINE",
"50 -180 LINE"
);
},
{
closed = 0;
nodes = (
"50 680 LINE",
"300 250 LINE"
);
}
);
width = 600;
},
{
associatedMasterId = "ADA7F6FF-5955-4EF3-8FA7-BADC10F8EE4C";
layerId = "7B87BF78-3F4D-479C-94B2-30D1CC6369C5";
name = "Nov 26 18, 11:49";
paths = (
{
closed = 0;
nodes = (
"500 250 LINE",
"375 250 LINE",
"175 -180 LINE",
"50 -180 LINE"
);
},
{
closed = 0;
nodes = (
"375 250 LINE",
"175 680 LINE",
"50 680 LINE"
);
}
);
width = 600;
}
);
unicode = 007D;
},
{
color = 5;
glyphname = bracketleft;
lastChange = "2019-01-16 09:21:38 +0000";
layers = (
{
layerId = "ADA7F6FF-5955-4EF3-8FA7-BADC10F8EE4C";
paths = (
{
closed = 1;
nodes = (
"31 -175 OFFCURVE",
"51 -195 OFFCURVE",
"76 -195 CURVE SMOOTH",
"275 -195 LINE SMOOTH",
"300 -195 OFFCURVE",
"320 -175 OFFCURVE",
"320 -150 CURVE SMOOTH",
"320 -125 OFFCURVE",
"300 -105 OFFCURVE",
"275 -105 CURVE SMOOTH",
"121 -105 LINE",
"120 605 LINE",
"275 605 LINE SMOOTH",
"300 605 OFFCURVE",
"320 625 OFFCURVE",
"320 650 CURVE SMOOTH",
"320 675 OFFCURVE",
"300 695 OFFCURVE",
"275 695 CURVE SMOOTH",
"75 695 LINE SMOOTH",
"50 695 OFFCURVE",
"30 675 OFFCURVE",
"30 650 CURVE SMOOTH",
"31 -150 LINE SMOOTH"
);
}
);
width = 350;
},
{
associatedMasterId = "ADA7F6FF-5955-4EF3-8FA7-BADC10F8EE4C";
layerId = "D29A66DC-A5F8-442B-9EF4-6F65882D13EF";
name = path;
paths = (
{
closed = 0;
nodes = (
"275 650 LINE",
"75 650 LINE",
"76 -150 LINE",
"275 -150 LINE"
);
}
);
visible = 1;
width = 350;
}
);
unicode = 005B;
},
{
color = 5;
glyphname = bracketright;
lastChange = "2019-01-16 09:21:45 +0000";
layers = (
{
layerId = "ADA7F6FF-5955-4EF3-8FA7-BADC10F8EE4C";
paths = (
{
closed = 1;
nodes = (
"320 650 LINE SMOOTH",
"320 675 OFFCURVE",
"300 695 OFFCURVE",
"275 695 CURVE SMOOTH",
"75 695 LINE SMOOTH",
"50 695 OFFCURVE",
"30 675 OFFCURVE",
"30 650 CURVE SMOOTH",
"30 625 OFFCURVE",
"50 605 OFFCURVE",
"75 605 CURVE SMOOTH",
"230 605 LINE",
"229 -105 LINE",
"75 -105 LINE SMOOTH",
"50 -105 OFFCURVE",
"30 -125 OFFCURVE",
"30 -150 CURVE SMOOTH",
"30 -175 OFFCURVE",
"50 -195 OFFCURVE",
"75 -195 CURVE SMOOTH",
"274 -195 LINE SMOOTH",
"299 -195 OFFCURVE",
"319 -175 OFFCURVE",
"319 -150 CURVE SMOOTH"
);
}
);
width = 350;
},
{
associatedMasterId = "ADA7F6FF-5955-4EF3-8FA7-BADC10F8EE4C";
layerId = "306704DE-9380-4318-A08C-FF386A9A8D3F";
name = path;
paths = (
{
closed = 0;
nodes = (
"75 -150 LINE",
"274 -150 LINE",
"275 650 LINE",
"75 650 LINE"
);
}
);
visible = 1;
width = 350;
}
);
unicode = 005D;
},
{
color = 5;
glyphname = parenleft;
lastChange = "2019-01-17 09:03:36 +0000";
layers = (
{
layerId = "ADA7F6FF-5955-4EF3-8FA7-BADC10F8EE4C";
paths = (
{
closed = 1;
nodes = (
"223 -225 OFFCURVE",
"243 -205 OFFCURVE",
"243 -180 CURVE SMOOTH",
"243 -175 OFFCURVE",
"242 -171 OFFCURVE",
"241 -166 CURVE SMOOTH",
"120 250 LINE",
"241 666 LINE SMOOTH",
"242 671 OFFCURVE",
"243 675 OFFCURVE",
"243 680 CURVE SMOOTH",
"243 705 OFFCURVE",
"223 725 OFFCURVE",
"198 725 CURVE SMOOTH",
"177 725 OFFCURVE",
"160 711 OFFCURVE",
"155 692 CURVE SMOOTH",
"38 289 LINE SMOOTH",
"32 270 OFFCURVE",
"30 259 OFFCURVE",
"30 250 CURVE SMOOTH",
"30 241 OFFCURVE",
"32 230 OFFCURVE",
"38 211 CURVE SMOOTH",
"155 -192 LINE SMOOTH",
"160 -211 OFFCURVE",
"177 -225 OFFCURVE",
"198 -225 CURVE SMOOTH"
);
}
);
width = 273;
},
{
associatedMasterId = "ADA7F6FF-5955-4EF3-8FA7-BADC10F8EE4C";
layerId = "1D6ABEA4-8F87-4F93-879B-743DD951C542";
name = path;
paths = (
{
closed = 0;
nodes = (
"200 -180 LINE",
"75 250 LINE",
"200 680 LINE"
);
}
);
visible = 1;
width = 275;
},
{
associatedMasterId = "ADA7F6FF-5955-4EF3-8FA7-BADC10F8EE4C";
layerId = "98A09596-4107-4BEA-B30C-1372935C614A";
name = "Jan 17 19, 10:02";
paths = (
{
closed = 1;
nodes = (
"30.021 245.695 OFFCURVE",
"30.572 241.758 OFFCURVE",
"31.588 238.02 CURVE",
"32 236 LINE",
"157 -192 LINE SMOOTH",
"163 -211 OFFCURVE",
"179 -225 OFFCURVE",
"200 -225 CURVE SMOOTH",
"225 -225 OFFCURVE",
"245 -205 OFFCURVE",
"245 -180 CURVE SMOOTH",
"245 -175 OFFCURVE",
"244 -171 OFFCURVE",
"243 -166 CURVE",
"121.505 250 LINE",
"243 666 LINE",
"244 671 OFFCURVE",
"245 675 OFFCURVE",
"245 680 CURVE SMOOTH",
"245 705 OFFCURVE",
"225 725 OFFCURVE",
"200 725 CURVE SMOOTH",
"179 725 OFFCURVE",
"162 711 OFFCURVE",
"157 692 CURVE SMOOTH",
"32 264 LINE",
"31 259 OFFCURVE",
"30 255 OFFCURVE",
"30 250 CURVE SMOOTH"
);
}
);
width = 275;
},
{
associatedMasterId = "ADA7F6FF-5955-4EF3-8FA7-BADC10F8EE4C";
layerId = "F7F1FC13-61AB-4751-AACF-5BDF4BAFB4D3";
name = "Jan 17 19, 10:02";
paths = (
{
closed = 1;
nodes = (
"224.853 -225 OFFCURVE",
"245 -204.853 OFFCURVE",
"245 -180 CURVE SMOOTH",
"245 -175.279 OFFCURVE",
"244.272 -170.729 OFFCURVE",
"242.924 -166.453 CURVE SMOOTH",
"118.486 261.616 LINE SMOOTH",
"113.364 280.839 OFFCURVE",
"95.836 295 OFFCURVE",
"75 295 CURVE SMOOTH",
"50.147 295 OFFCURVE",
"30 274.853 OFFCURVE",
"30 250 CURVE SMOOTH",
"30 245.279 OFFCURVE",
"30.728 240.729 OFFCURVE",
"32.076 236.454 CURVE SMOOTH",
"156.514 -191.617 LINE SMOOTH",
"161.636 -210.839 OFFCURVE",
"179.164 -225 OFFCURVE",
"200 -225 CURVE SMOOTH"
);
}
);
width = 275;
}
);
unicode = 0028;
},
{
glyphname = parenright;
lastChange = "2019-01-14 19:02:58 +0000";
layers = (
{
layerId = "ADA7F6FF-5955-4EF3-8FA7-BADC10F8EE4C";
paths = (
{
closed = 1;
nodes = (
"96 -225 OFFCURVE",
"113 -211 OFFCURVE",
"118 -192 CURVE SMOOTH",
"235 211 LINE SMOOTH",
"241 230 OFFCURVE",
"243 241 OFFCURVE",
"243 250 CURVE SMOOTH",
"243 259 OFFCURVE",
"241 270 OFFCURVE",
"235 289 CURVE SMOOTH",
"118 692 LINE SMOOTH",
"113 711 OFFCURVE",
"96 725 OFFCURVE",
"75 725 CURVE SMOOTH",
"50 725 OFFCURVE",
"30 705 OFFCURVE",
"30 680 CURVE SMOOTH",
"30 675 OFFCURVE",
"31 671 OFFCURVE",
"32 666 CURVE SMOOTH",
"153 250 LINE",
"32 -166 LINE SMOOTH",
"31 -171 OFFCURVE",
"30 -175 OFFCURVE",
"30 -180 CURVE SMOOTH",
"30 -205 OFFCURVE",
"50 -225 OFFCURVE",
"75 -225 CURVE SMOOTH"
);
}
);
width = 273;
},
{
associatedMasterId = "ADA7F6FF-5955-4EF3-8FA7-BADC10F8EE4C";
layerId = "E5E50BF0-A36E-4AA8-8CD1-41FAFF0560EF";
name = "Nov 26 18, 11:42";
paths = (
{
closed = 0;
nodes = (
"250 -180 LINE",
"350 -110 OFFCURVE",
"500 0 OFFCURVE",
"500 250 CURVE SMOOTH",
"500 500 OFFCURVE",
"350 610 OFFCURVE",
"250 680 CURVE SMOOTH"
);
}
);
width = 600;
},
{
associatedMasterId = "ADA7F6FF-5955-4EF3-8FA7-BADC10F8EE4C";
layerId = "F4015FA4-EE73-4A91-B48E-C389B569F4F4";
name = "Nov 26 18, 12:01";
paths = (
{
closed = 0;
nodes = (
"0 -180 LINE",
"125 250 LINE",
"0 680 LINE"
);
}
);
width = 600;
},
{
associatedMasterId = "ADA7F6FF-5955-4EF3-8FA7-BADC10F8EE4C";
layerId = "90F2F8D5-77EA-49DB-928B-81B783138701";
name = "Nov 26 18, 11:42";
paths = (
{
closed = 0;
nodes = (
"250 -180 LINE",
"350 -110 OFFCURVE",
"500 0 OFFCURVE",
"500 250 CURVE SMOOTH",
"500 500 OFFCURVE",
"350 610 OFFCURVE",
"250 680 CURVE SMOOTH"
);
}
);
width = 600;
},
{
associatedMasterId = "ADA7F6FF-5955-4EF3-8FA7-BADC10F8EE4C";
layerId = "7B2EF4E3-D7F8-432E-8330-1CDF99F20F87";
name = "Nov 26 18, 12:01";
paths = (
{
closed = 0;
nodes = (
"0 -180 LINE",
"125 250 LINE",
"0 680 LINE"
);
}
);
width = 600;
}
);
unicode = 0029;
},
{
glyphname = braceleft.alt1;
lastChange = "2019-01-14 19:02:58 +0000";
layers = (
{
layerId = "ADA7F6FF-5955-4EF3-8FA7-BADC10F8EE4C";
paths = (
{
closed = 1;
nodes = (
"525 -225 LINE SMOOTH",
"550 -225 OFFCURVE",
"570 -205 OFFCURVE",
"570 -180 CURVE SMOOTH",
"570 -155 OFFCURVE",
"550 -135 OFFCURVE",
"525 -135 CURVE SMOOTH",
"429 -135 LINE",
"250 250 LINE",
"429 635 LINE",
"525 635 LINE SMOOTH",
"550 635 OFFCURVE",
"570 655 OFFCURVE",
"570 680 CURVE SMOOTH",
"570 705 OFFCURVE",
"550 725 OFFCURVE",
"525 725 CURVE SMOOTH",
"430 725 LINE SMOOTH",
"408 725 OFFCURVE",
"394 721 OFFCURVE",
"380 712 CURVE SMOOTH",
"365 703 OFFCURVE",
"356 691 OFFCURVE",
"346 671 CURVE SMOOTH",
"171 295 LINE",
"75 295 LINE SMOOTH",
"50 295 OFFCURVE",
"30 275 OFFCURVE",
"30 250 CURVE SMOOTH",
"30 225 OFFCURVE",
"50 205 OFFCURVE",
"75 205 CURVE SMOOTH",
"171 205 LINE",
"346 -171 LINE SMOOTH",
"356 -191 OFFCURVE",
"365 -203 OFFCURVE",
"380 -212 CURVE SMOOTH",
"394 -221 OFFCURVE",
"408 -225 OFFCURVE",
"430 -225 CURVE SMOOTH"
);
}
);
width = 600;
},
{
associatedMasterId = "ADA7F6FF-5955-4EF3-8FA7-BADC10F8EE4C";
layerId = "E91E4DFC-52D8-429F-9B98-9AA2769F6305";
name = "Nov 26 18, 14:00";
paths = (
{
closed = 0;
nodes = (
"50 250 LINE",
"175 250 LINE",
"375 -180 LINE",
"500 -180 LINE"
);
},
{
closed = 0;
nodes = (
"175 250 LINE",
"375 680 LINE",
"500 680 LINE"
);
}
);
width = 600;
},
{
associatedMasterId = "ADA7F6FF-5955-4EF3-8FA7-BADC10F8EE4C";
layerId = "9F1979F2-EAD0-4692-B644-FC07001B9F05";
name = "Nov 26 18, 14:00";
paths = (
{
closed = 0;
nodes = (
"50 250 LINE",
"175 250 LINE",
"375 -180 LINE",
"500 -180 LINE"
);
},
{
closed = 0;
nodes = (
"175 250 LINE",
"375 680 LINE",
"500 680 LINE"
);
}
);
width = 600;
}
);
},
{
glyphname = braceright.alt1;
lastChange = "2019-01-14 19:02:58 +0000";
layers = (
{
layerId = "ADA7F6FF-5955-4EF3-8FA7-BADC10F8EE4C";
paths = (
{
closed = 1;
nodes = (
"192 -225 OFFCURVE",
"206 -221 OFFCURVE",
"220 -212 CURVE SMOOTH",
"235 -203 OFFCURVE",
"244 -191 OFFCURVE",
"254 -171 CURVE SMOOTH",
"429 205 LINE",
"525 205 LINE SMOOTH",
"550 205 OFFCURVE",
"570 225 OFFCURVE",
"570 250 CURVE SMOOTH",
"570 275 OFFCURVE",
"550 295 OFFCURVE",
"525 295 CURVE SMOOTH",
"429 295 LINE",
"254 671 LINE SMOOTH",
"244 691 OFFCURVE",
"235 703 OFFCURVE",
"220 712 CURVE SMOOTH",
"206 721 OFFCURVE",
"192 725 OFFCURVE",
"170 725 CURVE SMOOTH",
"75 725 LINE SMOOTH",
"50 725 OFFCURVE",
"30 705 OFFCURVE",
"30 680 CURVE SMOOTH",
"30 655 OFFCURVE",
"50 635 OFFCURVE",
"75 635 CURVE SMOOTH",
"171 635 LINE",
"350 250 LINE",
"171 -135 LINE",
"75 -135 LINE SMOOTH",
"50 -135 OFFCURVE",
"30 -155 OFFCURVE",
"30 -180 CURVE SMOOTH",
"30 -205 OFFCURVE",
"50 -225 OFFCURVE",
"75 -225 CURVE SMOOTH",
"170 -225 LINE SMOOTH"
);
}
);
width = 600;
}
);
},
{
color = 5;
glyphname = emdash;
lastChange = "2019-01-14 19:04:27 +0000";
layers = (
{
layerId = "ADA7F6FF-5955-4EF3-8FA7-BADC10F8EE4C";
paths = (
{
closed = 1;
nodes = (
"975 205 LINE SMOOTH",
"1000 205 OFFCURVE",
"1020 225 OFFCURVE",
"1020 250 CURVE SMOOTH",
"1020 275 OFFCURVE",
"1000 295 OFFCURVE",
"975 295 CURVE SMOOTH",
"75 295 LINE SMOOTH",
"50 295 OFFCURVE",
"30 275 OFFCURVE",
"30 250 CURVE SMOOTH",
"30 225 OFFCURVE",
"50 205 OFFCURVE",
"75 205 CURVE SMOOTH"
);
}
);
width = 1050;
}
);
unicode = 2014;
},
{
color = 5;
glyphname = endash;
lastChange = "2019-01-14 19:04:27 +0000";
layers = (
{
layerId = "ADA7F6FF-5955-4EF3-8FA7-BADC10F8EE4C";
paths = (
{
closed = 1;
nodes = (
"785 205 LINE SMOOTH",
"810 205 OFFCURVE",
"830 225 OFFCURVE",
"830 250 CURVE SMOOTH",
"830 275 OFFCURVE",
"810 295 OFFCURVE",
"785 295 CURVE SMOOTH",
"75 295 LINE SMOOTH",
"50 295 OFFCURVE",
"30 275 OFFCURVE",
"30 250 CURVE SMOOTH",
"30 225 OFFCURVE",
"50 205 OFFCURVE",
"75 205 CURVE SMOOTH"
);
}
);
width = 860;
}
);
unicode = 2013;
},
{
color = 5;
glyphname = hyphen;
lastChange = "2019-01-14 19:04:27 +0000";
layers = (
{
layerId = "ADA7F6FF-5955-4EF3-8FA7-BADC10F8EE4C";
paths = (
{
closed = 1;
nodes = (
"585 205 LINE SMOOTH",
"610 205 OFFCURVE",
"630 225 OFFCURVE",
"630 250 CURVE SMOOTH",
"630 275 OFFCURVE",
"610 295 OFFCURVE",
"585 295 CURVE SMOOTH",
"75 295 LINE SMOOTH",
"50 295 OFFCURVE",
"30 275 OFFCURVE",
"30 250 CURVE SMOOTH",
"30 225 OFFCURVE",
"50 205 OFFCURVE",
"75 205 CURVE SMOOTH"
);
}
);
width = 660;
}
);
unicode = 002D;
},
{
color = 5;
glyphname = guillemetleft;
lastChange = "2019-01-16 10:28:06 +0000";
layers = (
{
layerId = "ADA7F6FF-5955-4EF3-8FA7-BADC10F8EE4C";
paths = (
{
closed = 1;
nodes = (
"187 -45 OFFCURVE",
"207 -25 OFFCURVE",
"207 0 CURVE SMOOTH",
"207 6 OFFCURVE",
"206 11 OFFCURVE",
"204 16 CURVE SMOOTH",
"120 250 LINE",
"204 484 LINE SMOOTH",
"206 489 OFFCURVE",
"207 494 OFFCURVE",
"207 500 CURVE SMOOTH",
"207 525 OFFCURVE",
"187 545 OFFCURVE",
"162 545 CURVE SMOOTH",
"142 545 OFFCURVE",
"125 532 OFFCURVE",
"119 514 CURVE SMOOTH",
"39 292 LINE SMOOTH",
"32 272 OFFCURVE",
"30 261 OFFCURVE",
"30 250 CURVE SMOOTH",
"30 239 OFFCURVE",
"32 228 OFFCURVE",
"39 208 CURVE SMOOTH",
"119 -14 LINE SMOOTH",
"125 -32 OFFCURVE",
"142 -45 OFFCURVE",
"162 -45 CURVE SMOOTH"
);
},
{
closed = 1;
nodes = (
"367 -45 OFFCURVE",
"387 -25 OFFCURVE",
"387 0 CURVE SMOOTH",
"387 6 OFFCURVE",
"386 11 OFFCURVE",
"384 16 CURVE SMOOTH",
"300 250 LINE",
"384 484 LINE SMOOTH",
"386 489 OFFCURVE",
"387 494 OFFCURVE",
"387 500 CURVE SMOOTH",
"387 525 OFFCURVE",
"367 545 OFFCURVE",
"342 545 CURVE SMOOTH",
"322 545 OFFCURVE",
"305 532 OFFCURVE",
"299 514 CURVE SMOOTH",
"219 292 LINE SMOOTH",
"212 272 OFFCURVE",
"210 261 OFFCURVE",
"210 250 CURVE SMOOTH",
"210 239 OFFCURVE",
"212 228 OFFCURVE",
"219 208 CURVE SMOOTH",
"299 -14 LINE SMOOTH",
"305 -32 OFFCURVE",
"322 -45 OFFCURVE",
"342 -45 CURVE SMOOTH"
);
}
);
width = 417;
},
{
associatedMasterId = "ADA7F6FF-5955-4EF3-8FA7-BADC10F8EE4C";
layerId = "4FF73220-18A6-48E6-9904-E70BD9F0E30D";
name = path;
paths = (
{
closed = 0;
nodes = (
"155 0 LINE",
"75 250 LINE",
"155 500 LINE"
);
},
{
closed = 0;
nodes = (
"355 0 LINE",
"275 250 LINE",
"355 500 LINE"
);
}
);
visible = 1;
width = 430;
}
);
unicode = 00AB;
},
{
color = 5;
glyphname = guillemetright;
lastChange = "2019-01-16 10:28:29 +0000";
layers = (
{
layerId = "ADA7F6FF-5955-4EF3-8FA7-BADC10F8EE4C";
paths = (
{
closed = 1;
nodes = (
"275 -45 OFFCURVE",
"292 -32 OFFCURVE",
"298 -14 CURVE SMOOTH",
"378 208 LINE SMOOTH",
"385 228 OFFCURVE",
"387 239 OFFCURVE",
"387 250 CURVE SMOOTH",
"387 261 OFFCURVE",
"385 272 OFFCURVE",
"378 292 CURVE SMOOTH",
"298 514 LINE SMOOTH",
"292 532 OFFCURVE",
"275 545 OFFCURVE",
"255 545 CURVE SMOOTH",
"230 545 OFFCURVE",
"210 525 OFFCURVE",
"210 500 CURVE SMOOTH",
"210 494 OFFCURVE",
"211 489 OFFCURVE",
"213 484 CURVE SMOOTH",
"297 250 LINE",
"213 16 LINE SMOOTH",
"211 11 OFFCURVE",
"210 6 OFFCURVE",
"210 0 CURVE SMOOTH",
"210 -25 OFFCURVE",
"230 -45 OFFCURVE",
"255 -45 CURVE SMOOTH"
);
},
{
closed = 1;
nodes = (
"95 -45 OFFCURVE",
"112 -32 OFFCURVE",
"118 -14 CURVE SMOOTH",
"198 208 LINE SMOOTH",
"205 228 OFFCURVE",
"207 239 OFFCURVE",
"207 250 CURVE SMOOTH",
"207 261 OFFCURVE",
"205 272 OFFCURVE",
"198 292 CURVE SMOOTH",
"118 514 LINE SMOOTH",
"112 532 OFFCURVE",
"95 545 OFFCURVE",
"75 545 CURVE SMOOTH",
"50 545 OFFCURVE",
"30 525 OFFCURVE",
"30 500 CURVE SMOOTH",
"30 494 OFFCURVE",
"31 489 OFFCURVE",
"33 484 CURVE SMOOTH",
"117 250 LINE",
"33 16 LINE SMOOTH",
"31 11 OFFCURVE",
"30 6 OFFCURVE",
"30 0 CURVE SMOOTH",
"30 -25 OFFCURVE",
"50 -45 OFFCURVE",
"75 -45 CURVE SMOOTH"
);
}
);
width = 417;
}
);
unicode = 00BB;
},
{
color = 5;
glyphname = guilsinglleft;
lastChange = "2019-01-16 10:28:58 +0000";
layers = (
{
layerId = "ADA7F6FF-5955-4EF3-8FA7-BADC10F8EE4C";
paths = (
{
closed = 1;
nodes = (
"187 -45 OFFCURVE",
"207 -25 OFFCURVE",
"207 0 CURVE SMOOTH",
"207 6 OFFCURVE",
"206 11 OFFCURVE",
"204 16 CURVE SMOOTH",
"120 250 LINE",
"204 484 LINE SMOOTH",
"206 489 OFFCURVE",
"207 494 OFFCURVE",
"207 500 CURVE SMOOTH",
"207 525 OFFCURVE",
"187 545 OFFCURVE",
"162 545 CURVE SMOOTH",
"142 545 OFFCURVE",
"125 532 OFFCURVE",
"119 514 CURVE SMOOTH",
"39 292 LINE SMOOTH",
"32 272 OFFCURVE",
"30 261 OFFCURVE",
"30 250 CURVE SMOOTH",
"30 239 OFFCURVE",
"32 228 OFFCURVE",
"39 208 CURVE SMOOTH",
"119 -14 LINE SMOOTH",
"125 -32 OFFCURVE",
"142 -45 OFFCURVE",
"162 -45 CURVE SMOOTH"
);
}
);
width = 237;
},
{
associatedMasterId = "ADA7F6FF-5955-4EF3-8FA7-BADC10F8EE4C";
layerId = "190B1D7B-00EB-4597-A004-3CECC2E9BE2C";
name = path;
paths = (
{
closed = 0;
nodes = (
"165 0 LINE",
"75 250 LINE",
"165 500 LINE"
);
}
);
visible = 1;
width = 240;
}
);
unicode = 2039;
},
{
color = 5;
glyphname = guilsinglright;
lastChange = "2019-01-16 10:29:14 +0000";
layers = (
{
layerId = "ADA7F6FF-5955-4EF3-8FA7-BADC10F8EE4C";
paths = (
{
closed = 1;
nodes = (
"95 -45 OFFCURVE",
"112 -32 OFFCURVE",
"118 -14 CURVE SMOOTH",
"198 208 LINE SMOOTH",
"205 228 OFFCURVE",
"207 239 OFFCURVE",
"207 250 CURVE SMOOTH",
"207 261 OFFCURVE",
"205 272 OFFCURVE",
"198 292 CURVE SMOOTH",
"118 514 LINE SMOOTH",
"112 532 OFFCURVE",
"95 545 OFFCURVE",
"75 545 CURVE SMOOTH",
"50 545 OFFCURVE",
"30 525 OFFCURVE",
"30 500 CURVE SMOOTH",
"30 494 OFFCURVE",
"31 489 OFFCURVE",
"33 484 CURVE SMOOTH",
"117 250 LINE",
"33 16 LINE SMOOTH",
"31 11 OFFCURVE",
"30 6 OFFCURVE",
"30 0 CURVE SMOOTH",
"30 -25 OFFCURVE",
"50 -45 OFFCURVE",
"75 -45 CURVE SMOOTH"
);
}
);
width = 237;
}
);
unicode = 203A;
},
{
glyphname = quotedblleft;
lastChange = "2019-01-14 19:02:58 +0000";
layers = (
{
layerId = "ADA7F6FF-5955-4EF3-8FA7-BADC10F8EE4C";
paths = (
{
closed = 1;
nodes = (
"320 462 OFFCURVE",
"340 482 OFFCURVE",
"340 507 CURVE SMOOTH",
"340 511 OFFCURVE",
"340 515 OFFCURVE",
"339 518 CURVE SMOOTH",
"299 689 LINE SMOOTH",
"295 710 OFFCURVE",
"277 725 OFFCURVE",
"255 725 CURVE SMOOTH",
"230 725 OFFCURVE",
"210 705 OFFCURVE",
"210 680 CURVE SMOOTH",
"210 676 OFFCURVE",
"210 672 OFFCURVE",
"211 669 CURVE SMOOTH",
"251 498 LINE SMOOTH",
"255 477 OFFCURVE",
"273 462 OFFCURVE",
"295 462 CURVE SMOOTH"
);
},
{
closed = 1;
nodes = (
"140 462 OFFCURVE",
"160 482 OFFCURVE",
"160 507 CURVE SMOOTH",
"160 511 OFFCURVE",
"160 515 OFFCURVE",
"159 518 CURVE SMOOTH",
"119 689 LINE SMOOTH",
"115 710 OFFCURVE",
"97 725 OFFCURVE",
"75 725 CURVE SMOOTH",
"50 725 OFFCURVE",
"30 705 OFFCURVE",
"30 680 CURVE SMOOTH",
"30 676 OFFCURVE",
"30 672 OFFCURVE",
"31 669 CURVE SMOOTH",
"71 498 LINE SMOOTH",
"75 477 OFFCURVE",
"93 462 OFFCURVE",
"115 462 CURVE SMOOTH"
);
}
);
width = 370;
},
{
associatedMasterId = "ADA7F6FF-5955-4EF3-8FA7-BADC10F8EE4C";
layerId = "13F00567-47C1-4769-9CB1-B6A0F38E6EB2";
name = "Nov 28 18, 16:08";
paths = (
{
closed = 0;
nodes = (
"425 680 LINE",
"465 507 LINE"
);
},
{
closed = 0;
nodes = (
"245 680 LINE",
"285 507 LINE"
);
}
);
width = 600;
},
{
associatedMasterId = "ADA7F6FF-5955-4EF3-8FA7-BADC10F8EE4C";
layerId = "916CF90F-1D68-4C12-86DC-FD6DEBF91461";
name = "Nov 28 18, 16:08";
paths = (
{
closed = 0;
nodes = (
"425 680 LINE",
"465 507 LINE"
);
},
{
closed = 0;
nodes = (
"245 680 LINE",
"285 507 LINE"
);
}
);
width = 600;
}
);
unicode = 201C;
},
{
glyphname = quotedblright;
lastChange = "2019-01-14 19:02:58 +0000";
layers = (
{
layerId = "ADA7F6FF-5955-4EF3-8FA7-BADC10F8EE4C";
paths = (
{
closed = 1;
nodes = (
"277 462 OFFCURVE",
"295 477 OFFCURVE",
"299 498 CURVE SMOOTH",
"339 669 LINE SMOOTH",
"340 672 OFFCURVE",
"340 676 OFFCURVE",
"340 680 CURVE SMOOTH",
"340 705 OFFCURVE",
"320 725 OFFCURVE",
"295 725 CURVE SMOOTH",
"273 725 OFFCURVE",
"255 710 OFFCURVE",
"251 689 CURVE SMOOTH",
"211 518 LINE SMOOTH",
"210 515 OFFCURVE",
"210 511 OFFCURVE",
"210 507 CURVE SMOOTH",
"210 482 OFFCURVE",
"230 462 OFFCURVE",
"255 462 CURVE SMOOTH"
);
},
{
closed = 1;
nodes = (
"97 462 OFFCURVE",
"115 477 OFFCURVE",
"119 498 CURVE SMOOTH",
"159 669 LINE SMOOTH",
"160 672 OFFCURVE",
"160 676 OFFCURVE",
"160 680 CURVE SMOOTH",
"160 705 OFFCURVE",
"140 725 OFFCURVE",
"115 725 CURVE SMOOTH",
"93 725 OFFCURVE",
"75 710 OFFCURVE",
"71 689 CURVE SMOOTH",
"31 518 LINE SMOOTH",
"30 515 OFFCURVE",
"30 511 OFFCURVE",
"30 507 CURVE SMOOTH",
"30 482 OFFCURVE",
"50 462 OFFCURVE",
"75 462 CURVE SMOOTH"
);
}
);
width = 370;
},
{
associatedMasterId = "ADA7F6FF-5955-4EF3-8FA7-BADC10F8EE4C";
layerId = "5C82CF9B-4F83-41D9-B5A0-FDC1A965214A";
name = "Nov 28 18, 16:07";
paths = (
{
closed = 0;
nodes = (
"285 680 LINE",
"245 507 LINE"
);
},
{
closed = 0;
nodes = (
"465 680 LINE",
"425 507 LINE"
);
}
);
width = 600;
},
{
associatedMasterId = "ADA7F6FF-5955-4EF3-8FA7-BADC10F8EE4C";
layerId = "50DB1C43-BCA8-4937-AE31-D839DF410C6E";
name = "Nov 28 18, 16:07";
paths = (
{
closed = 0;
nodes = (
"285 680 LINE",
"245 507 LINE"
);
},
{
closed = 0;
nodes = (
"465 680 LINE",
"425 507 LINE"
);
}
);
width = 600;
}
);
unicode = 201D;
},
{
glyphname = quoteleft;
lastChange = "2019-01-14 19:02:58 +0000";
layers = (
{
layerId = "ADA7F6FF-5955-4EF3-8FA7-BADC10F8EE4C";
paths = (
{
closed = 1;
nodes = (
"140 462 OFFCURVE",
"160 482 OFFCURVE",
"160 507 CURVE SMOOTH",
"160 511 OFFCURVE",
"160 515 OFFCURVE",
"159 518 CURVE SMOOTH",
"119 689 LINE SMOOTH",
"115 710 OFFCURVE",
"97 725 OFFCURVE",
"75 725 CURVE SMOOTH",
"50 725 OFFCURVE",
"30 705 OFFCURVE",
"30 680 CURVE SMOOTH",
"30 676 OFFCURVE",
"30 672 OFFCURVE",
"31 669 CURVE SMOOTH",
"71 498 LINE SMOOTH",
"75 477 OFFCURVE",
"93 462 OFFCURVE",
"115 462 CURVE SMOOTH"
);
}
);
width = 190;
},
{
associatedMasterId = "ADA7F6FF-5955-4EF3-8FA7-BADC10F8EE4C";
layerId = "3C269244-3CD9-4FBC-8652-966B9BD6A416";
name = "Nov 28 18, 16:05";
paths = (
{
closed = 0;
nodes = (
"245 680 LINE",
"285 507 LINE"
);
}
);
width = 600;
},
{
associatedMasterId = "ADA7F6FF-5955-4EF3-8FA7-BADC10F8EE4C";
layerId = "D7DB3E5C-4D51-47F7-AF3E-BE3139A56E4F";
name = "Nov 28 18, 16:05";
paths = (
{
closed = 0;
nodes = (
"245 680 LINE",
"285 507 LINE"
);
}
);
width = 600;
}
);
unicode = 2018;
},
{
glyphname = quoteright;
lastChange = "2019-01-14 19:02:58 +0000";
layers = (
{
layerId = "ADA7F6FF-5955-4EF3-8FA7-BADC10F8EE4C";
paths = (
{
closed = 1;
nodes = (
"97 462 OFFCURVE",
"115 477 OFFCURVE",
"119 498 CURVE SMOOTH",
"159 669 LINE SMOOTH",
"160 672 OFFCURVE",
"160 676 OFFCURVE",
"160 680 CURVE SMOOTH",
"160 705 OFFCURVE",
"140 725 OFFCURVE",
"115 725 CURVE SMOOTH",
"93 725 OFFCURVE",
"75 710 OFFCURVE",
"71 689 CURVE SMOOTH",
"31 518 LINE SMOOTH",
"30 515 OFFCURVE",
"30 511 OFFCURVE",
"30 507 CURVE SMOOTH",
"30 482 OFFCURVE",
"50 462 OFFCURVE",
"75 462 CURVE SMOOTH"
);
}
);
width = 190;
},
{
associatedMasterId = "ADA7F6FF-5955-4EF3-8FA7-BADC10F8EE4C";
layerId = "AF6AAB68-84FA-41C3-8373-40420AF5A51A";
name = "Nov 28 18, 16:06";
paths = (
{
closed = 0;
nodes = (
"285 680 LINE",
"245 507 LINE"
);
}
);
width = 600;
},
{
associatedMasterId = "ADA7F6FF-5955-4EF3-8FA7-BADC10F8EE4C";
layerId = "C1DF9F00-D566-48E7-A963-14F6985A3D6A";
name = "Nov 28 18, 16:06";
paths = (
{
closed = 0;
nodes = (
"285 680 LINE",
"245 507 LINE"
);
}
);
width = 600;
}
);
unicode = 2019;
},
{
color = 5;
glyphname = .notdef;
lastChange = "2019-01-14 19:02:58 +0000";
layers = (
{
layerId = "ADA7F6FF-5955-4EF3-8FA7-BADC10F8EE4C";
paths = (
{
closed = 1;
nodes = (
"100 441 LINE",
"443 250 LINE",
"100 59 LINE"
);
},
{
closed = 1;
nodes = (
"515 210 LINE",
"830 35 LINE",
"200 35 LINE"
);
},
{
closed = 1;
nodes = (
"200 465 LINE",
"830 465 LINE",
"515 290 LINE"
);
},
{
closed = 1;
nodes = (
"587 250 LINE",
"930 441 LINE",
"930 59 LINE"
);
},
{
closed = 1;
nodes = (
"30 -15 OFFCURVE",
"50 -35 OFFCURVE",
"75 -35 CURVE SMOOTH",
"955 -35 LINE SMOOTH",
"980 -35 OFFCURVE",
"1000 -15 OFFCURVE",
"1000 10 CURVE SMOOTH",
"1000 490 LINE SMOOTH",
"1000 515 OFFCURVE",
"980 535 OFFCURVE",
"955 535 CURVE SMOOTH",
"75 535 LINE SMOOTH",
"50 535 OFFCURVE",
"30 515 OFFCURVE",
"30 490 CURVE SMOOTH",
"30 10 LINE SMOOTH"
);
}
);
width = 1030;
},
{
associatedMasterId = "ADA7F6FF-5955-4EF3-8FA7-BADC10F8EE4C";
layerId = "B5EFDD3E-F1D7-4BC5-B9D6-DD08D53FD074";
name = path;
paths = (
{
closed = 1;
nodes = (
"30 0 LINE",
"930 0 LINE",
"930 500 LINE",
"30 500 LINE"
);
},
{
closed = 0;
nodes = (
"930 500 LINE",
"30 0 LINE"
);
},
{
closed = 0;
nodes = (
"30 500 LINE",
"930 0 LINE"
);
}
);
visible = 1;
width = 960;
},
{
associatedMasterId = "ADA7F6FF-5955-4EF3-8FA7-BADC10F8EE4C";
layerId = "AF1764C9-5F5F-4759-A7EA-E8256FD5B0C1";
name = path;
paths = (
{
closed = 1;
nodes = (
"30 0 LINE",
"930 0 LINE",
"930 500 LINE",
"30 500 LINE"
);
},
{
closed = 0;
nodes = (
"930 500 LINE",
"30 0 LINE"
);
},
{
closed = 0;
nodes = (
"30 500 LINE",
"930 0 LINE"
);
}
);
width = 960;
}
);
},
